<svg width="32" height="32" viewBox="0 0 32 32" fill="none" xmlns="http://www.w3.org/2000/svg">
<rect width="32" height="32" rx="8" fill="url(#paint0_linear_1315_52275)"/>
<path d="M11.9961 9H12.0059C12.5679 8.99428 13.1254 9.10311 13.6455 9.31934C14.1656 9.53559 14.638 9.85517 15.0342 10.2598L15.0361 10.2617L15.6191 10.8516L15.9746 11.2109L16.3301 10.8516L16.8086 10.3682L16.8135 10.3633C17.5558 9.59312 18.5482 9.12174 19.6064 9.03516C20.6611 8.94891 21.7113 9.251 22.5645 9.88574H22.5654C23.0511 10.2638 23.4523 10.7425 23.7412 11.29C24.0301 11.8375 24.201 12.441 24.2412 13.0605C24.2814 13.6802 24.1904 14.3017 23.9746 14.8828C23.7589 15.4636 23.4228 15.9908 22.9902 16.4297L16.8623 22.6299C16.7456 22.7479 16.607 22.8409 16.4551 22.9043C16.3032 22.9677 16.1406 23.0004 15.9766 23H15.9736C15.8096 23.0004 15.647 22.9677 15.4951 22.9043C15.3432 22.8409 15.2046 22.7479 15.0879 22.6299V22.6289L9.07617 16.5537C8.64876 16.1164 8.3117 15.5972 8.08398 15.0264C7.85588 14.4546 7.74178 13.8424 7.75 13.2256V13.2227C7.7541 12.6624 7.86785 12.1084 8.08398 11.5928C8.30011 11.0772 8.61517 10.6097 9.00977 10.2178C9.40413 9.82613 9.87081 9.51741 10.3828 9.30859C10.8952 9.09971 11.4439 8.99445 11.9961 9Z" stroke="white"/>
<defs>
<linearGradient id="paint0_linear_1315_52275" x1="16" y1="0" x2="16" y2="32" gradientUnits="userSpaceOnUse">
<stop stop-color="#FFDE62"/>
<stop offset="1" stop-color="#B28E07"/>
</linearGradient>
</defs>
</svg>
