<svg width="32" height="32" viewBox="0 0 32 32" fill="none" xmlns="http://www.w3.org/2000/svg">
<rect width="32" height="32" rx="8" fill="url(#paint0_linear_1315_52267)"/>
<path d="M15.1667 11.8333H16.8333M11.8333 16V18.5C11.8333 19.4205 12.5795 20.1667 13.5 20.1667H18.5C19.4205 20.1667 20.1667 19.4205 20.1667 18.5V16M13.8333 23.5H18.1667C20.0335 23.5 20.9669 23.5 21.68 23.1367C22.3072 22.8171 22.8171 22.3072 23.1367 21.68C23.5 20.9669 23.5 20.0335 23.5 18.1667V13.8333C23.5 11.9665 23.5 11.0331 23.1367 10.32C22.8171 9.69282 22.3072 9.18289 21.68 8.86331C20.9669 8.5 20.0335 8.5 18.1667 8.5H13.8333C11.9665 8.5 11.0331 8.5 10.32 8.86331C9.69282 9.18289 9.18289 9.69282 8.86331 10.32C8.5 11.0331 8.5 11.9665 8.5 13.8333V18.1667C8.5 20.0335 8.5 20.9669 8.86331 21.68C9.18289 22.3072 9.69282 22.8171 10.32 23.1367C11.0331 23.5 11.9665 23.5 13.8333 23.5Z" stroke="white" stroke-linecap="round"/>
<defs>
<linearGradient id="paint0_linear_1315_52267" x1="16" y1="0" x2="16" y2="32" gradientUnits="userSpaceOnUse">
<stop stop-color="#A55BFF"/>
<stop offset="1" stop-color="#7012E3"/>
</linearGradient>
</defs>
</svg>
