<svg width="32" height="32" viewBox="0 0 32 32" fill="none" xmlns="http://www.w3.org/2000/svg">
<rect width="32" height="32" rx="8" fill="url(#paint0_linear_1315_52298)"/>
<path d="M11.0001 8.5H23.5001C24.4206 8.5 25.1667 9.24619 25.1667 10.1667V20.1667M11.0001 14.3333H13.5001M11.0001 16.8333H13.5001M11.0001 19.3333H13.5001M10.3334 22.6667H20.0001C20.9335 22.6667 21.4002 22.6667 21.7567 22.485C22.0703 22.3252 22.3253 22.0703 22.4851 21.7567C22.6667 21.4001 22.6667 20.9334 22.6667 20V13.6667C22.6667 12.7332 22.6667 12.2665 22.4851 11.91C22.3253 11.5964 22.0703 11.3414 21.7567 11.1817C21.4002 11 20.9335 11 20.0001 11H10.3334C9.39999 11 8.93328 11 8.57676 11.1817C8.26316 11.3414 8.00819 11.5964 7.8484 11.91C7.66675 12.2665 7.66675 12.7332 7.66675 13.6667V20C7.66675 20.9334 7.66675 21.4001 7.8484 21.7567C8.00819 22.0703 8.26316 22.3252 8.57676 22.485C8.93328 22.6667 9.39999 22.6667 10.3334 22.6667ZM16.6667 17.6667H18.6667C18.9001 17.6667 19.0168 17.6667 19.1059 17.6213C19.1843 17.5813 19.2481 17.5176 19.288 17.4392C19.3334 17.35 19.3334 17.2334 19.3334 17V15C19.3334 14.7666 19.3334 14.65 19.288 14.5608C19.2481 14.4824 19.1843 14.4187 19.1059 14.3787C19.0168 14.3333 18.9001 14.3333 18.6667 14.3333H16.6667C16.4334 14.3333 16.3167 14.3333 16.2276 14.3787C16.1492 14.4187 16.0854 14.4824 16.0455 14.5608C16.0001 14.65 16.0001 14.7666 16.0001 15V17C16.0001 17.2334 16.0001 17.35 16.0455 17.4392C16.0854 17.5176 16.1492 17.5813 16.2276 17.6213C16.3167 17.6667 16.4334 17.6667 16.6667 17.6667Z" stroke="white" stroke-linecap="round"/>
<defs>
<linearGradient id="paint0_linear_1315_52298" x1="16" y1="0" x2="16" y2="32" gradientUnits="userSpaceOnUse">
<stop stop-color="#39F085"/>
<stop offset="1" stop-color="#05BD52"/>
</linearGradient>
</defs>
</svg>
