<svg width="30" height="30" viewBox="0 0 30 30" fill="none" xmlns="http://www.w3.org/2000/svg">
<path d="M20.419 16.5H7.75C7.3365 16.5 7 16.1635 7 15.75V7.75C7 7.3365 7.3365 7 7.75 7H22.75C23.1635 7 23.5 7.3365 23.5 7.75V13.5715C23.5 13.7095 23.388 13.8215 23.25 13.8215C23.112 13.8215 23 13.7095 23 13.5715V7.75C23 7.6125 22.8875 7.5 22.75 7.5H7.75C7.6125 7.5 7.5 7.6125 7.5 7.75V15.75C7.5 15.8875 7.6125 16 7.75 16H20.419C20.557 16 20.669 16.112 20.669 16.25C20.669 16.388 20.557 16.5 20.419 16.5Z" fill="#1C1C1C"/>
<path d="M13.75 23.25C13.72 23.25 13.6905 23.2445 13.661 23.2335L9.7005 21.7245C8.8735 21.4095 8.0045 21.25 7.1195 21.25H5.75C5.612 21.25 5.5 21.138 5.5 21C5.5 20.862 5.612 20.75 5.75 20.75H7.1195C8.066 20.75 8.994 20.921 9.8785 21.258L13.839 22.767C13.9685 22.816 14.033 22.9605 13.9835 23.0895C13.946 23.189 13.8505 23.25 13.75 23.25Z" fill="#1C1C1C"/>
<path d="M23.75 29.25H16.495C15.3085 29.25 14.14 29.046 13.0235 28.644L9.2365 27.2805C8.7185 27.094 8.177 27 7.6275 27H5.75C5.612 27 5.5 26.888 5.5 26.75C5.5 26.612 5.612 26.5 5.75 26.5H7.6275C8.235 26.5 8.8335 26.6045 9.4055 26.81L13.1925 28.1735C14.2555 28.5565 15.3665 28.75 16.495 28.75H23.75C24.3015 28.75 24.75 28.3015 24.75 27.75C24.75 27.1985 24.3015 26.75 23.75 26.75H18C17.862 26.75 17.75 26.638 17.75 26.5C17.75 26.362 17.862 26.25 18 26.25H23.75C24.577 26.25 25.25 26.923 25.25 27.75C25.25 28.577 24.577 29.25 23.75 29.25Z" fill="#1C1C1C"/>
<path d="M1 20.25V27.5C1 27.776 1.224 28 1.5 28H4.25C4.526 28 4.75 27.776 4.75 27.5V20.25C4.75 19.974 4.526 19.75 4.25 19.75H1.5C1.224 19.75 1 19.974 1 20.25Z" fill="#7012E3"/>
<path d="M4.25 28.25H1.5C1.0865 28.25 0.75 27.9135 0.75 27.5V20.25C0.75 19.8365 1.0865 19.5 1.5 19.5H4.25C4.6635 19.5 5 19.8365 5 20.25V27.5C5 27.9135 4.6635 28.25 4.25 28.25ZM1.5 20C1.3625 20 1.25 20.1125 1.25 20.25V27.5C1.25 27.6375 1.3625 27.75 1.5 27.75H4.25C4.3875 27.75 4.5 27.6375 4.5 27.5V20.25C4.5 20.1125 4.3875 20 4.25 20H1.5Z" fill="#1C1C1C"/>
<path d="M17.25 25.75H14C13.862 25.75 13.75 25.638 13.75 25.5C13.75 25.362 13.862 25.25 14 25.25H17.25C17.8015 25.25 18.25 24.8015 18.25 24.25C18.25 23.6985 17.8015 23.25 17.25 23.25H13.75C13.612 23.25 13.5 23.138 13.5 23C13.5 22.862 13.612 22.75 13.75 22.75H17.25C18.077 22.75 18.75 23.423 18.75 24.25C18.75 25.077 18.077 25.75 17.25 25.75Z" fill="#1C1C1C"/>
<path d="M15.25 14.75C16.9069 14.75 18.25 13.4069 18.25 11.75C18.25 10.0931 16.9069 8.75 15.25 8.75C13.5931 8.75 12.25 10.0931 12.25 11.75C12.25 13.4069 13.5931 14.75 15.25 14.75Z" fill="white"/>
<path d="M15.25 15C13.458 15 12 13.542 12 11.75C12 9.958 13.458 8.5 15.25 8.5C17.042 8.5 18.5 9.958 18.5 11.75C18.5 13.542 17.042 15 15.25 15ZM15.25 9C13.734 9 12.5 10.234 12.5 11.75C12.5 13.266 13.734 14.5 15.25 14.5C16.766 14.5 18 13.266 18 11.75C18 10.234 16.766 9 15.25 9Z" fill="#1C1C1C"/>
<path d="M15.625 13.25H14.25C14.112 13.25 14 13.138 14 13C14 12.862 14.112 12.75 14.25 12.75H15.625C15.8315 12.75 16 12.5815 16 12.375C16 12.1685 15.8315 12 15.625 12H14.875C14.3925 12 14 11.6075 14 11.125C14 10.6425 14.3925 10.25 14.875 10.25H16C16.138 10.25 16.25 10.362 16.25 10.5C16.25 10.638 16.138 10.75 16 10.75H14.875C14.6685 10.75 14.5 10.9185 14.5 11.125C14.5 11.3315 14.6685 11.5 14.875 11.5H15.625C16.1075 11.5 16.5 11.8925 16.5 12.375C16.5 12.8575 16.1075 13.25 15.625 13.25Z" fill="#1C1C1C"/>
<path d="M15.25 10.75C15.112 10.75 15 10.638 15 10.5V9.75C15 9.612 15.112 9.5 15.25 9.5C15.388 9.5 15.5 9.612 15.5 9.75V10.5C15.5 10.638 15.388 10.75 15.25 10.75Z" fill="#1C1C1C"/>
<path d="M15.25 14C15.112 14 15 13.888 15 13.75V13C15 12.862 15.112 12.75 15.25 12.75C15.388 12.75 15.5 12.862 15.5 13V13.75C15.5 13.888 15.388 14 15.25 14Z" fill="#1C1C1C"/>
<path d="M20.093 15H10.407C10.311 15 10.223 14.945 10.1815 14.8575C9.8205 14.101 9.1915 13.5185 8.41 13.2185C8.3135 13.1815 8.25 13.0885 8.25 12.985V10.515C8.25 10.4115 8.314 10.3185 8.41 10.2815C9.191 9.981 9.82 9.399 10.1815 8.6425C10.223 8.555 10.311 8.5 10.407 8.5H20.0925C20.1885 8.5 20.2765 8.555 20.318 8.6425C20.6795 9.3995 21.308 9.9815 22.0895 10.2815C22.1855 10.3185 22.2495 10.4115 22.2495 10.515V12.9845C22.2495 13.088 22.186 13.181 22.0895 13.218C21.3085 13.5185 20.679 14.101 20.318 14.857C20.277 14.945 20.189 15 20.093 15ZM10.5615 14.5H19.9385C20.337 13.7475 20.9715 13.158 21.75 12.8175V10.6825C20.9715 10.342 20.337 9.7525 19.9385 9H10.5615C10.163 9.7525 9.5285 10.3425 8.75 10.6825V12.8175C9.5285 13.158 10.163 13.7475 10.5615 14.5Z" fill="#1C1C1C"/>
<path d="M25 22.25C27.2091 22.25 29 20.4591 29 18.25C29 16.0409 27.2091 14.25 25 14.25C22.7909 14.25 21 16.0409 21 18.25C21 20.4591 22.7909 22.25 25 22.25Z" fill="#FFDE62"/>
<path d="M25 22.5C22.6565 22.5 20.75 20.5935 20.75 18.25C20.75 15.9065 22.6565 14 25 14C27.3435 14 29.25 15.9065 29.25 18.25C29.25 20.5935 27.3435 22.5 25 22.5ZM25 14.5C22.932 14.5 21.25 16.182 21.25 18.25C21.25 20.318 22.932 22 25 22C27.068 22 28.75 20.318 28.75 18.25C28.75 16.182 27.068 14.5 25 14.5Z" fill="#1C1C1C"/>
<path d="M25 17.25C24.862 17.25 24.75 17.138 24.75 17V16.25C24.75 16.112 24.862 16 25 16C25.138 16 25.25 16.112 25.25 16.25V17C25.25 17.138 25.138 17.25 25 17.25Z" fill="#1C1C1C"/>
<path d="M25 20.5C24.862 20.5 24.75 20.388 24.75 20.25V19.5C24.75 19.362 24.862 19.25 25 19.25C25.138 19.25 25.25 19.362 25.25 19.5V20.25C25.25 20.388 25.138 20.5 25 20.5Z" fill="#1C1C1C"/>
<path d="M25.375 19.75H24C23.862 19.75 23.75 19.638 23.75 19.5C23.75 19.362 23.862 19.25 24 19.25H25.375C25.5815 19.25 25.75 19.0815 25.75 18.875C25.75 18.6685 25.5815 18.5 25.375 18.5H24.625C24.1425 18.5 23.75 18.1075 23.75 17.625C23.75 17.1425 24.1425 16.75 24.625 16.75H25.75C25.888 16.75 26 16.862 26 17C26 17.138 25.888 17.25 25.75 17.25H24.625C24.4185 17.25 24.25 17.4185 24.25 17.625C24.25 17.8315 24.4185 18 24.625 18H25.375C25.8575 18 26.25 18.3925 26.25 18.875C26.25 19.3575 25.8575 19.75 25.375 19.75Z" fill="#1C1C1C"/>
<path d="M29 3.5H28.5C28.362 3.5 28.25 3.388 28.25 3.25C28.25 3.112 28.362 3 28.5 3H29C29.138 3 29.25 3.112 29.25 3.25C29.25 3.388 29.138 3.5 29 3.5Z" fill="#1C1C1C"/>
<path d="M27.5 3.5H22C21.862 3.5 21.75 3.388 21.75 3.25C21.75 3.112 21.862 3 22 3H27.5C27.638 3 27.75 3.112 27.75 3.25C27.75 3.388 27.638 3.5 27.5 3.5Z" fill="#1C1C1C"/>
<path d="M26.5 5H20C19.862 5 19.75 4.888 19.75 4.75C19.75 4.612 19.862 4.5 20 4.5H26.5C26.638 4.5 26.75 4.612 26.75 4.75C26.75 4.888 26.638 5 26.5 5Z" fill="#1C1C1C"/>
<path d="M9.5 2.25H7.5C7.362 2.25 7.25 2.138 7.25 2C7.25 1.862 7.362 1.75 7.5 1.75H9.5C9.638 1.75 9.75 1.862 9.75 2C9.75 2.138 9.638 2.25 9.5 2.25Z" fill="#1C1C1C"/>
<path d="M8.5 3.25C8.362 3.25 8.25 3.138 8.25 3V1C8.25 0.862 8.362 0.75 8.5 0.75C8.638 0.75 8.75 0.862 8.75 1V3C8.75 3.138 8.638 3.25 8.5 3.25Z" fill="#1C1C1C"/>
<path d="M5.5 5H3.5C3.362 5 3.25 4.888 3.25 4.75C3.25 4.612 3.362 4.5 3.5 4.5H5.5C5.638 4.5 5.75 4.612 5.75 4.75C5.75 4.888 5.638 5 5.5 5Z" fill="#1C1C1C"/>
<path d="M4.5 6C4.362 6 4.25 5.888 4.25 5.75V3.75C4.25 3.612 4.362 3.5 4.5 3.5C4.638 3.5 4.75 3.612 4.75 3.75V5.75C4.75 5.888 4.638 6 4.5 6Z" fill="#1C1C1C"/>
</svg>
