<svg width="24" height="24" viewBox="0 0 24 24" fill="none" xmlns="http://www.w3.org/2000/svg">
<path d="M8.86662 10.7732L15.1938 10.7732L15.1938 2.35374L8.86662 2.35374L8.86662 10.7732Z" fill="#FFDE62"/>
<path d="M17.6626 9.76367V20.6443C17.6626 21.463 17.9961 22.2109 18.5318 22.7517C19.0726 23.2924 19.8155 23.626 20.6392 23.626C22.2867 23.626 23.6209 22.2918 23.6209 20.6443V9.76367H17.6626Z" fill="#7012E3"/>
<path d="M23.626 9.38471H22.6658C22.4586 9.38471 22.2868 9.55654 22.2868 9.76374C22.2868 9.97094 22.4586 10.1428 22.6658 10.1428H23.247V20.6443C23.247 22.0796 22.0796 23.247 20.6443 23.247C19.9469 23.247 19.295 22.9792 18.8048 22.4839C18.3146 21.9886 18.0417 21.3418 18.0417 20.6443V10.1428H20.5584C20.7656 10.1428 20.9375 9.97094 20.9375 9.76374C20.9375 9.55654 20.7656 9.38471 20.5584 9.38471H18.0417V0.379027C18.0417 0.171826 17.8699 0 17.6627 0H0.379027C0.166772 0 0 0.171826 0 0.379027V20.2148C0 21.1396 0.252685 21.9987 0.722678 22.6961C0.813645 22.8275 0.894504 22.9337 0.980417 23.0196C1.59697 23.6361 2.41567 23.9848 3.2849 24C3.29501 24 3.30006 24 3.31017 24H20.6443C22.494 24 24.0051 22.494 24.0051 20.6393V9.76374C24.0051 9.55654 23.8332 9.38471 23.626 9.38471ZM3.35565 23.247C2.65824 23.247 2.00632 22.9792 1.51611 22.4839C1.46052 22.4283 1.40493 22.3575 1.34934 22.2716C0.960202 21.6955 0.753001 20.9829 0.753001 20.2148V0.758054H17.2836V9.76374V20.6443C17.2836 21.5439 17.6323 22.3879 18.2641 23.0196C18.3449 23.1004 18.4258 23.1762 18.5117 23.2419H3.35565V23.247Z" fill="#1C1C1C"/>
<path d="M15.1901 1.97095H8.86291C8.65571 1.97095 8.48389 2.14277 8.48389 2.34997V10.7694C8.48389 10.9766 8.65571 11.1485 8.86291 11.1485H15.1901C15.3973 11.1485 15.5692 10.9766 15.5692 10.7694V2.34997C15.5692 2.14277 15.4024 1.97095 15.1901 1.97095ZM14.8111 10.3904H9.24194V2.729H14.8111V10.3904Z" fill="#1C1C1C"/>
<path d="M2.53674 4.75024H6.71109C6.9183 4.75024 7.09012 4.57842 7.09012 4.37121C7.09012 4.16401 6.9183 3.99219 6.71109 3.99219H2.53674C2.32449 3.99219 2.15771 4.16401 2.15771 4.37121C2.15771 4.57842 2.32449 4.75024 2.53674 4.75024Z" fill="#1C1C1C"/>
<path d="M2.53674 6.88305H6.71109C6.9183 6.88305 7.09012 6.71123 7.09012 6.50403C7.09012 6.29683 6.9183 6.125 6.71109 6.125H2.53674C2.32954 6.125 2.15771 6.29683 2.15771 6.50403C2.15771 6.71123 2.32449 6.88305 2.53674 6.88305Z" fill="#1C1C1C"/>
<path d="M2.53674 9.01562H6.71109C6.9183 9.01562 7.09012 8.8438 7.09012 8.6366C7.09012 8.42939 6.9183 8.25757 6.71109 8.25757H2.53674C2.32954 8.25757 2.15771 8.42939 2.15771 8.6366C2.15771 8.8438 2.32449 9.01562 2.53674 9.01562Z" fill="#1C1C1C"/>
<path d="M2.53674 11.1484H6.83744C7.04464 11.1484 7.21646 10.9766 7.21646 10.7694C7.21646 10.5622 7.04464 10.3904 6.83744 10.3904H2.53674C2.32954 10.3904 2.15771 10.5622 2.15771 10.7694C2.15771 10.9766 2.32449 11.1484 2.53674 11.1484Z" fill="#1C1C1C"/>
<path d="M15.1912 12.5227H2.53674C2.32954 12.5227 2.15771 12.6945 2.15771 12.9017C2.15771 13.1089 2.32954 13.2808 2.53674 13.2808H15.1962C15.4035 13.2808 15.5753 13.1089 15.5753 12.9017C15.5753 12.6945 15.4034 12.5227 15.1912 12.5227Z" fill="#1C1C1C"/>
<path d="M15.1912 14.6609H2.53674C2.32954 14.6609 2.15771 14.8327 2.15771 15.0399C2.15771 15.2471 2.32954 15.4189 2.53674 15.4189H15.1962C15.4035 15.4189 15.5753 15.2471 15.5753 15.0399C15.5753 14.8327 15.4034 14.6609 15.1912 14.6609Z" fill="#1C1C1C"/>
<path d="M15.1912 16.7932H2.53674C2.32954 16.7932 2.15771 16.965 2.15771 17.1722C2.15771 17.3794 2.32954 17.5513 2.53674 17.5513H15.1962C15.4035 17.5513 15.5753 17.3794 15.5753 17.1722C15.5753 16.965 15.4034 16.7932 15.1912 16.7932Z" fill="#1C1C1C"/>
<path d="M15.1912 18.926H2.53674C2.32954 18.926 2.15771 19.0979 2.15771 19.3051C2.15771 19.5123 2.32954 19.6841 2.53674 19.6841H15.1962C15.4035 19.6841 15.5753 19.5123 15.5753 19.3051C15.5753 19.0979 15.4034 18.926 15.1912 18.926Z" fill="#1C1C1C"/>
<path d="M21.5836 10.1428C21.7929 10.1428 21.9626 9.97312 21.9626 9.76379C21.9626 9.55446 21.7929 9.38477 21.5836 9.38477C21.3743 9.38477 21.2046 9.55446 21.2046 9.76379C21.2046 9.97312 21.3743 10.1428 21.5836 10.1428Z" fill="#1C1C1C"/>
</svg>
