<svg width="24" height="24" viewBox="0 0 24 24" fill="none" xmlns="http://www.w3.org/2000/svg">
<path d="M20.2348 23.6211H23.62L17.2082 13.5461L15.5308 15.2489" fill="#FFDE62"/>
<path d="M8.47225 15.2489L6.79477 13.5461L0.37793 23.6211H3.76319" fill="#FFDE62"/>
<path d="M11.9996 6.60375C13.7186 6.60375 15.112 5.21027 15.112 3.49133C15.112 1.77238 13.7186 0.378906 11.9996 0.378906C10.2807 0.378906 8.88721 1.77238 8.88721 3.49133C8.88721 5.21027 10.2807 6.60375 11.9996 6.60375Z" fill="#FFDE62"/>
<path d="M20.2398 23.6212H3.76318L11.999 8.97363L20.2398 23.6212Z" fill="#7012E3"/>
<path d="M9.62473 13.2076C9.68031 13.2379 9.74599 13.253 9.81168 13.253C9.9481 13.253 10.0744 13.1823 10.1401 13.061C10.2412 12.8792 10.1805 12.6467 9.99357 12.5457C9.82178 12.4446 9.57926 12.5154 9.4782 12.6922C9.43273 12.7781 9.41757 12.8792 9.44283 12.9802C9.47315 13.0762 9.53378 13.157 9.62473 13.2076Z" fill="#1C1C1C"/>
<path d="M23.9439 23.4189L17.5271 13.344C17.4665 13.248 17.3604 13.1823 17.2492 13.1722C17.133 13.1621 17.0218 13.2025 16.941 13.2834L15.6172 14.6324L12.3835 8.88253V6.98274C12.3835 6.97768 12.3785 6.96758 12.3785 6.96253C14.1267 6.77558 15.4959 5.2901 15.4959 3.49137C15.4959 1.56632 13.9296 0 12.0046 0C10.0795 0 8.5132 1.56632 8.5132 3.49137C8.5132 5.2901 9.87741 6.77053 11.6307 6.96253C11.6307 6.96758 11.6256 6.97768 11.6256 6.98274V8.87747L9.97341 11.808C9.92288 11.8989 9.91278 12 9.93804 12.096C9.96836 12.1971 10.029 12.2779 10.1199 12.3234C10.2968 12.4244 10.5343 12.3587 10.6353 12.1819L12.0046 9.75158L19.5936 23.2421H4.41551L9.64499 13.9402C9.74604 13.7583 9.68036 13.5309 9.49846 13.4248C9.32162 13.3288 9.08415 13.3945 8.98309 13.5714L8.39194 14.6274L7.06815 13.2834C6.9873 13.2025 6.87109 13.1621 6.75994 13.1722C6.64373 13.1823 6.54267 13.248 6.48204 13.344L0.0601469 23.4189C-0.0156426 23.5352 -0.0206952 23.6817 0.0500417 23.8029C0.115726 23.9242 0.242042 24 0.383515 24H3.76878H3.77383H20.2353H20.2404H23.6256C23.762 24 23.8934 23.9242 23.9591 23.8029C24.0197 23.6817 24.0147 23.5352 23.9439 23.4189ZM6.85594 14.1474L7.99783 15.3095L3.54141 23.2421H1.06562L6.85594 14.1474ZM9.27109 3.49137C9.27109 1.98568 10.4989 0.757895 12.0046 0.757895C13.5103 0.757895 14.738 1.98568 14.738 3.49137C14.738 4.99705 13.5103 6.22484 12.0046 6.22484C10.4938 6.21979 9.27109 4.99705 9.27109 3.49137ZM20.4576 23.2421L16.0012 15.3145L17.1431 14.1474L22.9334 23.2371H20.4576V23.2421Z" fill="#1C1C1C"/>
</svg>
