<svg width="24" height="24" viewBox="0 0 24 24" fill="none" xmlns="http://www.w3.org/2000/svg">
<path d="M10.4085 14.1879L4.09277 20.5037C6.16939 22.4338 8.94833 23.6161 12.0001 23.6161C17.6691 23.6161 22.3933 19.5538 23.4139 14.1829H10.4085V14.1879Z" fill="#7012E3"/>
<path d="M10.4028 14.1878V0.490234C4.74387 1.26328 0.378418 6.12389 0.378418 12.0001C0.378418 15.36 1.80831 18.3866 4.08703 20.5087L10.4028 14.1878Z" fill="#FFDE62"/>
<path d="M0.85376 15.3247C0.954812 15.2994 1.03565 15.2388 1.08618 15.1478C1.13671 15.0619 1.15186 14.9609 1.1266 14.8598C1.07102 14.6628 0.863865 14.5415 0.661761 14.592C0.565761 14.6173 0.479867 14.6779 0.429341 14.7689C0.378815 14.8548 0.363657 14.9558 0.393973 15.0569C0.434393 15.2236 0.585971 15.3348 0.75776 15.3348C0.788076 15.3348 0.823444 15.3348 0.85376 15.3247Z" fill="#1C1C1C"/>
<path d="M23.4138 13.8139H10.9086C10.9035 13.8139 10.8934 13.8139 10.8884 13.8139H10.7823V0.495202C10.7823 0.384044 10.7368 0.282992 10.6509 0.207203C10.57 0.136467 10.4589 0.101099 10.3528 0.116256C7.50817 0.505307 4.89092 1.91498 2.98609 4.08255C1.06105 6.27033 0 9.08463 0 12C0 12.6821 0.0555787 13.3642 0.171789 14.0362C0.207157 14.2383 0.404208 14.3798 0.611365 14.3444C0.813469 14.309 0.954942 14.112 0.919574 13.9099C0.919574 13.9048 0.919574 13.9048 0.919574 13.8998C0.813469 13.2783 0.757891 12.6417 0.757891 12C0.757891 6.53306 4.65345 1.88467 10.0244 0.934778V14.0362L4.08756 19.973C2.92041 18.8159 1.99073 17.4012 1.41473 15.7945C1.34399 15.6025 1.12168 15.4964 0.929679 15.5671C0.732628 15.6379 0.631576 15.8551 0.702312 16.0522C2.40504 20.8067 6.94228 23.9999 11.9949 23.9999C17.7498 23.9999 22.7064 19.9073 23.7826 14.2635C23.8028 14.1524 23.7776 14.0362 23.7018 13.9503C23.631 13.8644 23.5249 13.8139 23.4138 13.8139ZM11.9949 23.242C9.23616 23.242 6.64418 22.2214 4.64334 20.4884L10.5599 14.5718H10.8833C10.8934 14.5718 10.9086 14.5718 10.9187 14.5718H22.9439C21.7515 19.6799 17.2546 23.242 11.9949 23.242Z" fill="#1C1C1C"/>
<path d="M21.3069 4.44124C21.3019 4.43619 21.2968 4.42608 21.2918 4.41598C21.2918 4.41598 21.2867 4.41598 21.2867 4.41092C19.0838 1.71789 15.739 0 12 0C11.7929 0 11.6211 0.171789 11.6211 0.378945V12.5961C11.6211 12.8033 11.7929 12.9751 12 12.9751H23.621C23.8282 12.9751 24 12.8033 24 12.5961V11.9999C24 9.13511 22.9895 6.5027 21.3069 4.44124ZM19.68 12.2172L22.8429 9.05427C22.9743 9.52921 23.0703 10.0193 23.136 10.5195L21.4383 12.2172H19.68ZM16.8556 12.2172L22.0648 7.00796C22.2619 7.40712 22.4337 7.81638 22.5852 8.2408L18.6088 12.2172H16.8556ZM14.0261 12.2172L20.9785 5.25976C21.2311 5.59829 21.4636 5.95197 21.6808 6.31575L15.7794 12.2172H14.0261ZM12.379 2.56167L13.9958 0.94989C14.4758 1.03578 14.9457 1.14694 15.4055 1.29347L12.379 4.31998V2.56167ZM12.379 5.39113L16.1886 1.58147C16.5979 1.7482 16.9971 1.93009 17.3811 2.1423L12.379 7.14943V5.39113ZM12.379 8.22059L18.048 2.54146C18.4017 2.76883 18.7453 3.01135 19.0686 3.27914L12.379 9.96879V8.22059ZM13.051 0.818522L12.379 1.49052V0.762943C12.6064 0.773048 12.8287 0.798311 13.051 0.818522ZM12.379 11.0399L19.6446 3.77935C19.9478 4.06229 20.2307 4.35534 20.5036 4.66861L12.955 12.2172H12.3739V11.0399H12.379ZM23.2421 12.2172H22.5095L23.2168 11.5098C23.2219 11.6715 23.2421 11.8332 23.2421 11.9999V12.2172Z" fill="#1C1C1C"/>
</svg>
