<svg width="19" height="24" viewBox="0 0 19 24" fill="none" xmlns="http://www.w3.org/2000/svg">
<path d="M9.29663 0.378906C4.37537 0.378906 0.383789 4.37049 0.383789 9.29175C0.383789 15.6934 9.29663 23.621 9.29663 23.621C9.29663 23.621 18.2095 15.6934 18.2095 9.29175C18.2095 4.37049 14.2179 0.378906 9.29663 0.378906ZM9.29663 15.7591C5.72947 15.7591 2.83431 12.864 2.83431 9.2968C2.83431 5.72964 5.72947 2.83449 9.29663 2.83449C12.8638 2.83449 15.7589 5.72964 15.7589 9.2968C15.7589 12.864 12.8638 15.7591 9.29663 15.7591Z" fill="#7012E3"/>
<path d="M9.27011 8.82886C10.0015 8.82886 10.5944 8.03831 10.5944 7.06311C10.5944 6.08792 10.0015 5.29736 9.27011 5.29736C8.53872 5.29736 7.9458 6.08792 7.9458 7.06311C7.9458 8.03831 8.53872 8.82886 9.27011 8.82886Z" fill="#FFDE62"/>
<path d="M12.3603 11.6075V12.3604H6.18018V11.6075C6.28178 10.0554 7.62471 8.82886 9.27244 8.82886C10.9158 8.82886 12.2587 10.0554 12.3603 11.6075Z" fill="#FFDE62"/>
<path d="M5.77484 19.4023C5.77484 19.4023 5.77484 19.3972 5.76979 19.3972C5.64347 19.2456 5.39084 19.2254 5.23926 19.3517C5.15842 19.4174 5.11294 19.5084 5.10284 19.6094C5.09779 19.7105 5.1281 19.8065 5.18873 19.8823C5.18873 19.8873 5.19379 19.8873 5.19379 19.8873C5.26452 19.9732 5.37063 20.0237 5.48179 20.0237C5.57273 20.0237 5.65863 19.9884 5.72431 19.9328C5.80515 19.8671 5.85063 19.7761 5.86073 19.6751C5.86579 19.574 5.83547 19.478 5.77484 19.4023Z" fill="#1C1C1C"/>
<path d="M16.6383 3.59747L16.6232 3.57726C14.8497 1.30358 12.1768 0 9.29179 0C4.16842 0 0 4.16842 0 9.29179C0.0101053 12.0354 1.536 15.3347 4.54232 19.0989C4.66863 19.2556 4.91621 19.2808 5.07789 19.1545C5.15368 19.0939 5.20421 19.0029 5.21432 18.9019C5.22442 18.8008 5.19916 18.7048 5.13853 18.6291C5.13853 18.624 5.13347 18.624 5.13347 18.624C3.13263 16.1331 0.747789 12.4952 0.757895 9.29179C0.768 4.59284 4.59789 0.768 9.29179 0.757895C11.9394 0.757895 14.3949 1.95537 16.0269 4.04716C17.2042 5.55284 17.8307 7.36674 17.8307 9.29179C17.8408 12.4952 15.456 16.1331 13.4552 18.6189C11.7272 20.7764 9.984 22.464 9.29179 23.1057C8.84716 22.6914 7.71537 21.6101 6.42695 20.1549C6.29558 20.0084 6.04295 19.9933 5.89137 20.1246C5.81558 20.1903 5.77516 20.2813 5.76505 20.3823C5.76 20.4834 5.79537 20.5844 5.86105 20.6602C7.55368 22.5701 8.98358 23.8484 9.04421 23.904C9.1099 23.9646 9.20084 24 9.29179 24C9.38779 24 9.47874 23.9646 9.54442 23.904C9.54947 23.904 9.54947 23.904 9.54947 23.8989C9.55958 23.8888 9.60505 23.8484 9.66568 23.7878C11.9444 21.6758 13.5562 19.7558 14.5112 18.5128C17.1941 15.0215 18.5684 11.9192 18.5886 9.29179C18.5886 7.20505 17.9116 5.23453 16.6383 3.59747Z" fill="#1C1C1C"/>
<path d="M16.1381 9.29707C16.1381 5.52276 13.0711 2.45581 9.29683 2.45581C5.52251 2.45581 2.45557 5.52276 2.45557 9.29707C2.45557 13.0714 5.52251 16.1383 9.29683 16.1383C13.0711 16.1383 16.1381 13.0663 16.1381 9.29707ZM3.21346 9.29707C3.21346 5.94213 5.94188 3.21371 9.29683 3.21371C12.6518 3.21371 15.3802 5.94213 15.3802 9.29707C15.3802 12.652 12.6518 15.3804 9.29683 15.3804C5.94188 15.3804 3.21346 12.647 3.21346 9.29707Z" fill="#1C1C1C"/>
<path d="M12.3603 12.0429V11.2994C12.3603 11.2911 12.3603 11.2869 12.3603 11.2786C12.2805 9.97122 11.4672 8.88525 10.3547 8.45086C10.7295 8.12507 10.9767 7.63638 10.9767 7.08504C10.9767 6.09931 10.2112 5.29736 9.27023 5.29736C8.32926 5.29736 7.56372 6.09931 7.56372 7.08504C7.56372 7.63638 7.81093 8.12507 8.18572 8.45503C7.0733 8.8936 6.25992 9.98375 6.18018 11.3036V12.0471C6.18018 12.2183 6.31574 12.3604 6.47921 12.3604H12.0573C12.2247 12.3562 12.3603 12.2142 12.3603 12.0429ZM9.27023 5.92389C9.88027 5.92389 10.3787 6.44599 10.3787 7.08504C10.3787 7.72409 9.88027 8.24619 9.27023 8.24619C8.6602 8.24619 8.1618 7.72409 8.1618 7.08504C8.1618 6.44599 8.6602 5.92389 9.27023 5.92389ZM11.7622 11.7297H6.77825V11.3203C6.86198 9.94616 7.95447 8.86854 9.27023 8.86854C10.582 8.86854 11.6705 9.94198 11.7582 11.3078V11.7297H11.7622Z" fill="#1C1C1C"/>
</svg>
