<svg width="208" height="220" viewBox="0 0 208 220" fill="none" xmlns="http://www.w3.org/2000/svg"> <path d="M43.2018 124.543L41.7918 124.429C45.0629 122.551 50.2516 122.494 53.41 124.315L52 124.429C49.6313 123.063 45.6833 123.063 43.2018 124.543Z" fill="#332A43"/> <path d="M17.5401 139.57L16.1302 139.456L41.7918 124.429L43.2017 124.543L17.5401 139.57Z" fill="#2D243E"/> <path d="M13.6486 146.002V142.929C13.6486 144.124 14.4382 145.319 15.961 146.23V149.304C14.3818 148.393 13.6486 147.198 13.6486 146.002Z" fill="#211833"/> <path d="M17.3709 144.693L15.961 146.23C12.8026 144.408 12.859 141.335 16.1302 139.456L17.5401 139.57C15.0586 141.05 15.0022 143.327 17.3709 144.693Z" fill="#2D243E"/> <path d="M51.9436 124.429L53.3536 124.315L109.02 156.704L107.61 156.817L51.9436 124.429Z" fill="#2D243E"/> <path d="M107.61 156.817L109.02 156.703C112.178 158.525 112.121 161.599 108.85 163.477L107.44 161.94C109.922 160.517 109.978 158.24 107.61 156.817Z" fill="#2D243E"/> <path d="M111.332 160.062V163.136C111.332 164.388 110.486 165.64 108.85 166.608V163.534C110.486 162.566 111.332 161.257 111.332 160.062Z" fill="#211833"/> <path d="M107.44 161.997L108.85 163.477L83.1887 178.561L81.7787 177.024L107.44 161.997Z" fill="#2D243E"/> <path d="M108.85 163.477V166.551L83.1887 181.578V178.561L108.85 163.477Z" fill="#211833"/> <path d="M73.0369 177.138L71.5705 178.675L15.961 146.23L17.3709 144.693L73.0369 177.138Z" fill="#2D243E"/> <path d="M71.5705 178.675V181.692L15.961 149.304V146.23L71.5705 178.675Z" fill="#211833"/> <path d="M107.61 156.817C109.978 158.183 109.922 160.517 107.44 161.94L81.7787 177.024C79.2972 178.504 75.3492 178.504 72.9805 177.138L17.3709 144.75C15.0022 143.384 15.0586 141.05 17.5401 139.627L43.2017 124.6C45.6833 123.12 49.6312 123.12 52 124.486L107.61 156.817Z" fill="#332A43"/> <path d="M81.7787 177.024L83.1887 178.561C79.9176 180.44 74.7288 180.497 71.5705 178.675L72.9805 177.138C75.3492 178.504 79.2972 178.447 81.7787 177.024Z" fill="#2D243E"/> <path d="M83.1887 178.561V181.635C79.9176 183.513 74.7288 183.57 71.5705 181.749V178.675C74.7852 180.497 79.974 180.44 83.1887 178.561Z" fill="#211833"/> <path d="M37.449 127.788L36.9414 127.332L39.3666 127.731L39.0846 127.446L37.449 127.788Z" fill="#BFA8FF"/> <path d="M37.8438 127.788V128.698C37.8438 128.414 37.731 128.072 37.3926 127.788V126.877C37.731 127.218 37.8438 127.503 37.8438 127.788Z" fill="#AE99E8"/> <path d="M23.8568 135.017L24.6464 135.301L23.6876 136.44L24.1952 136.61L23.8568 135.017Z" fill="#BFA8FF"/> <path d="M105.072 154.882C107.384 156.191 107.384 158.354 105.072 159.721L81.3275 173.666C79.0716 174.975 75.3492 174.975 73.0933 173.666L19.9089 142.701C17.5965 141.392 17.5965 139.229 19.9089 137.863L24.1952 135.358L23.744 135.188C25.6616 135.871 28.0304 135.7 29.6095 134.789L38.4078 129.609C39.987 128.699 40.269 127.275 39.0846 126.194L39.3666 126.479L43.6529 123.974C45.9089 122.665 49.6312 122.665 51.8872 123.974L105.072 154.882Z" fill="url(#paint0_linear_70_615)"/> <path d="M37.449 126.934V127.788L36.9414 127.332V126.479L37.449 126.934Z" fill="#AE99E8"/> <path d="M16.2993 141.335V140.424C16.2993 141.562 17.0325 142.758 18.5553 143.669V144.579C17.0325 143.669 16.2993 142.473 16.2993 141.335Z" fill="#AE99E8"/> <path d="M108.681 157.5V158.411C108.681 159.55 107.948 160.688 106.425 161.599V160.688C107.892 159.834 108.681 158.696 108.681 157.5Z" fill="#AE99E8"/> <path d="M106.425 160.688V161.599L82.6812 175.487V174.634L106.425 160.688Z" fill="#AE99E8"/> <path d="M71.7397 174.634V175.488L18.5553 144.523V143.669L71.7397 174.634Z" fill="#AE99E8"/> <path d="M106.369 154.313L53.2415 123.348C50.1959 121.583 45.2892 121.583 42.3 123.348L36.9421 126.478L37.4497 126.934C38.1265 127.617 37.9573 128.471 37.0549 129.04L28.2567 134.22C27.2979 134.789 25.8315 134.903 24.7035 134.447L23.9139 134.163L18.556 137.293C15.5668 139.058 15.5668 141.904 18.6124 143.669L71.7968 174.634C74.8423 176.398 79.6927 176.398 82.7382 174.634L106.482 160.688C106.821 160.517 107.103 160.29 107.385 160.062C109.415 158.297 109.077 155.85 106.369 154.313ZM105.072 159.72L81.3282 173.666C79.0723 174.975 75.3499 174.975 73.094 173.666L19.9096 142.701C17.6536 141.392 17.5972 139.229 19.9096 137.863L24.1959 135.358V135.301C26.0007 135.814 28.1439 135.586 29.6102 134.789L38.4085 129.609C39.8185 128.755 40.2133 127.503 39.3673 126.478H39.4237L43.71 123.974C45.966 122.665 49.6883 122.665 51.9443 123.974L104.79 154.768L105.072 154.939C107.159 156.134 107.385 158.07 105.58 159.436C105.411 159.493 105.241 159.607 105.072 159.72Z" fill="url(#paint1_linear_70_615)"/> <path d="M82.6811 174.634V175.545C79.692 177.309 74.7852 177.309 71.7397 175.545V174.634C74.7852 176.398 79.692 176.398 82.6811 174.634Z" fill="#AE99E8"/> <path d="M82.0044 164.786C80.9328 164.786 79.974 164.388 79.5228 163.762C79.1844 163.307 79.2408 162.737 79.5792 162.111C80.3124 160.916 81.7788 160.233 83.3579 159.72C83.5835 159.664 83.7527 159.607 83.9783 159.55C83.8655 159.55 83.7527 159.55 83.6399 159.607L83.3015 159.664C82.1736 159.777 80.9892 159.891 79.974 159.607C79.1844 159.379 78.6204 158.924 78.3384 158.354C78.1128 157.899 78.1128 157.387 78.282 156.931C78.5076 156.419 78.9024 156.078 79.41 155.793C79.8048 155.565 80.3124 155.281 80.9892 155.11C81.6096 154.996 82.4556 154.996 82.9631 155.394L82.512 156.021C82.2864 155.85 81.666 155.793 81.1584 155.85C80.6508 155.964 80.1996 156.191 79.8612 156.419C79.41 156.704 79.1844 156.931 79.0716 157.216C78.9588 157.501 78.9588 157.728 79.0716 158.013C79.2408 158.411 79.6356 158.696 80.1996 158.867C81.102 159.151 82.1736 159.037 83.2451 158.924L83.5835 158.867C84.9935 158.696 86.0651 158.81 86.7983 159.094C86.8547 159.094 86.8547 159.094 86.9111 159.094C86.7983 158.867 86.6855 158.696 86.6291 158.411C86.5727 158.07 86.5727 157.728 86.6291 157.387C86.7983 156.704 87.5315 156.021 88.3775 155.622C89.5054 155.11 90.8026 155.394 91.2538 156.248C91.423 156.533 91.423 156.874 91.3102 157.273C91.0282 158.013 90.1258 158.753 88.6595 159.379C88.6031 159.379 88.6031 159.379 88.5467 159.436C89.2234 159.664 90.013 159.72 90.7462 159.55C92.3818 159.208 92.833 158.582 93.679 157.501C92.833 157.273 92.0998 156.874 91.6486 156.362C91.3102 155.964 90.859 155.053 91.1974 154.427C91.3666 154.142 91.705 153.801 92.6074 153.858C93.3406 153.915 94.1302 154.313 94.525 154.825C95.0326 155.508 95.089 156.191 94.9198 156.874C95.9349 156.931 97.0065 156.647 97.7961 156.134L98.1909 156.817C97.1757 157.444 95.8221 157.728 94.5814 157.614C94.525 157.728 94.4122 157.842 94.3558 157.956C93.4534 159.151 92.833 159.891 90.9718 160.29C89.8438 160.517 88.6031 160.347 87.7007 159.834C87.8699 160.119 88.0391 160.517 87.9827 161.03C87.8699 162.453 86.7419 163.705 84.9935 164.388C84.1475 164.73 83.1887 164.9 82.1736 164.957C82.0608 164.786 82.0044 164.786 82.0044 164.786ZM86.6291 159.777C86.2343 159.834 85.8959 159.891 85.5011 159.948C84.8243 160.062 84.2039 160.176 83.5835 160.404C82.1736 160.859 80.82 161.485 80.256 162.453C79.974 162.908 80.0304 163.136 80.1432 163.25C80.4252 163.648 81.1584 163.99 82.1172 163.99C83.0195 163.99 83.9783 163.762 84.7115 163.477C86.1779 162.908 87.1367 161.883 87.1931 160.802C87.2495 160.347 87.0803 160.062 86.7983 159.834C86.6855 159.834 86.6291 159.777 86.6291 159.777ZM89.5054 156.021C89.2234 156.021 88.9415 156.078 88.6031 156.191C87.8699 156.533 87.4187 157.045 87.3059 157.444C87.2495 157.671 87.2495 157.899 87.3059 158.184C87.3623 158.411 87.4751 158.582 87.5879 158.696C87.8135 158.639 88.0391 158.525 88.3211 158.411C90.0694 157.671 90.4642 156.988 90.5206 156.817C90.577 156.704 90.577 156.59 90.5206 156.476C90.3514 156.134 89.9566 156.021 89.5054 156.021ZM92.3818 154.427C92.1562 154.427 91.987 154.484 91.9306 154.598C91.8178 154.825 92.0434 155.338 92.269 155.679C92.6074 156.134 93.2842 156.476 94.0738 156.59C94.1866 156.191 94.243 155.622 93.8482 155.11C93.6226 154.825 93.0586 154.484 92.551 154.484C92.4946 154.427 92.4382 154.427 92.3818 154.427Z" fill="white"/> <path d="M50.8156 132.74L35.7007 141.563C35.0803 141.904 34.1779 141.961 33.6703 141.619C33.1627 141.335 33.2191 140.766 33.8395 140.424L48.9545 131.601C49.5748 131.26 50.4772 131.203 50.9848 131.544C51.4924 131.886 51.436 132.398 50.8156 132.74Z" fill="white"/> <path d="M60.4599 134.618L38.9154 147.141C38.295 147.482 37.3926 147.539 36.885 147.198C36.3775 146.913 36.4338 146.344 37.0542 146.002L58.5987 133.48C59.2191 133.138 60.1215 133.081 60.6291 133.423C61.1367 133.707 61.0803 134.22 60.4599 134.618Z" fill="white"/> <path d="M64.9154 137.18L43.3709 149.702C42.7506 150.044 41.8482 150.101 41.3406 149.759C40.833 149.475 40.8894 148.905 41.5098 148.564L63.0542 136.041C63.6746 135.7 64.577 135.643 65.0846 135.984C65.5922 136.326 65.4794 136.838 64.9154 137.18Z" fill="white"/> <path d="M69.3146 139.741L47.7701 152.264C47.1497 152.605 46.2473 152.662 45.7397 152.321C45.2321 152.036 45.2885 151.467 45.9089 151.125L67.4534 138.603C68.0738 138.261 68.9762 138.204 69.4837 138.546C69.9913 138.887 69.9349 139.399 69.3146 139.741Z" fill="white"/> <path d="M69.1453 145.035L52.2256 154.882C51.6052 155.224 50.7028 155.28 50.1952 154.939C49.6876 154.654 49.744 154.085 50.3644 153.744L67.2842 143.896C67.9045 143.555 68.8069 143.498 69.3145 143.839C69.8221 144.181 69.7657 144.693 69.1453 145.035Z" fill="white"/> <path d="M78.2256 144.921L56.6811 157.444C56.0607 157.785 55.1584 157.842 54.6508 157.5C54.1432 157.216 54.1996 156.647 54.82 156.305L76.3644 143.782C76.9848 143.441 77.8872 143.384 78.3948 143.726C78.9024 144.067 78.7896 144.579 78.2256 144.921Z" fill="white"/> <path d="M101.575 156.191L83.5835 166.665C83.5271 166.722 83.4143 166.722 83.3579 166.665C83.3015 166.608 83.3015 166.551 83.3579 166.551L101.349 156.077C101.406 156.02 101.518 156.02 101.575 156.077C101.631 156.077 101.631 156.134 101.575 156.191Z" fill="white"/> <path d="M107.328 160.062L105.579 159.379L98.3601 156.476C98.3601 156.476 101.406 155.565 104.733 154.711C104.733 154.711 104.79 154.711 104.846 154.711C105.354 154.597 105.861 154.427 106.369 154.313H106.425C109.076 155.85 109.414 158.297 107.328 160.062Z" fill="#D4C5FF"/> <path d="M67.2842 156.476L61.0803 160.062C60.4599 160.403 59.5575 160.46 59.0499 160.119C58.5423 159.834 58.5987 159.265 59.2191 158.923L65.423 155.337C66.0434 154.996 66.9458 154.939 67.4534 155.28C67.961 155.565 67.9046 156.134 67.2842 156.476Z" fill="white"/> <path d="M157.072 116.46L179.236 129.438C178.954 129.268 178.616 129.268 178.165 129.382C177.996 129.438 177.826 129.495 177.657 129.609L155.492 116.631C155.662 116.517 155.831 116.46 156 116.404C156.395 116.29 156.79 116.29 157.072 116.46Z" fill="#888B90"/> <path d="M177.093 130.008L154.928 117.03L154.985 116.859L177.15 129.894L177.093 130.008Z" fill="#AE99E8"/> <path d="M177.657 129.609C177.826 129.495 177.996 129.438 178.165 129.382C179.124 129.097 179.857 129.666 179.857 130.862C179.857 132.285 178.898 133.992 177.657 134.675C176.868 135.131 176.247 135.074 175.852 134.618C175.683 134.391 175.57 134.106 175.514 133.708C175.514 133.594 175.514 133.537 175.514 133.423C175.514 132.228 176.191 130.862 177.15 130.008C177.262 129.837 177.432 129.723 177.657 129.609Z" fill="#888B90"/> <path d="M177.15 129.894L154.985 116.859L141.675 84.3569L163.839 97.3349L177.15 129.894Z" fill="#ADADB4"/> <path d="M176.134 134.846L153.97 121.868C153.857 121.811 153.8 121.754 153.688 121.64C153.518 121.413 153.406 121.128 153.349 120.73C153.349 120.616 153.349 120.559 153.349 120.445C153.349 119.25 154.026 117.884 154.985 117.03C155.154 116.859 155.38 116.745 155.549 116.631L177.714 129.609C177.544 129.723 177.319 129.894 177.15 130.008C176.191 130.862 175.514 132.228 175.514 133.423C175.514 133.537 175.514 133.651 175.514 133.708C175.571 134.106 175.683 134.391 175.852 134.618C175.909 134.675 176.022 134.789 176.134 134.846Z" fill="#BABCBF"/> <path d="M175.514 133.708L153.349 122.039L135.866 132.228C135.471 132.455 135.189 132.74 134.963 133.082L134.625 133.025V134.334C134.625 135.131 135.02 135.984 135.809 136.44L150.924 145.32C153.067 146.572 155.662 146.572 157.805 145.32L175.965 134.732L175.514 133.708Z" fill="#888B90"/> <path d="M153.349 120.729L135.866 130.918C134.23 131.829 134.23 134.22 135.866 135.131L150.98 144.01C153.124 145.262 155.774 145.262 157.861 144.01L175.514 133.707L153.349 120.729Z" fill="url(#paint2_linear_70_615)"/> <path d="M164.742 96.4243L178.165 129.325C177.996 129.439 177.826 129.495 177.657 129.609C177.488 129.723 177.262 129.837 177.093 130.008L177.15 129.837L163.839 97.3351L164.742 96.4243Z" fill="#888B90"/> <path d="M163.839 97.335L141.675 84.357L142.577 83.4463L164.742 96.4243L163.839 97.335Z" fill="#AE99E8"/> <path d="M118.664 0.910645L119.284 1.25217L200.104 48.3259L199.484 47.9844L118.664 0.910645Z" fill="#AE99E8"/> <path d="M118.495 0.796875C118.72 0.910717 118.946 1.02456 119.171 1.1384C119.228 1.1384 119.228 1.19532 119.284 1.19532L118.664 0.853796C118.607 0.853796 118.551 0.853796 118.495 0.796875Z" fill="#AE99E8"/> <path d="M203.77 130.008L201.007 131.658C202.134 130.975 202.868 129.552 202.868 127.503L205.631 125.853C205.631 127.902 204.954 129.325 203.77 130.008Z" fill="#818489"/> <path d="M205.857 59.1409V58.4009L205.688 125.112L205.631 125.852L205.857 59.1409Z" fill="#AE99E8"/> <path d="M203.093 60.7347L205.857 59.1409L205.631 125.852L202.868 127.503L203.093 60.7347Z" fill="url(#paint3_linear_70_615)"/> <path d="M199.484 47.9844L200.104 48.3259C203.262 50.2043 205.857 54.7011 205.857 58.344V59.084C205.857 55.0426 202.98 50.0335 199.484 47.9844Z" fill="#818489"/> <path d="M196.043 50.7167C199.202 52.5951 201.796 57.0918 201.796 60.7348L201.627 127.503C201.627 131.203 199.033 132.683 195.818 130.805L114.998 83.7309C111.839 81.8525 109.245 77.3557 109.245 73.7128L109.414 6.94438C109.414 3.24451 112.009 1.76456 115.223 3.64296L196.043 50.7167Z" fill="url(#paint4_linear_70_615)"/> <path d="M196.72 49.5781L115.9 2.50436C112.347 0.455202 109.471 2.10591 109.471 6.20423V6.9442C109.471 3.24433 112.065 1.76439 115.28 3.64278L196.1 50.7165C199.258 52.5949 201.852 57.0917 201.852 60.7346L201.627 127.503C201.627 131.146 199.089 132.626 195.987 130.918C196.213 131.032 196.438 131.146 196.664 131.26C200.104 133.195 202.924 131.544 202.924 127.503L203.093 60.7346C203.093 56.6363 200.217 51.6842 196.72 49.5781Z" fill="url(#paint5_linear_70_615)"/> <path d="M199.484 47.9843L118.664 0.910559C116.915 -0.11402 115.28 -0.227863 114.095 0.45519L111.332 2.1059C112.516 1.42285 114.095 1.53669 115.9 2.56127L196.72 49.635C200.273 51.6842 203.093 56.6932 203.093 60.7915L205.857 59.1408C205.857 55.0425 202.98 50.0335 199.484 47.9843Z" fill="url(#paint6_linear_70_615)"/> <path d="M115.336 75.8757L115.505 76.4449C111.952 74.3957 109.132 69.3866 109.132 65.2883L109.527 65.7437C109.527 69.4436 112.121 73.9973 115.336 75.8757Z" fill="#AE99E8"/> <path d="M109.527 65.7438L109.189 65.2884L109.302 9.61963L109.696 10.0181L109.527 65.7438Z" fill="#AE99E8"/> <path d="M111.219 5.46431L112.065 4.95202C113.249 4.26896 114.829 4.38281 116.633 5.40739L115.787 5.91967C113.983 4.8951 112.347 4.78125 111.219 5.46431Z" fill="#AE99E8"/> <path d="M109.696 10.018L109.302 9.56263C109.302 5.46431 112.178 3.8136 115.731 5.86276L115.505 6.65965C112.347 4.83818 109.696 6.31813 109.696 10.018Z" fill="#AE99E8"/> <path d="M192.998 121.128L193.223 121.64L115.562 76.388L115.336 75.8757L192.998 121.128Z" fill="#AE99E8"/> <path d="M198.581 121.64L197.735 122.152C198.863 121.469 199.597 120.046 199.597 117.997L200.443 117.485C200.443 119.534 199.766 120.957 198.581 121.64Z" fill="#AE99E8"/> <path d="M198.863 117.77L199.653 117.997C199.653 122.096 196.777 123.746 193.223 121.697L193.054 121.128C196.213 123.006 198.863 121.469 198.863 117.77Z" fill="#AE99E8"/> <path d="M199.766 62.2715L200.612 61.8162L200.499 117.485L199.597 117.997L199.766 62.2715Z" fill="#AE99E8"/> <path d="M198.976 62.1008L199.766 62.2716L199.597 117.997L198.863 117.77L198.976 62.1008Z" fill="#AE99E8"/> <path d="M115.562 6.65965L115.731 5.91968L193.393 51.1719L193.223 51.9119L115.562 6.65965Z" fill="#AE99E8"/> <path d="M115.731 5.91976L116.577 5.40747L194.239 50.6597L193.393 51.172L115.731 5.91976Z" fill="#AE99E8"/> <path d="M193.223 51.912L115.562 6.65977C112.347 4.78137 109.753 6.31824 109.696 10.0181L109.527 65.6869C109.527 69.3868 112.121 73.9405 115.336 75.8189L192.998 121.071C196.213 122.95 198.807 121.47 198.863 117.713L199.033 62.044C199.033 58.3441 196.438 53.7904 193.223 51.912Z" fill="url(#paint7_linear_70_615)"/> <path d="M177.601 47.3013L119.566 13.2625L119.735 78.4371L186.512 117.371L186.399 70.4112C188.542 71.322 177.883 47.0167 177.601 47.3013Z" fill="#AE99E8"/> <path d="M193.223 51.9119L193.449 51.115C197.002 53.1641 199.822 58.1732 199.822 62.2715L199.033 62.0438C199.033 58.344 196.438 53.7903 193.223 51.9119Z" fill="#AE99E8"/> <path d="M193.393 51.172L194.239 50.6597C197.792 52.7088 200.612 57.7179 200.612 61.8162L199.766 62.3285C199.766 58.2302 196.946 53.2211 193.393 51.172Z" fill="#AE99E8"/> <path d="M130.902 81.1125C131.128 80.6571 131.241 80.2587 131.241 80.031L130.902 81.1125Z" fill="#52586C"/> <path d="M183.692 112.703L116.915 73.5418L116.69 14.9131L183.466 54.0748L183.692 112.703Z" fill="url(#paint8_linear_70_615)"/> <path d="M183.466 54.0749L116.69 14.9132L117.649 14.4009L184.425 53.5626L183.466 54.0749Z" fill="#E4E7ED"/> <path d="M184.425 53.5625L184.651 112.134L183.692 112.704L183.466 54.0748L184.425 53.5625Z" fill="#E4E7ED"/> <path d="M150.642 133.138C150.36 133.309 150.36 133.537 150.642 133.707L153.518 135.415C153.8 135.586 154.252 135.586 154.534 135.415L159.666 132.455C159.948 132.284 159.948 132.057 159.666 131.886L156.79 130.178C156.508 130.008 156.056 130.008 155.774 130.178L150.642 133.138Z" fill="#8877B5"/> <path d="M150.642 133.708L151.262 134.049L155.774 131.431C156.056 131.26 156.508 131.26 156.79 131.431L159.046 132.74L159.666 132.398C159.948 132.228 159.948 132 159.666 131.829L156.79 130.121C156.508 129.951 156.056 129.951 155.774 130.121L150.642 133.081C150.36 133.309 150.36 133.594 150.642 133.708Z" fill="#888B90"/> <path d="M121.709 197.232L109.02 189.832V184.709L121.709 192.109V197.232Z" fill="#D4C5FF"/> <path d="M121.709 192.109V197.231L134.512 189.775V184.652L121.709 192.109Z" fill="#D4C5FF"/> <path d="M109.02 184.709L121.709 192.109L134.512 184.652L121.822 177.252L109.02 184.709Z" fill="#CCB9FF"/> <path d="M121.709 191.312L109.02 183.912V178.846L121.709 186.246V191.312Z" fill="#D4C5FF"/> <path d="M121.709 186.246V191.312L134.512 183.855V178.789L121.709 186.246Z" fill="#D4C5FF"/> <path d="M109.02 178.846L121.709 186.246L134.512 178.789L121.822 171.389L109.02 178.846Z" fill="#EBE4FF"/> <path d="M116.521 178.846L121.766 181.863L126.954 178.789L121.766 175.772L116.521 178.846Z" fill="white"/> <path d="M102.477 151.296C101.011 153.06 99.5445 154.825 98.0781 156.59L102.026 151.637C102.252 151.524 102.364 151.41 102.477 151.296Z" fill="#3D4359"/> <path d="M98.0781 156.59L96.3861 149.873C96.4989 150.328 96.8937 150.784 97.5705 151.182C98.9241 151.979 100.954 152.207 102.026 151.638L98.0781 156.59Z" fill="#464D62"/> <path d="M106.594 141.221C105.297 144.465 103.944 147.767 102.646 151.011C102.534 151.239 102.364 151.467 102.026 151.638L105.636 142.189C106.143 141.904 106.482 141.619 106.594 141.221Z" fill="#464C61"/> <path d="M106.369 139.343C106.369 139.399 106.369 139.399 106.369 139.456V139.513C106.369 139.57 106.369 139.57 106.369 139.627C106.369 139.684 106.369 139.684 106.369 139.741V139.798C106.369 139.855 106.369 139.855 106.369 139.912C106.369 139.969 106.369 139.969 106.369 140.026V140.083C106.369 140.139 106.369 140.139 106.369 140.196C106.369 140.253 106.369 140.253 106.369 140.31V140.367C106.369 140.424 106.369 140.424 106.369 140.481C106.594 141.221 106.256 141.904 105.354 142.359L105.184 141.164C106.256 140.595 106.538 139.969 106.369 139.343Z" fill="#626779"/> <path d="M96.3861 149.531C96.6117 146.002 96.8373 142.53 97.0629 139.001C97.0065 139.798 97.6269 140.709 98.8677 141.449C100.954 142.701 104 143.042 105.636 142.189L102.026 151.637C100.954 152.207 98.9241 151.979 97.5705 151.182C96.7809 150.67 96.3297 150.101 96.3861 149.531Z" fill="url(#paint9_linear_70_615)"/> <path d="M97.4013 138.204C97.6269 137.92 97.8525 137.692 98.0781 137.407C97.3449 138.204 97.8525 139.399 99.3753 140.367C101.236 141.506 104 141.79 105.466 140.993L105.636 142.189C104 143.042 100.954 142.701 98.8677 141.449C97.1193 140.424 96.6117 139.115 97.4013 138.204Z" fill="#626779"/> <path d="M115.787 97.1641C115.844 97.3348 115.844 97.5056 115.9 97.6764C116.013 98.3025 115.731 98.8717 114.998 99.2701L114.941 98.644C115.618 98.3025 115.9 97.7333 115.787 97.1641Z" fill="#90A09E"/> <path d="M107.497 95.741C107.553 95.741 107.553 95.741 107.497 95.741C107.553 95.6841 107.553 95.6841 107.553 95.6841C107.553 95.6841 107.553 95.6272 107.61 95.6272C107.61 95.6272 107.61 95.5702 107.666 95.5702C107.666 95.5702 107.666 95.5133 107.722 95.5133C107.722 95.5133 107.722 95.4564 107.779 95.4564C107.779 95.4564 107.779 95.3995 107.835 95.3995C107.835 95.3995 107.835 95.3426 107.892 95.3426C107.892 95.3426 107.892 95.2856 107.948 95.2856C107.328 96.0825 107.835 97.164 109.245 98.0179C110.993 99.0994 113.588 99.327 114.998 98.644L115.054 99.2701C113.588 100.01 110.824 99.7255 108.963 98.644C107.384 97.7333 106.876 96.5948 107.497 95.741Z" fill="#90A09E"/> <path d="M114.998 99.2702C113.531 100.01 110.768 99.7256 108.907 98.6441C107.666 97.9041 107.158 96.9934 107.328 96.2534L97.8525 137.977C97.6833 138.717 98.2473 139.627 99.4317 140.367C101.293 141.506 104.056 141.79 105.523 140.993C106.03 140.709 106.369 140.367 106.425 139.969L115.9 98.2457C115.787 98.6441 115.505 99.0425 114.998 99.2702Z" fill="url(#paint10_linear_70_615)"/> <path d="M115.223 90.7319C115.618 91.415 116.013 92.098 116.408 92.7811C116.859 93.578 116.69 94.318 115.731 94.7733L114.829 91.8704C115.393 91.6427 115.505 91.1873 115.223 90.7319Z" fill="url(#paint11_linear_70_615)"/> <path d="M109.132 91.0736C109.809 90.6182 110.429 90.2198 111.106 89.7644C110.486 90.1629 110.655 90.9598 111.614 91.529C112.629 92.1551 114.095 92.2689 114.885 91.8705L115.787 94.7735C114.377 95.5134 111.783 95.2288 110.035 94.1473C108.343 93.1797 108.004 91.8705 109.132 91.0736Z" fill="url(#paint12_linear_70_615)"/> <path d="M114.885 91.8704C114.095 92.2688 112.629 92.0981 111.614 91.5289C110.599 90.9027 110.429 90.1058 111.219 89.7074C112.009 89.3089 113.475 89.4797 114.49 90.0489C115.505 90.675 115.675 91.4719 114.885 91.8704Z" fill="url(#paint13_linear_70_615)"/> <path d="M115.787 94.8302C114.377 95.5702 111.783 95.2856 110.035 94.2041C108.907 93.521 108.343 92.6672 108.512 91.9272L107.61 95.7979C107.44 96.4809 107.948 97.3348 109.132 98.0747C110.881 99.1562 113.475 99.3839 114.885 98.7009C115.393 98.4732 115.675 98.1316 115.731 97.7332L116.633 93.8626C116.577 94.2041 116.295 94.5456 115.787 94.8302Z" fill="url(#paint14_linear_70_615)"/> <path d="M136.655 78.2665C144.325 91.586 156.733 98.815 164.403 94.432C172.074 90.0491 172.074 75.6481 164.403 62.2716C156.733 48.9521 144.325 41.7231 136.655 46.1061C128.985 50.5459 128.985 64.9469 136.655 78.2665ZM137.557 47.6998C144.72 43.6015 156.338 50.3751 163.501 62.8409C170.664 75.3066 170.664 88.7969 163.501 92.8952C156.338 96.9935 144.72 90.2199 137.557 77.7542C130.395 65.2885 130.395 51.8551 137.557 47.6998Z" fill="#D4C5FF"/> <path d="M162.197 90.4525C168.57 86.6923 168.511 74.6237 162.066 63.4966C155.62 52.3695 145.229 46.3975 138.856 50.1578C132.483 53.918 132.541 65.9866 138.987 77.1137C145.432 88.2408 155.824 94.2128 162.197 90.4525Z" fill="#CCB9FF"/> <path d="M159.384 65.2315C164.573 74.2251 164.573 83.9586 159.384 86.9185C154.195 89.8784 145.792 84.9832 140.659 75.9896C135.471 66.9961 135.471 57.2626 140.659 54.3027C145.848 51.3428 154.195 56.238 159.384 65.2315Z" fill="#CCB9FF"/> <path d="M156.169 67.5082C151.77 59.8808 144.72 55.7825 140.321 58.287L125.883 66.7113L132.876 78.8355C133.102 79.4047 133.328 80.0308 133.666 80.5431C134.004 81.1123 134.343 81.6246 134.738 82.08L141.731 94.318L156.169 85.8937C160.568 83.3892 160.568 75.1356 156.169 67.5082Z" fill="url(#paint15_linear_70_615)"/> <path d="M141.807 94.2404C146.163 91.6701 146.126 83.4263 141.724 75.8273C137.322 68.2283 130.223 64.1517 125.866 66.722C121.51 69.2923 121.547 77.5362 125.949 85.1352C130.351 92.7342 137.45 96.8107 141.807 94.2404Z" fill="#3B4157"/> <path d="M141.111 76.2739C145.115 83.2752 145.115 90.7888 141.111 93.1226C137.106 95.4563 130.564 91.6426 126.56 84.6413C122.555 77.64 122.555 70.1265 126.56 67.7927C130.564 65.5158 137.106 69.3296 141.111 76.2739Z" fill="#F0F4EF"/> <path d="M124.924 68.8173L126.56 67.8496L142.972 86.8043L141.111 93.1226L139.475 94.0902L124.924 68.8173Z" fill="#F0F4EF"/> <path d="M139.475 77.2417C143.479 84.243 143.479 91.7566 139.475 94.0903C135.471 96.4241 128.928 92.6104 124.924 85.6091C120.92 78.6078 120.92 71.0942 124.924 68.7605C128.928 66.4836 135.414 70.2973 139.475 77.2417Z" fill="#F0F4EF"/> <path d="M139.419 87.0322C139.193 81.4539 135.302 74.851 130.508 72.0619C127.688 70.4112 125.15 70.4681 123.514 71.8912L112.234 82.1939C112.234 82.1939 88.0955 89.0813 86.8547 89.9921C85.6703 90.9028 85.6139 92.952 85.6139 92.952C85.6139 92.952 83.6963 92.7243 83.1887 95.9119C82.6811 99.0994 81.102 120.786 81.5532 122.665C82.0608 124.543 88.6594 132.228 89.2234 132.683C89.5054 132.911 91.6486 134.277 93.6226 135.529C95.3709 136.61 96.9501 137.578 96.9501 137.578C96.9501 137.578 100.39 133.252 97.4013 127.105C96.7245 125.739 96.3297 123.974 96.0477 122.039C95.6529 119.363 95.5965 116.403 95.6529 113.842C95.7657 109.971 96.1041 106.898 96.1041 106.898C96.1041 106.898 97.5705 106.385 99.3189 105.816C100.447 105.418 101.744 105.019 102.759 104.678C102.872 104.621 103.041 104.621 103.154 104.564C103.549 104.45 103.944 104.336 104.226 104.279C104.338 104.222 104.508 104.279 104.677 104.336C105.748 104.905 107.158 108.321 108.286 111.508C108.681 112.704 109.076 113.899 109.358 114.867C109.527 115.379 109.64 115.834 109.753 116.176C109.809 116.403 109.866 116.574 109.922 116.745C110.035 117.143 110.091 117.314 110.091 117.314C110.091 117.314 110.26 117.257 110.542 117.086C110.824 116.973 111.219 116.802 111.727 116.517C113.926 115.493 117.874 113.557 121.202 111.451C124.022 109.687 126.447 107.751 127.067 106.215C127.067 106.158 127.124 106.101 127.124 106.101C127.124 106.044 127.18 106.044 127.18 105.987C127.18 105.93 127.236 105.873 127.236 105.759C127.236 105.645 127.293 105.588 127.293 105.475C127.349 105.304 127.349 105.19 127.406 105.019C127.406 104.962 127.406 104.905 127.462 104.848C127.8 103.369 128.534 102.059 129.154 100.693C129.774 99.2702 130.451 97.961 131.184 96.8795L131.241 96.8226C132.143 95.5134 132.2 95.3426 132.876 95.0011C135.132 94.0335 134.794 94.1473 135.809 93.7488C136.035 93.6919 136.26 93.635 136.43 93.5212C136.486 93.5212 136.542 93.4642 136.542 93.4642C138.347 92.6104 139.419 90.5613 139.419 87.5445C139.419 87.4306 139.419 87.2029 139.419 87.0322Z" fill="url(#paint16_linear_70_615)"/> <path d="M92.8894 93.1797C91.9306 96.0827 93.6226 95.9119 90.013 105.418C86.3471 114.924 86.1215 116.29 85.9523 117.77C85.7831 119.25 82.3991 120.103 82.6247 116.802C82.7375 113.501 92.8894 93.1797 92.8894 93.1797Z" fill="#F1CBBE"/> <path d="M84.9371 117.485C83.8655 121.299 84.9935 122.551 88.4902 127.56C91.9306 132.569 93.7354 135.529 93.7354 135.529L95.0325 136.326C95.0325 136.326 93.5098 124.543 92.7766 123.689C92.0434 122.779 84.9371 117.485 84.9371 117.485Z" fill="#F1CBBE"/> <path d="M131.241 96.8227C131.184 96.9365 128.534 100.409 127.406 105.019C127.349 105.19 127.349 105.304 127.293 105.475C127.293 105.532 127.236 105.645 127.236 105.759C127.18 105.93 127.18 106.044 127.124 106.215C125.488 111.964 117.874 128.357 116.633 130.918C115.336 133.594 113.249 134.618 109.527 136.611C108.738 138.09 106.764 141.05 105.072 142.872C104.282 143.726 103.549 144.352 103.098 144.466C101.913 144.238 101.011 142.758 100.616 141.05C100.39 140.026 100.39 138.944 100.616 137.92C101.236 135.244 104.846 126.991 107.046 125.397L109.922 116.745L110.937 113.614C110.937 113.614 111.501 111.451 112.46 108.662C113.306 106.158 114.547 103.141 115.957 100.75C117.085 98.8718 118.325 97.3919 119.623 96.8796C122.048 95.9119 124.586 95.7412 126.503 95.7981C128.477 95.855 131.184 96.8227 131.241 96.8227Z" fill="url(#paint17_linear_70_615)"/> <path d="M116.013 100.75C115.505 99.8393 114.208 99.6686 113.757 95.2856L111.783 104.279C110.712 100.522 109.189 99.4978 109.189 99.4978C109.189 99.4978 107.384 103.482 107.102 103.482C106.876 103.482 106.482 102.742 106.256 101.832C106.143 101.376 106.143 100.864 106.2 100.409C106.425 98.8717 106.2 97.9609 106.2 97.9609C106.2 97.9609 104.395 101.945 103.831 103.255C103.774 103.425 103.549 103.938 103.267 104.564C102.759 105.759 102.026 107.41 101.8 107.751C103.323 105.987 104.226 105.019 104.79 104.336C105.861 104.905 107.271 108.321 108.399 111.508C108.85 112.76 109.189 113.956 109.527 114.923C109.64 115.208 109.696 115.493 109.809 115.777C109.866 115.891 109.866 116.062 109.922 116.176C109.978 116.403 110.035 116.574 110.091 116.745L107.215 125.397C105.354 126.706 102.534 132.569 101.293 136.098C101.011 136.838 100.842 137.464 100.729 137.92C100.616 138.318 100.616 138.716 100.56 139.115C100.503 139.741 100.616 140.424 100.729 141.05C103.154 136.781 109.527 125.055 111.896 116.574C112.291 115.151 112.573 113.842 112.685 112.647C113.813 110.142 115.618 105.987 116.182 103.198C116.351 101.832 116.295 101.205 116.013 100.75Z" fill="#F2C7B5"/> <path d="M85.6703 93.0088C84.3167 96.4241 82.5683 113.045 82.5683 113.045C82.5683 113.045 86.0087 95.0579 85.6703 93.0088Z" fill="#F2C7B5"/> <path d="M109.527 136.61C108.625 135.415 105.297 136.155 105.072 136.895C104.846 137.635 103.098 139.969 102.928 141.506C102.703 142.986 103.21 144.238 103.831 144.067C104.79 144.295 109.527 137.123 109.527 136.61Z" fill="#FFB9A0"/> <path d="M115.167 85.4383L112.685 93.7488L112.516 94.318C112.516 94.318 107.835 99.5547 106.256 101.832C106.03 102.173 105.805 102.458 105.748 102.628C105.523 103.255 105.297 103.653 104.733 104.279C104.169 104.962 103.267 105.93 101.744 107.694C100.842 113.045 97.5705 118.225 97.5705 118.225C97.5705 118.225 98.8677 120.388 100.447 126.991C100.672 127.845 100.785 128.641 100.898 129.381C101.349 132.114 101.293 134.334 101.124 135.984C100.954 137.521 100.616 138.546 100.39 139.001C99.8829 140.026 99.2061 141.449 97.2885 141.733C95.371 142.018 94.2994 141.733 94.0174 140.026C93.8482 138.887 93.7354 137.066 93.5662 135.472C93.4534 134.618 93.3406 133.878 93.1714 133.252C92.6638 131.431 88.7723 125.34 87.5315 123.348C86.2907 121.356 84.5987 119.022 84.8243 117.086C85.0499 115.151 90.1822 101.718 91.2538 97.6763C92.3818 93.6349 93.115 90.732 96.2733 89.1382C96.2733 89.1382 107.384 84.9829 109.922 84.7552C112.629 84.5845 115.167 85.4383 115.167 85.4383Z" fill="url(#paint18_linear_70_615)"/> <path d="M109.527 93.1798C108.512 96.1397 103.38 94.8874 101.293 101.035C100.785 102.515 100.165 104.166 99.4317 105.816C98.1909 108.662 96.7809 111.565 95.7657 113.842C94.807 115.891 94.1302 117.428 94.1302 117.94C94.1302 118.567 95.0325 120.103 96.1041 122.039C97.5141 124.543 99.1497 127.731 99.5445 130.463C99.6573 131.374 100.165 130.862 100.954 129.495C100.842 128.755 100.672 127.902 100.503 127.105C98.9241 120.445 97.6269 118.339 97.6269 118.339C97.6269 118.339 100.898 113.159 101.8 107.808C103.323 106.044 104.226 105.076 104.79 104.393C105.354 103.71 105.579 103.312 105.805 102.743C105.861 102.572 106.03 102.287 106.312 101.946C107.892 99.6688 112.573 94.432 112.573 94.432L112.742 93.8628V88.683C110.317 88.1138 110.542 90.2199 109.527 93.1798Z" fill="#F2C7B5"/> <path d="M106.2 97.9609C106.2 97.9609 104.395 101.945 103.831 103.255C103.774 103.425 103.549 103.938 103.267 104.564C102.759 105.759 102.026 107.41 101.8 107.751C103.323 105.987 104.226 105.019 104.79 104.336C105.354 103.653 105.579 103.255 105.805 102.685C105.861 102.515 106.03 102.23 106.312 101.888C106.2 101.433 106.2 100.921 106.256 100.465C106.425 98.9286 106.2 97.9609 106.2 97.9609Z" fill="#F2C7B5"/> <path d="M100.616 137.92C100.503 138.318 100.503 138.717 100.447 139.115C100.672 138.66 100.954 137.635 101.18 136.098C100.898 136.838 100.729 137.464 100.616 137.92Z" fill="#F2C7B5"/> <path d="M97.5705 137.578C96.8937 134.903 95.2018 134.903 94.6378 134.789C94.0738 134.618 93.8482 134.618 93.679 135.7C93.5098 136.781 94.4122 141.164 94.7506 141.904C95.089 142.644 95.8785 142.587 96.7809 142.189C97.6833 141.79 97.7961 141.619 97.9089 140.652C98.0217 139.684 97.5705 137.578 97.5705 137.578Z" fill="#FFB9A0"/> <path d="M115.787 97.1641C115.844 97.3348 115.844 97.5056 115.9 97.6764C116.013 98.3025 115.731 98.8717 114.998 99.2701L114.941 98.644C115.618 98.3025 115.9 97.7333 115.787 97.1641Z" fill="#90A09E"/> <path d="M107.497 95.741C107.553 95.741 107.553 95.741 107.497 95.741C107.553 95.6841 107.553 95.6841 107.553 95.6841C107.553 95.6841 107.553 95.6272 107.61 95.6272C107.61 95.6272 107.61 95.5702 107.666 95.5702C107.666 95.5702 107.666 95.5133 107.722 95.5133C107.722 95.5133 107.722 95.4564 107.779 95.4564C107.779 95.4564 107.779 95.3995 107.835 95.3995C107.835 95.3995 107.835 95.3426 107.892 95.3426C107.892 95.3426 107.892 95.2856 107.948 95.2856C107.328 96.0825 107.835 97.164 109.245 98.0179C110.993 99.0994 113.588 99.327 114.998 98.644L115.054 99.2701C113.588 100.01 110.824 99.7255 108.963 98.644C107.384 97.7333 106.876 96.5948 107.497 95.741Z" fill="#90A09E"/> <path d="M114.998 99.2702C113.531 100.01 110.768 99.7256 108.907 98.6441C107.666 97.9041 107.158 96.9934 107.328 96.2534L100.39 126.479C100.221 127.218 100.052 132 101.18 136.098C102.872 131.374 104.451 131.203 105.297 129.723C107.102 126.535 109.809 123.576 111.05 119.648L115.9 98.2457C115.787 98.6441 115.505 99.0425 114.998 99.2702Z" fill="url(#paint19_linear_70_615)"/> <path d="M116.464 92.7812C116.069 92.0982 115.675 91.4151 115.28 90.7321C115.562 91.1874 115.449 91.5859 114.885 91.8705C114.095 92.2689 112.629 92.0982 111.614 91.529C110.655 90.9598 110.486 90.2198 111.106 89.7644C110.43 90.2198 109.809 90.6182 109.132 91.0736C108.004 91.8136 108.343 93.1797 110.035 94.1473C111.783 95.2288 114.377 95.4565 115.787 94.7735C116.69 94.3181 116.915 93.5781 116.464 92.7812Z" fill="url(#paint20_linear_70_615)"/> <path d="M114.885 91.8704C114.095 92.2688 112.629 92.0981 111.614 91.5289C110.599 90.9027 110.43 90.1058 111.219 89.7074C112.009 89.3089 113.475 89.4797 114.49 90.0489C115.505 90.675 115.675 91.4719 114.885 91.8704Z" fill="#DCE1E0"/> <path d="M115.787 94.8302C114.377 95.5702 111.783 95.2856 110.035 94.2041C108.907 93.521 108.343 92.6672 108.512 91.9272L107.61 95.7979C107.44 96.4809 107.948 97.3348 109.132 98.0747C110.881 99.1562 113.475 99.3839 114.885 98.7009C115.393 98.4732 115.675 98.1316 115.731 97.7332L116.633 93.8626C116.577 94.2041 116.295 94.5456 115.787 94.8302Z" fill="url(#paint21_linear_70_615)"/> <path d="M68.5814 220L81.3276 212.543V207.477L68.5814 214.877V220Z" fill="#D4C5FF"/> <path d="M68.5813 220L55.8915 212.6V207.534L68.5813 214.877V220Z" fill="#D4C5FF"/> <path d="M68.5813 220L55.8915 212.6V207.534L68.5813 214.877V220Z" fill="#D4C5FF"/> <path d="M68.5813 214.877L81.3275 207.477L68.6377 200.077L55.8915 207.534L68.5813 214.877Z" fill="#CCB9FF"/> <path d="M68.5813 214.08L81.3275 206.68V201.557L68.5813 209.014V214.08Z" fill="#D4C5FF"/> <path d="M68.5813 214.08L55.8915 206.737V201.614L68.5813 209.014V214.08Z" fill="#D4C5FF"/> <path d="M68.5813 214.08L55.8915 206.737V201.614L68.5813 209.014V214.08Z" fill="#D4C5FF"/> <path d="M68.5813 209.014L81.3275 201.557L68.6377 194.158L55.8915 201.614L68.5813 209.014Z" fill="#EBE4FF"/> <path d="M63.3926 201.614L68.5813 204.631L73.8264 201.614L68.6377 198.541L63.3926 201.614Z" fill="white"/> <path d="M166.659 29.8836L169.987 27.9482C176.247 32.7296 180.026 33.6973 182.846 34.4942C185.666 36.9987 189.445 40.4709 195.705 42.9754V56.6365C195.705 62.1578 193.562 64.9469 191.024 66.2561L187.696 68.1915L187.866 67.2807C185.158 67.7361 182.846 67.2238 182.846 67.2238C182.846 67.2238 169.987 55.1565 169.987 41.6662V33.5834L166.659 29.8836Z" fill="#D4C5FF"/> <path d="M195.705 42.9185L192.377 44.8538L185.328 42.9185L179.575 36.4295L182.902 34.4941C185.61 36.9987 189.445 40.4709 195.705 42.9185Z" fill="#EBE4FF"/> <path d="M167.054 29.6559L169.987 27.9482C176.247 32.7296 180.026 33.6973 182.846 34.4942L179.518 36.4295H172.469L166.716 29.9405L167.054 29.6559Z" fill="#D4C5FF"/> <path d="M179.518 36.3726C182.338 38.8771 186.117 42.3493 192.377 44.8538V58.5149C192.377 72.0052 179.518 69.1022 179.518 69.1022C179.518 69.1022 166.659 57.0349 166.659 43.5446V29.8835C172.92 34.6649 176.698 35.6326 179.518 36.3726Z" fill="white"/> <path d="M179.518 66.2563C180.534 66.3701 182.564 66.5409 184.594 65.9147C188.204 64.8332 190.065 61.8733 190.065 57.2058V46.5616C189.219 46.1631 188.373 45.7077 187.584 45.2524C184.087 43.2032 181.492 40.9833 179.575 39.2187C177.601 38.7064 175.007 37.9096 171.566 35.8604C170.777 35.405 169.931 34.8358 169.085 34.2666V44.9108C169.085 49.5784 170.946 54.6444 174.555 59.9949C176.473 62.9548 178.503 65.1747 179.518 66.2563Z" fill="#D4C5FF"/> <path d="M180.364 65.8008C179.349 64.7193 177.319 62.4993 175.288 59.5394C171.679 54.1889 169.818 49.1229 169.818 44.4554V34.8357C170.382 35.1772 170.946 35.5757 171.51 35.8603C175.007 37.9094 177.601 38.6494 179.518 39.2186C181.492 40.9832 184.087 43.2031 187.527 45.2523C188.317 45.7076 189.163 46.163 190.009 46.5614V57.2057C190.009 60.8486 188.881 63.467 186.625 64.9469C186.23 65.1177 185.779 65.2885 185.328 65.4592C183.41 66.0284 181.38 65.9146 180.364 65.8008Z" fill="#5EC134"/> <path d="M181.041 59.3116L179.688 60.1085C179.744 60.0516 179.8 60.0516 179.857 59.9947L181.21 59.1978C181.154 59.1978 181.098 59.2547 181.041 59.3116Z" fill="#C6C0D0"/> <path d="M171.848 47.529L173.202 46.7321C173.653 46.4475 174.273 46.5613 174.894 46.9029C175.458 47.2444 176.022 47.7567 176.473 48.4967L175.119 49.2936C174.668 48.5536 174.104 48.0413 173.54 47.6998C172.92 47.3582 172.299 47.3013 171.848 47.529Z" fill="#EBE4FF"/> <path d="M175.063 49.3504L176.416 48.5535L178.898 52.5379L177.544 53.3348L175.063 49.3504Z" fill="#EBE4FF"/> <path d="M186.681 54.3596L187.978 53.5627L181.21 59.141L179.857 59.9379L186.681 54.3596Z" fill="#EBE4FF"/> <path d="M183.184 48.7243L184.538 47.9274C184.989 47.6428 185.61 47.7567 186.23 48.0982L184.876 48.8951C184.256 48.4966 183.636 48.4397 183.184 48.7243Z" fill="#EBE4FF"/> <path d="M184.876 48.895L186.23 48.0981C186.738 48.3827 187.302 48.895 187.696 49.5781C188.711 51.115 188.824 52.9364 187.978 53.5626L186.625 54.3595C187.471 53.6764 187.302 51.9119 186.343 50.375C185.892 49.6919 185.384 49.1796 184.876 48.895Z" fill="#EBE4FF"/> <path d="M184.876 48.8952C185.384 49.1798 185.948 49.6921 186.343 50.3752C187.358 51.912 187.471 53.7335 186.625 54.3596L179.857 59.9379C179.293 60.3933 178.503 60.3364 177.714 59.881C177.037 59.4825 176.416 58.8564 175.852 58.0026L171.905 51.5705C170.946 50.0336 170.889 48.2691 171.735 47.643C172.187 47.3014 172.863 47.3584 173.484 47.7568C174.048 48.0983 174.612 48.6106 175.063 49.3506L177.544 53.392L183.072 48.8383C183.523 48.4399 184.2 48.4968 184.876 48.8952Z" fill="white"/> <path d="M57.2451 109.004L58.3167 109.63C58.2603 109.63 58.2039 109.573 58.2039 109.516L57.1323 108.89C57.1323 108.947 57.1887 109.004 57.2451 109.004Z" fill="#BFA8FF"/> <path d="M67.2842 95.229L66.2126 94.6029C65.8742 94.3752 65.3666 94.4321 64.859 94.7167C64.4078 95.0013 63.9566 95.3998 63.6182 96.0259L64.6898 96.6521C65.0282 96.0828 65.4794 95.6275 65.9306 95.3429C66.4382 95.0583 66.8894 95.0013 67.2842 95.229Z" fill="#BFA8FF"/> <path d="M64.6898 96.652L63.6182 96.0259L58.9371 103.653L60.0087 104.279L64.6898 96.652Z" fill="#BFA8FF"/> <path d="M55.6095 107.467L54.538 106.841L57.0759 108.947L58.1475 109.573L55.6095 107.467Z" fill="#BFA8FF"/> <path d="M58.3731 102.913L57.3015 102.287C56.9631 102.06 56.4555 102.116 55.9479 102.401L57.0195 103.027C57.5271 102.743 58.0347 102.686 58.3731 102.913Z" fill="#BFA8FF"/> <path d="M57.0195 103.027L55.9479 102.401C55.5531 102.629 55.102 103.027 54.7636 103.596C53.974 104.849 53.8612 106.272 54.538 106.784L55.6095 107.41C54.9328 106.898 55.0456 105.418 55.8351 104.223C56.1735 103.71 56.6247 103.312 57.0195 103.027Z" fill="#BFA8FF"/> <path d="M57.0195 103.027C56.6247 103.255 56.1735 103.653 55.8352 104.223C55.0456 105.475 54.9328 106.898 55.6096 107.41L58.1475 109.516C58.5987 109.858 59.2191 109.801 59.8395 109.459C60.3471 109.175 60.9111 108.606 61.3059 107.923L67.1714 98.3598C67.961 97.1075 68.0174 95.6845 67.2842 95.2291C66.8894 94.9445 66.3818 95.0014 65.8742 95.3429C65.423 95.6275 64.9718 96.026 64.6334 96.6521L59.9523 104.28L58.4295 103.027C58.0911 102.686 57.5835 102.743 57.0195 103.027Z" fill="#D4C5FF"/> <g opacity="0.76"> <path d="M57.2451 92.2122L58.3167 92.8384C58.2603 92.8384 58.2039 92.7814 58.2039 92.7245L57.1323 92.0984C57.1323 92.1553 57.1887 92.2122 57.2451 92.2122Z" fill="#BFA8FF"/> <path d="M67.2842 78.4373L66.2126 77.8111C65.8742 77.5835 65.3666 77.6404 64.859 77.925C64.4078 78.2096 63.9566 78.608 63.6182 79.2342L64.6898 79.8603C65.0282 79.2911 65.4794 78.8357 65.9306 78.5511C66.4382 78.2665 66.8894 78.2096 67.2842 78.4373Z" fill="#BFA8FF"/> <path d="M64.6898 79.8603L63.6182 79.2341L58.9371 86.8616L60.0087 87.4877L64.6898 79.8603Z" fill="#BFA8FF"/> <path d="M55.6095 90.6752L54.538 90.0491L57.0759 92.1552L58.1475 92.7813L55.6095 90.6752Z" fill="#BFA8FF"/> <path d="M58.3731 86.1216L57.3015 85.4955C56.9631 85.2678 56.4555 85.3247 55.9479 85.6093L57.0195 86.2354C57.5271 85.9508 58.0347 85.8939 58.3731 86.1216Z" fill="#BFA8FF"/> <path d="M57.0195 86.2355L55.9479 85.6094C55.5531 85.8371 55.102 86.2355 54.7636 86.8047C53.974 88.057 53.8612 89.48 54.538 89.9923L55.6095 90.6184C54.9328 90.1061 55.0456 88.6262 55.8351 87.4309C56.1735 86.9186 56.6247 86.5201 57.0195 86.2355Z" fill="#BFA8FF"/> <path d="M57.0195 86.2355C56.6247 86.4632 56.1735 86.8617 55.8352 87.4309C55.0456 88.6832 54.9328 90.1062 55.6096 90.6185L58.1475 92.7245C58.5987 93.0661 59.2191 93.0092 59.8395 92.6676C60.3471 92.383 60.9111 91.8138 61.3059 91.1308L67.1714 81.568C67.961 80.3158 68.0174 78.8927 67.2842 78.4374C66.8894 78.1527 66.3818 78.2097 65.8742 78.5512C65.423 78.8358 64.9718 79.2342 64.6334 79.8604L59.9523 87.4878L58.4295 86.2355C58.0911 85.894 57.5835 85.9509 57.0195 86.2355Z" fill="#D4C5FF"/> </g> <g opacity="0.52"> <path d="M57.2451 75.4205L58.3167 76.0466C58.2603 76.0466 58.2039 75.9897 58.2039 75.9328L57.1323 75.3066C57.1323 75.3636 57.1887 75.4205 57.2451 75.4205Z" fill="#BFA8FF"/> <path d="M67.2842 61.6455L66.2126 61.0194C65.8742 60.7917 65.3666 60.8486 64.859 61.1332C64.4078 61.4178 63.9566 61.8163 63.6182 62.4424L64.6898 63.0686C65.0282 62.4993 65.4794 62.044 65.9306 61.7594C66.4382 61.4748 66.8894 61.4178 67.2842 61.6455Z" fill="#BFA8FF"/> <path d="M64.6898 63.0116L63.6182 62.3855L58.9371 70.0129L60.0087 70.6391L64.6898 63.0116Z" fill="#BFA8FF"/> <path d="M55.6095 73.8266L54.538 73.2004L57.0759 75.3065L58.1475 75.9326L55.6095 73.8266Z" fill="#BFA8FF"/> <path d="M58.3731 69.3299L57.3015 68.7037C56.9631 68.476 56.4555 68.533 55.9479 68.8176L57.0195 69.4437C57.5271 69.1591 58.0347 69.1022 58.3731 69.3299Z" fill="#BFA8FF"/> <path d="M57.0195 69.4438L55.9479 68.8176C55.5531 69.0453 55.102 69.4438 54.7636 70.013C53.974 71.2652 53.8612 72.6883 54.538 73.2006L55.6095 73.8267C54.9328 73.3144 55.0456 71.8344 55.8351 70.6391C56.1735 70.1268 56.6247 69.7284 57.0195 69.4438Z" fill="#BFA8FF"/> <path d="M57.0195 69.4438C56.6247 69.6715 56.1735 70.0699 55.8352 70.6391C55.0456 71.8914 54.9328 73.3144 55.6096 73.8267L58.1475 75.9328C58.5987 76.2743 59.2191 76.2174 59.8395 75.8759C60.3471 75.5913 60.9111 75.0221 61.3059 74.339L67.1714 64.7763C67.961 63.524 68.0174 62.101 67.2842 61.6456C66.8894 61.361 66.3818 61.4179 65.8742 61.7594C65.423 62.0441 64.9718 62.4425 64.6334 63.0686L59.9523 70.6961L58.4295 69.4438C58.0911 69.1023 57.5835 69.1592 57.0195 69.4438Z" fill="#D4C5FF"/> </g> <g opacity="0.28"> <path d="M57.2451 58.6287L58.3167 59.2549C58.2603 59.2549 58.2039 59.1979 58.2039 59.141L57.1323 58.5149C57.1323 58.5718 57.1887 58.5718 57.2451 58.6287Z" fill="#BFA8FF"/> <path d="M67.2842 44.7969L66.2126 44.1708C65.8742 43.9431 65.3666 44 64.859 44.2846C64.4078 44.5692 63.9566 44.9677 63.6182 45.5938L64.6898 46.2199C65.0282 45.6507 65.4794 45.1953 65.9306 44.9107C66.4382 44.6831 66.8894 44.6261 67.2842 44.7969Z" fill="#BFA8FF"/> <path d="M64.6898 46.2199L63.6182 45.5938L58.9371 53.2212L60.0087 53.8473L64.6898 46.2199Z" fill="#BFA8FF"/> <path d="M55.6095 57.0348L54.538 56.4087L57.0759 58.5148L58.1475 59.1409L55.6095 57.0348Z" fill="#BFA8FF"/> <path d="M58.3731 52.5381L57.3015 51.912C56.9631 51.6843 56.4555 51.7412 55.9479 52.0258L57.0195 52.652C57.5271 52.3673 58.0347 52.3104 58.3731 52.5381Z" fill="#BFA8FF"/> <path d="M57.0195 52.652L55.9479 52.0259C55.5531 52.2536 55.102 52.652 54.7636 53.2212C53.974 54.4735 53.8612 55.8965 54.538 56.4088L55.6095 57.0349C54.9328 56.5226 55.0456 55.0427 55.8351 53.8474C56.1735 53.3351 56.6247 52.8797 57.0195 52.652Z" fill="#BFA8FF"/> <path d="M57.0195 52.652C56.6247 52.8797 56.1735 53.2782 55.8352 53.8474C55.0456 55.0996 54.9328 56.5227 55.6096 57.035L58.1475 59.141C58.5987 59.4826 59.2191 59.4257 59.8395 59.0841C60.3471 58.7995 60.9111 58.2303 61.3059 57.5473L67.1714 47.9845C67.961 46.7323 68.0174 45.3092 67.2842 44.8539C66.8894 44.5693 66.3818 44.6262 65.8742 44.9677C65.423 45.2523 64.9718 45.6508 64.6334 46.2769L59.9523 53.9043L58.4295 52.652C58.0911 52.3105 57.5835 52.3674 57.0195 52.652Z" fill="#D4C5FF"/> </g> <path d="M157.072 218.975L169.818 211.519V206.453L157.072 213.909V218.975Z" fill="#D4C5FF"/> <path d="M157.072 218.975L144.325 211.576V206.51L157.072 213.909V218.975Z" fill="#D4C5FF"/> <path d="M157.072 218.975L144.325 211.576V206.51L157.072 213.909V218.975Z" fill="#D4C5FF"/> <path d="M157.072 213.909L169.818 206.453L157.128 199.053L144.325 206.51L157.072 213.909Z" fill="#CCB9FF"/> <path d="M157.072 213.112L169.818 205.656V200.533L157.072 207.989V213.112Z" fill="#D4C5FF"/> <path d="M157.072 213.112L144.325 205.713V200.59L157.072 207.99V213.112Z" fill="#D4C5FF"/> <path d="M157.072 213.112L144.325 205.713V200.59L157.072 207.99V213.112Z" fill="#D4C5FF"/> <path d="M157.072 207.989L169.818 200.533L157.128 193.133L144.325 200.59L157.072 207.989Z" fill="#EBE4FF"/> <path d="M151.883 200.59L157.072 203.607L162.317 200.59L157.128 197.516L151.883 200.59Z" fill="white"/> <path d="M26 195.182L38.8026 187.726V182.66L26 190.116V195.182Z" fill="#D4C5FF"/> <path d="M26 195.183L13.3102 187.783V182.717L26 190.117V195.183Z" fill="#D4C5FF"/> <path d="M26 190.116L38.8026 182.66L26.1128 175.26L13.3102 182.717L26 190.116Z" fill="#CCB9FF"/> <path d="M26 189.319L38.8026 181.863V176.797L26 184.253V189.319Z" fill="#D4C5FF"/> <path d="M26 189.319L13.3102 181.92V176.854L26 184.254V189.319Z" fill="#D4C5FF"/> <path d="M26 184.253L38.8026 176.797L26.1128 169.397L13.3102 176.854L26 184.253Z" fill="#EBE4FF"/> <path d="M26.0564 182.717L36.1518 176.797L26.1128 170.934L15.9609 176.854L26.0564 182.717Z" fill="#CCB9FF"/> <path d="M26.0564 180.326L36.1518 174.463V169.34L26.0564 175.26V180.326Z" fill="#D4C5FF"/> <path d="M26.0564 180.326L15.9609 174.463V169.397L26.0564 175.26V180.326Z" fill="#D4C5FF"/> <path d="M26.0564 175.26L36.1518 169.34L26.1128 163.477L15.9609 169.397L26.0564 175.26Z" fill="#EBE4FF"/> <path d="M21.9392 169.397L26.0564 171.788L30.2299 169.397L26.0564 167.006L21.9392 169.397Z" fill="white"/> <path d="M37.9566 195.012L34.6291 193.076C34.2343 192.849 34.0087 192.507 34.1215 192.336C34.2343 192.166 34.6291 192.166 35.0239 192.393L38.3514 194.329C38.7462 194.556 38.9718 194.898 38.859 195.069C38.8026 195.239 38.3514 195.239 37.9566 195.012Z" fill="#E2D7FF"/> <path d="M45.8525 199.565L42.5249 197.63C42.1301 197.402 41.9045 197.061 42.0173 196.89C42.1301 196.719 42.5249 196.719 42.9197 196.947L46.2473 198.882C46.6421 199.11 46.8677 199.451 46.7549 199.622C46.6421 199.85 46.2473 199.793 45.8525 199.565Z" fill="#E2D7FF"/> <path d="M53.7484 204.176L50.4208 202.241C50.026 202.013 49.8004 201.671 49.9132 201.501C50.026 201.33 50.4208 201.33 50.8156 201.558L54.1432 203.493C54.538 203.721 54.7635 204.062 54.6507 204.233C54.538 204.404 54.1432 204.404 53.7484 204.176Z" fill="#E2D7FF"/> <path d="M124.586 146.799L121.258 144.864C120.863 144.636 120.638 144.295 120.751 144.124C120.863 143.953 121.258 143.953 121.653 144.181L124.98 146.116C125.375 146.344 125.601 146.686 125.488 146.856C125.375 147.084 124.98 147.084 124.586 146.799Z" fill="#E2D7FF"/> <path d="M132.425 151.41L129.098 149.475C128.703 149.247 128.477 148.906 128.59 148.735C128.703 148.564 129.098 148.564 129.492 148.792L132.82 150.727C133.215 150.955 133.44 151.296 133.328 151.467C133.271 151.695 132.82 151.638 132.425 151.41Z" fill="#E2D7FF"/> <path d="M140.321 156.021L136.994 154.085C136.599 153.858 136.373 153.516 136.486 153.345C136.599 153.175 136.994 153.175 137.388 153.402L140.716 155.338C141.111 155.565 141.336 155.907 141.223 156.078C141.111 156.248 140.716 156.248 140.321 156.021Z" fill="#E2D7FF"/> <path d="M171.848 174.406L168.521 172.471C168.126 172.243 167.9 171.902 168.013 171.731C168.126 171.56 168.521 171.56 168.915 171.788L172.243 173.723C172.638 173.951 172.863 174.292 172.751 174.463C172.694 174.634 172.243 174.634 171.848 174.406Z" fill="#E2D7FF"/> <path d="M179.744 178.96L176.416 177.025C176.022 176.797 175.796 176.455 175.909 176.285C176.022 176.114 176.416 176.114 176.811 176.341L180.139 178.277C180.534 178.504 180.759 178.846 180.646 179.017C180.534 179.244 180.139 179.188 179.744 178.96Z" fill="#E2D7FF"/> <path d="M134.061 198.484L130.733 196.548C130.338 196.321 130.113 195.979 130.226 195.808C130.338 195.638 130.733 195.638 131.128 195.865L134.456 197.801C134.85 198.028 135.076 198.37 134.963 198.541C134.85 198.768 134.399 198.711 134.061 198.484Z" fill="#E2D7FF"/> <path d="M141.9 203.094L138.573 201.159C138.178 200.931 137.952 200.59 138.065 200.419C138.178 200.248 138.573 200.248 138.967 200.476L142.295 202.411C142.69 202.639 142.915 202.981 142.803 203.151C142.746 203.379 142.295 203.322 141.9 203.094Z" fill="#E2D7FF"/> <path d="M99.3189 178.277L95.9913 176.341C95.5965 176.114 95.371 175.772 95.4837 175.601C95.5965 175.431 95.9913 175.431 96.3861 175.658L99.7137 177.594C100.108 177.821 100.334 178.163 100.221 178.334C100.165 178.561 99.7137 178.504 99.3189 178.277Z" fill="#E2D7FF"/> <path d="M107.215 182.887L103.887 180.952C103.492 180.724 103.267 180.383 103.38 180.212C103.492 180.041 103.887 180.041 104.282 180.269L107.61 182.204C108.004 182.432 108.23 182.773 108.117 182.944C108.061 183.172 107.61 183.115 107.215 182.887Z" fill="#E2D7FF"/> <path d="M39.5358 170.137L42.8634 168.202C43.2581 167.974 43.6529 167.917 43.7657 168.145C43.8785 168.316 43.6529 168.657 43.2581 168.885L39.9306 170.82C39.5358 171.048 39.141 171.105 39.0282 170.877C38.9154 170.706 39.141 170.365 39.5358 170.137Z" fill="#E2D7FF"/> <path d="M106.369 195.809L109.696 193.873C110.091 193.646 110.486 193.589 110.599 193.816C110.712 193.987 110.486 194.329 110.091 194.556L106.764 196.492C106.369 196.719 105.974 196.776 105.861 196.549C105.748 196.378 105.974 196.036 106.369 195.809Z" fill="#E2D7FF"/> <path d="M98.4729 200.419L101.8 198.484C102.195 198.256 102.59 198.199 102.703 198.427C102.816 198.598 102.59 198.939 102.195 199.167L98.8677 201.102C98.4729 201.33 98.0781 201.387 97.9653 201.159C97.8525 200.988 98.0781 200.647 98.4729 200.419Z" fill="#E2D7FF"/> <path d="M90.577 204.973L93.9046 203.038C94.2994 202.81 94.6942 202.753 94.807 202.981C94.9198 203.151 94.6942 203.493 94.2994 203.721L90.9718 205.656C90.577 205.884 90.1822 205.941 90.0694 205.713C89.9566 205.542 90.1822 205.201 90.577 204.973Z" fill="#E2D7FF"/> <path d="M82.7376 209.583L86.0651 207.648C86.4599 207.42 86.8547 207.364 86.9675 207.591C87.0803 207.762 86.8547 208.104 86.4599 208.331L83.1323 210.267C82.7376 210.494 82.3428 210.551 82.23 210.323C82.1172 210.153 82.3428 209.811 82.7376 209.583Z" fill="#E2D7FF"/> <path d="M87.2495 212.316H83.4143C82.9631 212.316 82.5683 212.145 82.5683 211.917C82.5683 211.69 82.9631 211.519 83.4143 211.519H87.2495C87.7007 211.519 88.0954 211.69 88.0954 211.917C88.0954 212.145 87.7007 212.316 87.2495 212.316Z" fill="#E2D7FF"/> <path d="M96.3861 212.316H92.551C92.0998 212.316 91.705 212.145 91.705 211.917C91.705 211.69 92.0998 211.519 92.551 211.519H96.3861C96.8373 211.519 97.2321 211.69 97.2321 211.917C97.1757 212.145 96.8373 212.373 96.3861 212.316Z" fill="#E2D7FF"/> <path d="M105.466 212.373H101.631C101.18 212.373 100.785 212.202 100.785 211.974C100.785 211.746 101.18 211.576 101.631 211.576H105.466C105.918 211.576 106.312 211.746 106.312 211.974C106.312 212.202 105.918 212.373 105.466 212.373Z" fill="#E2D7FF"/> <path d="M114.547 212.429H110.711C110.26 212.429 109.866 212.259 109.866 212.031C109.866 211.803 110.26 211.633 110.711 211.633H114.547C114.998 211.633 115.393 211.803 115.393 212.031C115.393 212.202 114.998 212.429 114.547 212.429Z" fill="#E2D7FF"/> <path d="M123.683 212.429H119.848C119.397 212.429 119.002 212.259 119.002 212.031C119.002 211.803 119.397 211.633 119.848 211.633H123.683C124.134 211.633 124.529 211.803 124.529 212.031C124.473 212.259 124.134 212.429 123.683 212.429Z" fill="#E2D7FF"/> <path d="M132.764 212.486H128.928C128.477 212.486 128.082 212.316 128.082 212.088C128.082 211.86 128.477 211.689 128.928 211.689H132.764C133.215 211.689 133.61 211.86 133.61 212.088C133.61 212.259 133.215 212.486 132.764 212.486Z" fill="#E2D7FF"/> <path d="M141.9 212.486H138.065C137.614 212.486 137.219 212.316 137.219 212.088C137.219 211.86 137.614 211.689 138.065 211.689H141.9C142.351 211.689 142.746 211.86 142.746 212.088C142.69 212.316 142.351 212.486 141.9 212.486Z" fill="#E2D7FF"/> <path d="M143.423 190.401H139.588C139.137 190.401 138.742 190.23 138.742 190.003C138.742 189.775 139.137 189.604 139.588 189.604H143.423C143.874 189.604 144.269 189.775 144.269 190.003C144.269 190.23 143.874 190.401 143.423 190.401Z" fill="#E2D7FF"/> <path d="M152.503 190.458H148.668C148.217 190.458 147.822 190.287 147.822 190.06C147.822 189.832 148.217 189.661 148.668 189.661H152.503C152.954 189.661 153.349 189.832 153.349 190.06C153.349 190.287 152.954 190.458 152.503 190.458Z" fill="#E2D7FF"/> <path d="M161.64 190.458H157.805C157.354 190.458 156.959 190.287 156.959 190.06C156.959 189.832 157.354 189.661 157.805 189.661H161.64C162.091 189.661 162.486 189.832 162.486 190.06C162.43 190.287 162.091 190.458 161.64 190.458Z" fill="#E2D7FF"/> <path d="M170.72 190.515H166.885C166.434 190.515 166.039 190.344 166.039 190.116C166.039 189.889 166.434 189.718 166.885 189.718H170.72C171.171 189.718 171.566 189.889 171.566 190.116C171.566 190.344 171.171 190.515 170.72 190.515Z" fill="#E2D7FF"/> <path d="M179.857 190.515H176.022C175.571 190.515 175.176 190.344 175.176 190.116C175.176 189.889 175.571 189.718 176.022 189.718H179.857C180.308 189.718 180.703 189.889 180.703 190.116C180.646 190.344 180.308 190.515 179.857 190.515Z" fill="#E2D7FF"/> <path d="M41.4534 190.173H37.6182C37.167 190.173 36.7722 190.003 36.7722 189.775C36.7722 189.547 37.167 189.376 37.6182 189.376H41.4534C41.9046 189.376 42.2994 189.547 42.2994 189.775C42.2994 190.003 41.9046 190.173 41.4534 190.173Z" fill="#E2D7FF"/> <path d="M50.5336 190.23H46.6985C46.2473 190.23 45.8525 190.059 45.8525 189.832C45.8525 189.604 46.2473 189.433 46.6985 189.433H50.5336C50.9848 189.433 51.3796 189.604 51.3796 189.832C51.3796 190.059 50.9848 190.23 50.5336 190.23Z" fill="#E2D7FF"/> <path d="M59.6703 190.23H55.8352C55.384 190.23 54.9892 190.059 54.9892 189.832C54.9892 189.604 55.384 189.433 55.8352 189.433H59.6703C60.1215 189.433 60.5163 189.604 60.5163 189.832C60.4599 190.059 60.1215 190.23 59.6703 190.23Z" fill="#E2D7FF"/> <path d="M68.7506 190.287H64.9154C64.4642 190.287 64.0694 190.116 64.0694 189.889C64.0694 189.661 64.4642 189.49 64.9154 189.49H68.7506C69.2018 189.49 69.5965 189.661 69.5965 189.889C69.5965 190.116 69.2018 190.287 68.7506 190.287Z" fill="#E2D7FF"/> <path d="M77.8872 190.287H74.0521C73.6009 190.287 73.2061 190.116 73.2061 189.889C73.2061 189.661 73.6009 189.49 74.0521 189.49H77.8872C78.3384 189.49 78.7332 189.661 78.7332 189.889C78.6768 190.116 78.3384 190.344 77.8872 190.287Z" fill="#E2D7FF"/> <path d="M86.9675 190.344H83.1323C82.6811 190.344 82.2863 190.173 82.2863 189.946C82.2863 189.718 82.6811 189.547 83.1323 189.547H86.9675C87.4187 189.547 87.8135 189.718 87.8135 189.946C87.8135 190.173 87.4187 190.344 86.9675 190.344Z" fill="#E2D7FF"/> <path d="M96.1041 190.401H92.269C91.8178 190.401 91.423 190.23 91.423 190.003C91.423 189.775 91.8178 189.604 92.269 189.604H96.1041C96.5553 189.604 96.9501 189.775 96.9501 190.003C96.8937 190.173 96.5553 190.401 96.1041 190.401Z" fill="#E2D7FF"/> <path d="M105.184 190.401H101.349C100.898 190.401 100.503 190.23 100.503 190.003C100.503 189.775 100.898 189.604 101.349 189.604H105.184C105.636 189.604 106.03 189.775 106.03 190.003C106.03 190.23 105.636 190.401 105.184 190.401Z" fill="#E2D7FF"/> <path d="M180.534 198.484L183.861 196.549C184.256 196.321 184.651 196.264 184.764 196.492C184.876 196.662 184.651 197.004 184.256 197.232L180.928 199.167C180.534 199.395 180.139 199.452 180.026 199.224C179.913 199.053 180.195 198.712 180.534 198.484Z" fill="#E2D7FF"/> <path d="M172.694 203.094L176.022 201.159C176.416 200.931 176.811 200.875 176.924 201.102C177.037 201.273 176.811 201.615 176.416 201.842L173.089 203.778C172.694 204.005 172.299 204.062 172.187 203.834C172.074 203.664 172.299 203.322 172.694 203.094Z" fill="#E2D7FF"/> <path d="M144.777 175.488L148.104 173.552C148.499 173.325 148.894 173.268 149.007 173.496C149.119 173.666 148.894 174.008 148.499 174.236L145.171 176.171C144.777 176.399 144.382 176.455 144.269 176.228C144.156 176.057 144.382 175.715 144.777 175.488Z" fill="#E2D7FF"/> <path d="M136.881 180.098L140.208 178.163C140.603 177.935 140.998 177.878 141.111 178.106C141.223 178.277 140.998 178.618 140.603 178.846L137.275 180.781C136.881 181.009 136.486 181.066 136.373 180.838C136.26 180.668 136.486 180.326 136.881 180.098Z" fill="#E2D7FF"/> <path d="M195.254 197.971L208 190.572V185.449L195.254 192.905V197.971Z" fill="#D4C5FF"/> <path d="M195.254 197.972L182.564 190.572V185.506L195.254 192.906V197.972Z" fill="#D4C5FF"/> <path d="M195.254 192.905L208 185.449L195.31 178.049L182.564 185.506L195.254 192.905Z" fill="#CCB9FF"/> <path d="M195.254 192.109L208 184.652V179.586L195.254 187.043V192.109Z" fill="#D4C5FF"/> <path d="M195.254 192.109L182.564 184.709V179.643L195.254 187.043V192.109Z" fill="#D4C5FF"/> <path d="M195.254 187.043L208 179.586L195.31 172.186L182.564 179.643L195.254 187.043Z" fill="#EBE4FF"/> <path d="M195.254 185.506L205.349 179.586L195.31 173.723L185.158 179.643L195.254 185.506Z" fill="#CCB9FF"/> <path d="M195.254 183.115L205.349 177.252V172.186L195.254 178.049V183.115Z" fill="#D4C5FF"/> <path d="M195.254 183.115L185.158 177.309V172.186L195.254 178.049V183.115Z" fill="#D4C5FF"/> <path d="M195.254 178.049L205.349 172.186L195.31 166.323L185.158 172.186L195.254 178.049Z" fill="#EBE4FF"/> <path d="M191.137 172.186L195.254 174.634L199.427 172.186L195.31 169.796L191.137 172.186Z" fill="white"/> <path d="M157.072 175.431L144.325 168.031V162.965L157.072 170.365V175.431Z" fill="#D4C5FF"/> <path d="M157.072 170.365V175.431L169.818 167.974V162.908L157.072 170.365Z" fill="#D4C5FF"/> <path d="M144.325 162.965L157.072 170.365L169.818 162.908L157.128 155.508L144.325 162.965Z" fill="#CCB9FF"/> <path d="M157.072 169.568L144.325 162.168V157.102L157.072 164.502V169.568Z" fill="#D4C5FF"/> <path d="M157.072 164.502V169.568L169.818 162.111V157.045L157.072 164.502Z" fill="#D4C5FF"/> <path d="M144.325 157.102L157.072 164.502L169.818 157.045L157.128 149.646L144.325 157.102Z" fill="#EBE4FF"/> <path d="M151.883 157.045L157.072 160.119L162.317 157.045L157.128 154.028L151.883 157.045Z" fill="white"/> <path d="M44.1605 64.2637L2.03036 88.7967L3.10195 90.5612L21.2061 92.4396L24.9848 90.2197L43.1453 67.2236L44.1605 64.2637Z" fill="#96802F"/> <path d="M6.4295 90.5044V97.1072L14.1562 92.8951L12.3514 85.9507L6.4295 90.5044Z" fill="#D4C5FF"/> <path d="M20.4729 59.027L24.2516 56.8071L44.1605 64.2638L2.03036 88.7968L20.4729 59.027Z" fill="#C6A93E"/> <path d="M24.7028 127.332C25.0976 127.332 25.4924 127.218 25.7744 127.048L45.1757 115.777C45.5705 115.55 45.8525 115.151 45.8525 114.696C45.8525 114.24 45.5705 113.785 45.0629 113.5L43.8221 112.76C43.4273 112.533 42.9761 112.419 42.525 112.419C42.1302 112.419 41.7354 112.533 41.4534 112.704L21.9957 124.031C21.6009 124.259 21.3189 124.657 21.3189 125.112C21.3189 125.568 21.6009 126.023 22.1085 126.308L23.3492 127.048C23.744 127.218 24.1952 127.332 24.7028 127.332Z" fill="#C4D3ED"/> <path d="M3.32755 127.731C3.72234 127.731 4.11714 127.617 4.39913 127.446L23.8004 116.176C24.1952 115.948 24.4772 115.55 24.4772 115.094C24.4772 114.639 24.1952 114.183 23.6876 113.899L22.4469 113.159C22.0521 112.931 21.6009 112.817 21.1497 112.817C20.7549 112.817 20.3601 112.931 20.0781 113.102L0.67679 124.372C0.225597 124.657 0 124.998 0 125.454C0 125.909 0.281996 126.365 0.789588 126.649L2.03037 127.389C2.36876 127.617 2.87636 127.731 3.32755 127.731Z" fill="#C4D3ED"/> <path d="M43.1453 67.2236L24.9848 90.2197L21.2061 92.4396L3.10195 90.5612L2.03036 88.7967V117.371L44.1605 92.7811V64.2637L43.1453 67.2236Z" fill="#DCB524"/> <path d="M21.2061 92.4396L24.9848 90.2197L44.1605 92.7812L2.03036 117.371L21.2061 92.4396Z" fill="#FFD740"/> <path d="M26.6204 119.477L49.5748 106.101L49.744 105.987C50.308 105.645 50.6464 105.019 50.6464 104.279L47.6573 106.044L27.5228 117.77C27.5792 118.51 27.1844 119.136 26.6204 119.477Z" fill="#D4C5FF"/> <path d="M15.9046 96.3672L22.2213 92.6674V72.9727C22.2213 72.8588 22.2213 72.6881 22.1649 72.5742C22.1085 71.8343 21.8265 71.1512 21.3753 70.5251C21.2625 70.2974 21.0933 70.1266 20.8677 69.9559C20.6421 69.7282 20.3601 69.5005 20.0217 69.3297L19.7961 69.2159C19.1757 68.8744 18.4989 68.8744 17.9913 69.102L17.6529 69.2728C17.1454 69.6143 16.807 70.1835 16.807 70.9235V94.4888C16.9198 95.2857 16.525 95.9688 15.9046 96.3672Z" fill="#D4C5FF"/> <path d="M6.4295 89.1953V90.5045L10.4338 88.1707C10.2082 87.943 9.92625 87.7153 9.64426 87.5446L9.41866 87.4307C8.79827 87.0892 8.06508 87.0892 7.50109 87.3738L7.44469 87.4307C6.8807 87.7723 6.4295 88.3984 6.4295 89.1953Z" fill="#D4C5FF"/> <path d="M18.1041 69.1021C18.6681 68.8175 19.3449 68.8175 19.9089 69.216L20.1345 69.3298C20.4165 69.5006 20.6985 69.7283 20.9805 69.956C21.1497 70.1267 21.3189 70.3544 21.4881 70.5252C21.9393 71.1513 22.1649 71.8344 22.2777 72.5743C22.2777 72.6882 22.3341 72.8589 22.3341 72.9728V92.6675L22.2777 115.664C22.2777 117.2 23.0673 118.567 24.3644 119.363L24.59 119.534C25.2668 119.933 26 119.876 26.564 119.534L26.6768 119.477C27.2408 119.136 27.5792 118.51 27.5792 117.77L47.7137 106.044L47.4881 105.873C46.1909 105.133 45.4013 103.71 45.4013 102.173L45.4577 59.4825C45.4577 57.9456 44.6681 56.5226 43.3709 55.7826L43.1453 55.6688C42.4686 55.2703 41.7354 55.3272 41.115 55.6688L40.9458 55.7826L18.1041 69.1021Z" fill="#EBF2F9"/> <path d="M7.5011 87.3738C8.06509 87.0892 8.79828 87.0323 9.41867 87.4307L9.64427 87.5446C9.92626 87.7153 10.2083 87.8861 10.4339 88.1707C11.2798 88.9676 11.731 90.0491 11.731 91.2444V93.3505C11.731 94.6028 12.3514 95.7412 13.423 96.4243C13.8178 96.6519 14.2126 96.7658 14.6074 96.7658C15.0022 96.7658 15.397 96.6519 15.7354 96.4812C15.7918 96.4812 15.7918 96.4243 15.8482 96.4243C16.4686 96.0258 16.8634 95.3428 16.8634 94.4889V81.9663L7.5011 87.3738Z" fill="#EBE4FF"/> <path d="M28.6508 79.348L39.9306 72.8021C40.269 72.6313 40.4946 72.119 40.4946 71.6636C40.4946 71.2083 40.2126 71.0375 39.9306 71.2083L28.6508 77.7542C28.3124 77.925 28.0868 78.4372 28.0868 78.8926C28.0868 79.2911 28.3124 79.5187 28.6508 79.348Z" fill="#CFD8DB"/> <path d="M26.3384 88.6261L42.243 79.3479C42.5813 79.1772 42.8069 78.6649 42.8069 78.2095C42.8069 77.7542 42.5249 77.5834 42.243 77.7542L26.3384 87.0323C26 87.2031 25.7744 87.7153 25.7744 88.1707C25.718 88.6261 26 88.7968 26.3384 88.6261Z" fill="#CFD8DB"/> <path d="M26.3384 95.9689L42.243 86.6907C42.5813 86.52 42.8069 86.0077 42.8069 85.5523C42.8069 85.0969 42.5249 84.9262 42.243 85.0969L26.3384 94.3751C26 94.5458 25.7744 95.0581 25.7744 95.5135C25.718 95.9689 26 96.1396 26.3384 95.9689Z" fill="#CFD8DB"/> <path d="M26.3384 92.2691L38.9154 84.9832C39.2538 84.8124 39.4794 84.3002 39.4794 83.8448C39.4794 83.3894 39.1974 83.2187 38.9154 83.3894L26.3384 90.7322C26 90.903 25.7744 91.4153 25.7744 91.8707C25.718 92.2691 26 92.4968 26.3384 92.2691Z" fill="#CFD8DB"/> <path d="M26.3384 99.6689L31.1887 96.8228C31.5271 96.652 31.7527 96.1398 31.7527 95.6844C31.7527 95.229 31.4707 95.0583 31.1887 95.229L26.3384 98.0751C26 98.2458 25.7744 98.7581 25.7744 99.2135C25.718 99.6119 26 99.8396 26.3384 99.6689Z" fill="#CFD8DB"/> <path d="M41.115 97.5626C41.0022 98.758 40.551 100.067 39.8178 101.376C39.0846 102.686 38.1822 103.71 37.2234 104.393L35.9262 106.67L34.5727 105.873C32.7679 104.792 32.7679 101.376 34.5727 98.2457C36.3774 95.115 39.3102 93.4074 41.115 94.432L42.4685 95.2289L41.115 97.5626Z" fill="#5EC134"/> <path d="M35.9262 99.0425C34.1215 102.173 34.1215 105.645 35.9262 106.67C37.731 107.751 40.6638 106.044 42.4685 102.856C44.2733 99.7256 44.2733 96.2534 42.4685 95.2288C40.6638 94.2043 37.731 95.9119 35.9262 99.0425Z" fill="#5EC134"/> <path d="M37.9566 104.222L38.4078 104.507C38.4078 104.507 38.3514 104.507 38.3514 104.45L37.9002 104.166C37.9566 104.166 37.9566 104.166 37.9566 104.222Z" fill="#C6C0D0"/> <path d="M42.4122 98.018L41.961 97.7334C41.7918 97.6196 41.6226 97.6765 41.397 97.7904C41.2278 97.9042 41.0022 98.075 40.833 98.3596L41.2842 98.6442C41.4534 98.4165 41.6226 98.1888 41.8482 98.075C42.0738 97.9611 42.2994 97.9611 42.4122 98.018Z" fill="#EBE4FF"/> <path d="M41.3406 98.6442L40.8894 98.3596L38.7462 101.889L39.1974 102.173L41.3406 98.6442Z" fill="#EBE4FF"/> <path d="M37.0542 103.369L36.603 103.084L37.9002 104.165L38.4078 104.45L37.0542 103.369Z" fill="#EBE4FF"/> <path d="M38.2386 101.433L37.7874 101.149C37.6182 101.035 37.449 101.092 37.2234 101.206L37.6746 101.49C37.9002 101.376 38.1258 101.319 38.2386 101.433Z" fill="#EBE4FF"/> <path d="M37.6746 101.49L37.2234 101.206C37.0542 101.319 36.885 101.49 36.7158 101.718C36.3774 102.23 36.321 102.856 36.603 103.084L37.0542 103.369C36.7722 103.141 36.8286 102.515 37.167 102.002C37.3362 101.775 37.5054 101.604 37.6746 101.49Z" fill="#EBE4FF"/> <path d="M37.6746 101.49C37.5054 101.604 37.3362 101.775 37.167 102.002C36.8286 102.515 36.7722 103.141 37.0542 103.369L38.3514 104.45C38.5206 104.621 38.8026 104.564 39.0846 104.45C39.3102 104.336 39.5358 104.109 39.705 103.824L42.3558 99.4979C42.6942 98.9857 42.6942 98.3595 42.4122 98.1318C42.243 98.018 42.0174 98.018 41.7918 98.1888C41.6226 98.3026 41.397 98.4734 41.2278 98.758L39.0846 102.287L38.2386 101.604C38.1258 101.319 37.9002 101.319 37.6746 101.49Z" fill="white"/> <path d="M15.7917 96.4254L15.9072 96.3674C15.8495 96.4254 15.8495 96.4254 15.7917 96.4254Z" fill="#EBF2F9"/> <defs> <linearGradient id="paint0_linear_70_615" x1="18.192" y1="148.776" x2="106.777" y2="148.776" gradientUnits="userSpaceOnUse"> <stop stop-color="#BFA8FF"/> <stop offset="1" stop-color="#CCB9FF"/> </linearGradient> <linearGradient id="paint1_linear_70_615" x1="53.7928" y1="164.167" x2="71.4146" y2="133.925" gradientUnits="userSpaceOnUse"> <stop offset="0.451" stop-color="#AE99E8"/> <stop offset="1" stop-color="#CCB9FF"/> </linearGradient> <linearGradient id="paint2_linear_70_615" x1="149.322" y1="143.07" x2="160.06" y2="124.643" gradientUnits="userSpaceOnUse"> <stop offset="0.134" stop-color="#E8E8E9"/> <stop offset="0.5799" stop-color="#D1D1D4"/> <stop offset="1" stop-color="#C9C9CD"/> </linearGradient> <linearGradient id="paint3_linear_70_615" x1="189.32" y1="119.605" x2="219.822" y2="67.2574" gradientUnits="userSpaceOnUse"> <stop offset="0.1649" stop-color="#818489"/> <stop offset="1" stop-color="#B7B9BD"/> </linearGradient> <linearGradient id="paint4_linear_70_615" x1="116.864" y1="89.7622" x2="194.56" y2="45.3153" gradientUnits="userSpaceOnUse"> <stop offset="0.064433" stop-color="#BBBDBF"/> <stop offset="0.7397" stop-color="#C7C9CB"/> </linearGradient> <linearGradient id="paint5_linear_70_615" x1="146.84" y1="72.2926" x2="195.51" y2="44.4504" gradientUnits="userSpaceOnUse"> <stop offset="0.2139" stop-color="#989A9F"/> <stop offset="1" stop-color="#B7B9BD"/> </linearGradient> <linearGradient id="paint6_linear_70_615" x1="135.384" y1="44.1116" x2="183.337" y2="16.6796" gradientUnits="userSpaceOnUse"> <stop stop-color="#818489"/> <stop offset="0.433" stop-color="#B7B9BD"/> </linearGradient> <linearGradient id="paint7_linear_70_615" x1="118.745" y1="84.6043" x2="190.135" y2="43.7654" gradientUnits="userSpaceOnUse"> <stop offset="0.2758" stop-color="#BFA8FF"/> <stop offset="1" stop-color="#D4C5FF"/> </linearGradient> <linearGradient id="paint8_linear_70_615" x1="137.595" y1="85.8301" x2="163.143" y2="41.9864" gradientUnits="userSpaceOnUse"> <stop stop-color="#EAECEF"/> <stop offset="0.6675" stop-color="#F2F2F2"/> </linearGradient> <linearGradient id="paint9_linear_70_615" x1="96.2937" y1="145.193" x2="105.16" y2="146.272" gradientUnits="userSpaceOnUse"> <stop stop-color="#4E5468"/> <stop offset="0.1108" stop-color="#4E5468"/> <stop offset="0.2655" stop-color="#797E8D"/> <stop offset="0.3476" stop-color="#707585"/> <stop offset="0.4801" stop-color="#585E71"/> <stop offset="0.5284" stop-color="#4E5468"/> </linearGradient> <linearGradient id="paint10_linear_70_615" x1="102.256" y1="118.216" x2="110.921" y2="120.198" gradientUnits="userSpaceOnUse"> <stop offset="0.0231959" stop-color="#BCC6C4"/> <stop offset="0.2345" stop-color="#DCE1E0"/> <stop offset="0.3479" stop-color="#DDE2E1"/> <stop offset="0.4001" stop-color="#D5DBDA"/> <stop offset="0.7923" stop-color="#9EACAA"/> <stop offset="0.982" stop-color="#889A97"/> </linearGradient> <linearGradient id="paint11_linear_70_615" x1="114.852" y1="93.1668" x2="116.214" y2="92.3877" gradientUnits="userSpaceOnUse"> <stop offset="0.3119" stop-color="#DCE1E0"/> <stop offset="0.9768" stop-color="#B3BFBC"/> </linearGradient> <linearGradient id="paint12_linear_70_615" x1="109.609" y1="94.5429" x2="114.708" y2="91.6257" gradientUnits="userSpaceOnUse"> <stop offset="0.0231959" stop-color="#BEC8C6"/> <stop offset="0.6881" stop-color="#DCE1E0"/> </linearGradient> <linearGradient id="paint13_linear_70_615" x1="112.375" y1="91.997" x2="113.747" y2="89.6415" gradientUnits="userSpaceOnUse"> <stop offset="0.0231959" stop-color="#BEC8C6"/> <stop offset="0.9046" stop-color="#D6DCDB"/> </linearGradient> <linearGradient id="paint14_linear_70_615" x1="107.824" y1="94.9228" x2="115.981" y2="96.7889" gradientUnits="userSpaceOnUse"> <stop offset="0.0231959" stop-color="#BCC6C4"/> <stop offset="0.2345" stop-color="#DCE1E0"/> <stop offset="0.3479" stop-color="#DDE2E1"/> <stop offset="0.4001" stop-color="#D5DBDA"/> <stop offset="0.7923" stop-color="#9EACAA"/> <stop offset="0.982" stop-color="#889A97"/> </linearGradient> <linearGradient id="paint15_linear_70_615" x1="152.806" y1="87.8381" x2="136.788" y2="60.3489" gradientUnits="userSpaceOnUse"> <stop offset="0.2088" stop-color="#31374E"/> <stop offset="0.5902" stop-color="#4B5264"/> <stop offset="0.9407" stop-color="#454B60"/> </linearGradient> <linearGradient id="paint16_linear_70_615" x1="121.938" y1="123.054" x2="98.6994" y2="83.1729" gradientUnits="userSpaceOnUse"> <stop stop-color="#FF7D50"/> <stop offset="0.3737" stop-color="#FF9874"/> <stop offset="0.817" stop-color="#FFBBA3"/> </linearGradient> <linearGradient id="paint17_linear_70_615" x1="100.711" y1="143.157" x2="128.607" y2="95.2832" gradientUnits="userSpaceOnUse"> <stop offset="0.183" stop-color="#FFA98A"/> <stop offset="0.6881" stop-color="#FFA484"/> </linearGradient> <linearGradient id="paint18_linear_70_615" x1="115.328" y1="131.675" x2="92.0698" y2="91.7596" gradientUnits="userSpaceOnUse"> <stop offset="0.1727" stop-color="#FF9C78"/> <stop offset="0.817" stop-color="#FFBBA3"/> </linearGradient> <linearGradient id="paint19_linear_70_615" x1="102.8" y1="115.839" x2="111.442" y2="117.816" gradientUnits="userSpaceOnUse"> <stop offset="0.0231959" stop-color="#BCC6C4"/> <stop offset="0.2345" stop-color="#DCE1E0"/> <stop offset="0.3479" stop-color="#DDE2E1"/> <stop offset="0.4001" stop-color="#D5DBDA"/> <stop offset="0.7923" stop-color="#9EACAA"/> <stop offset="0.982" stop-color="#889A97"/> </linearGradient> <linearGradient id="paint20_linear_70_615" x1="111.295" y1="91.0625" x2="115.384" y2="95.9618" gradientUnits="userSpaceOnUse"> <stop stop-color="#DCE1E0"/> <stop offset="0.5232" stop-color="#BEC8C6"/> <stop offset="1" stop-color="#8C9D9A"/> </linearGradient> <linearGradient id="paint21_linear_70_615" x1="107.824" y1="94.9228" x2="115.981" y2="96.7889" gradientUnits="userSpaceOnUse"> <stop offset="0.0231959" stop-color="#BCC6C4"/> <stop offset="0.2345" stop-color="#DCE1E0"/> <stop offset="0.3479" stop-color="#DDE2E1"/> <stop offset="0.4001" stop-color="#D5DBDA"/> <stop offset="0.7923" stop-color="#9EACAA"/> <stop offset="0.982" stop-color="#889A97"/> </linearGradient> </defs> </svg>