<svg width="80" height="80" viewBox="0 0 80 80" fill="none" xmlns="http://www.w3.org/2000/svg">
<path d="M39.9949 0C38.0261 0 36.0585 0.755883 34.5638 2.25054L31.6277 5.18655C28.9759 7.83834 25.3777 9.32216 21.6275 9.32217H16.9954C12.7678 9.32216 9.31373 12.7762 9.31373 17.0037V20.406V21.6384C9.31373 25.3886 7.82982 28.9842 5.17803 31.6359L2.24199 34.572C-0.747329 37.5613 -0.747329 42.4497 2.24199 45.4391L5.17803 48.3751C7.82982 51.0269 9.31373 54.6199 9.31373 58.3701V63.0048C9.31373 67.2323 12.7678 70.6863 16.9954 70.6863H21.6275C25.3777 70.6863 28.9759 72.1727 31.6277 74.8245L34.5638 77.758C37.5531 80.7473 42.4367 80.7473 45.426 77.758L48.3645 74.8245C51.0163 72.1727 54.612 70.6863 58.3622 70.6863H62.9944C67.2219 70.6863 70.676 67.2323 70.676 63.0048V58.3701C70.676 54.6199 72.1725 51.0269 74.8243 48.3751L77.7578 45.4391C80.7471 42.4497 80.7471 37.5613 77.7578 34.572L74.8243 31.6359C72.1725 28.9841 70.676 25.3886 70.676 21.6384V17.0037C70.676 12.7762 67.2219 9.32216 62.9944 9.32217H58.3622C54.612 9.32217 51.0163 7.83835 48.3645 5.18655L45.426 2.25054C43.9313 0.755878 41.9636 4.87687e-06 39.9949 0Z" fill="#BFA8FF"/>
<path d="M39.9947 4.77637C38.261 4.77637 36.5284 5.442 35.2122 6.75818L32.6267 9.34362C30.2915 11.6788 27.1229 12.9854 23.8205 12.9854H19.7414C16.0187 12.9854 12.977 16.027 12.977 19.7498V22.7458V23.831C12.977 27.1335 11.6703 30.2997 9.33515 32.6349L6.74968 35.2204C4.1173 37.8527 4.1173 42.1575 6.74968 44.7899L9.33515 47.3753C11.6703 49.7105 12.977 52.8745 12.977 56.1769V60.2582C12.977 63.981 16.0187 67.0225 19.7414 67.0225H23.8205C27.1229 67.0225 30.2915 68.3314 32.6267 70.6666L35.2122 73.2498C37.8446 75.8822 42.145 75.8822 44.7774 73.2498L47.3651 70.6666C49.7002 68.3314 52.8666 67.0225 56.169 67.0225H60.2481C63.9708 67.0225 67.0125 63.981 67.0125 60.2582V56.1769C67.0125 52.8745 68.3303 49.7105 70.6654 47.3753L73.2487 44.7899C75.8811 42.1575 75.8811 37.8528 73.2487 35.2204L70.6654 32.6349C68.3303 30.2997 67.0125 27.1335 67.0125 23.831V19.7498C67.0125 16.027 63.9708 12.9854 60.2481 12.9854H56.169C52.8666 12.9854 49.7002 11.6788 47.3651 9.34362L44.7774 6.75818C43.4612 5.44199 41.7284 4.77637 39.9947 4.77637Z" fill="#7012E3"/>
<path fill-rule="evenodd" clip-rule="evenodd" d="M50.9729 31.4682C51.537 31.9617 51.5882 32.8216 51.0864 33.3784L36.9631 49.0544C36.4588 49.6142 35.5929 49.6498 35.0443 49.1334L26.8717 41.4395C26.362 40.9597 26.3132 40.1602 26.7505 39.6136C27.233 39.0104 28.1316 38.9274 28.7058 39.4439L35.0467 45.1474C35.5977 45.6431 36.4461 45.5988 36.9426 45.0484L49.0907 31.5793C49.5822 31.0342 50.4206 30.9848 50.9729 31.4682Z" fill="white"/>
</svg>
