<svg width="80" height="80" viewBox="0 0 80 80" fill="none" xmlns="http://www.w3.org/2000/svg">
<path d="M39.9949 0C38.0261 0 36.0585 0.755883 34.5638 2.25054L31.6277 5.18655C28.9759 7.83834 25.3777 9.32216 21.6275 9.32217H16.9954C12.7678 9.32216 9.31373 12.7762 9.31373 17.0037V20.406V21.6384C9.31373 25.3886 7.82982 28.9842 5.17803 31.6359L2.24199 34.572C-0.747329 37.5613 -0.747329 42.4497 2.24199 45.4391L5.17803 48.3751C7.82982 51.0269 9.31373 54.6199 9.31373 58.3701V63.0048C9.31373 67.2323 12.7678 70.6863 16.9954 70.6863H21.6275C25.3777 70.6863 28.9759 72.1727 31.6277 74.8245L34.5638 77.758C37.5531 80.7473 42.4367 80.7473 45.426 77.758L48.3645 74.8245C51.0163 72.1727 54.612 70.6863 58.3622 70.6863H62.9944C67.2219 70.6863 70.676 67.2323 70.676 63.0048V58.3701C70.676 54.6199 72.1725 51.0269 74.8243 48.3751L77.7578 45.4391C80.7471 42.4497 80.7471 37.5613 77.7578 34.572L74.8243 31.6359C72.1725 28.9841 70.676 25.3886 70.676 21.6384V17.0037C70.676 12.7762 67.2219 9.32216 62.9944 9.32217H58.3622C54.612 9.32217 51.0163 7.83835 48.3645 5.18655L45.426 2.25054C43.9313 0.755878 41.9636 4.87687e-06 39.9949 0Z" fill="#BFA8FF"/>
<path d="M39.9957 4.77612C38.262 4.77612 36.5293 5.44175 35.2131 6.75794L32.6276 9.34338C30.2925 11.6785 27.1239 12.9852 23.8215 12.9852H19.7424C16.0197 12.9852 12.978 16.0268 12.978 19.7496V22.7456V23.8308C12.978 27.1332 11.6713 30.2995 9.33612 32.6346L6.75065 35.2201C4.11827 37.8525 4.11827 42.1572 6.75065 44.7896L9.33612 47.3751C11.6713 49.7102 12.978 52.8743 12.978 56.1767V60.2579C12.978 63.9807 16.0197 67.0223 19.7424 67.0223H23.8215C27.1239 67.0223 30.2925 68.3312 32.6276 70.6663L35.2131 73.2496C37.8455 75.882 42.146 75.882 44.7783 73.2496L47.366 70.6663C49.7012 68.3312 52.8676 67.0223 56.17 67.0223H60.2491C63.9718 67.0223 67.0135 63.9807 67.0135 60.2579V56.1767C67.0135 52.8742 68.3313 49.7102 70.6664 47.3751L73.2497 44.7896C75.882 42.1572 75.882 37.8525 73.2497 35.2201L70.6664 32.6346C68.3313 30.2995 67.0135 27.1332 67.0135 23.8308V19.7496C67.0135 16.0268 63.9718 12.9852 60.2491 12.9852H56.17C52.8676 12.9852 49.7012 11.6786 47.366 9.34338L44.7783 6.75794C43.4621 5.44175 41.7294 4.77613 39.9957 4.77612Z" fill="#7012E3"/>
<path fill-rule="evenodd" clip-rule="evenodd" d="M50.9732 31.4683C51.5372 31.9619 51.5884 32.8217 51.0867 33.3785L36.9634 49.0545C36.4591 49.6143 35.5931 49.6499 35.0446 49.1335L26.8719 41.4396C26.3623 40.9598 26.3135 40.1603 26.7507 39.6137C27.2333 39.0106 28.1318 38.9275 28.706 39.444L35.0469 45.1476C35.598 45.6432 36.4464 45.5989 36.9428 45.0486L49.0909 31.5794C49.5825 31.0344 50.4208 30.985 50.9732 31.4683Z" fill="white"/>
</svg>
