<svg width="18" height="20" viewBox="0 0 18 20" fill="none" xmlns="http://www.w3.org/2000/svg">
<path d="M6.00012 18.75H12.0001C12.0664 18.75 12.13 18.7764 12.1769 18.8232C12.2237 18.8701 12.2501 18.9337 12.2501 19C12.2501 19.0663 12.2237 19.1299 12.1769 19.1768C12.13 19.2236 12.0664 19.25 12.0001 19.25H6.00012C5.93384 19.25 5.87024 19.2236 5.82336 19.1768C5.77648 19.1299 5.75012 19.0663 5.75012 19C5.75012 18.9337 5.77648 18.8701 5.82336 18.8232C5.87024 18.7764 5.93384 18.75 6.00012 18.75ZM9.00012 0.75C10.7405 0.750027 12.4143 1.39793 13.6984 2.56055L13.9493 2.7998C15.2621 4.11256 16.0001 5.89348 16.0001 7.75C16.0001 10.9073 16.6884 13.4174 17.2521 14.54L17.3624 14.7461C17.4503 14.8968 17.4975 15.0692 17.4982 15.2461C17.4988 15.4218 17.4527 15.5947 17.3654 15.7471C17.2779 15.8995 17.1521 16.027 17.0001 16.1152C16.8481 16.2034 16.6749 16.2498 16.4991 16.25H1.50012L1.36926 16.2412C1.23954 16.224 1.11411 16.1812 1.00012 16.1152C0.886018 16.0491 0.785731 15.9615 0.706177 15.8574L0.633911 15.748C0.568302 15.6337 0.525656 15.5078 0.508911 15.3779L0.501099 15.2461C0.501613 15.1146 0.527855 14.9848 0.578247 14.8643L0.636841 14.7461L0.637817 14.7451C1.21627 13.7485 2.00012 11.1185 2.00012 7.75C2.00012 6.00956 2.64803 4.33583 3.81067 3.05176L4.04993 2.7998C5.36268 1.48708 7.14363 0.75 9.00012 0.75Z" stroke="#1C1C1C"/>
</svg>
