<svg width="22" height="18" viewBox="0 0 22 18" fill="none" xmlns="http://www.w3.org/2000/svg">
<path d="M15.4712 12.2019H1.97116C1.35091 12.2019 0.846161 11.6971 0.846161 11.0769V3.60571C0.846161 2.98546 1.35091 2.48071 1.97116 2.48071H15.4712C16.0914 2.48071 16.5962 2.98546 16.5962 3.60571V11.0769C16.5962 11.6971 16.0914 12.2019 15.4712 12.2019ZM1.97116 2.85571C1.55754 2.85571 1.22116 3.19209 1.22116 3.60571V11.0769C1.22116 11.4905 1.55754 11.8269 1.97116 11.8269H15.4712C15.8848 11.8269 16.2212 11.4905 16.2212 11.0769V3.60571C16.2212 3.19209 15.8848 2.85571 15.4712 2.85571H1.97116Z" fill="#1C1C1C"/>
<path d="M17.3462 14.0769H3.47116C2.85091 14.0769 2.34616 13.5721 2.34616 12.9519V12.7644C2.34616 12.6609 2.43016 12.5769 2.53366 12.5769C2.63716 12.5769 2.72116 12.6609 2.72116 12.7644V12.9519C2.72116 13.3655 3.05754 13.7019 3.47116 13.7019H17.3462C17.7598 13.7019 18.0962 13.3655 18.0962 12.9519V5.48071C18.0962 5.06709 17.7598 4.73071 17.3462 4.73071H17.1587C17.0552 4.73071 16.9712 4.64671 16.9712 4.54321C16.9712 4.43971 17.0552 4.35571 17.1587 4.35571H17.3462C17.9664 4.35571 18.4712 4.86046 18.4712 5.48071V12.9519C18.4712 13.5721 17.9664 14.0769 17.3462 14.0769Z" fill="#1C1C1C"/>
<path d="M18.8462 1.35571H17.3462C17.2427 1.35571 17.1587 1.27171 17.1587 1.16821C17.1587 1.06471 17.2427 0.980713 17.3462 0.980713H18.8462C18.9497 0.980713 19.0337 1.06471 19.0337 1.16821C19.0337 1.27171 18.9497 1.35571 18.8462 1.35571Z" fill="#5EC134"/>
<path d="M18.0962 2.10571C17.9927 2.10571 17.9087 2.02171 17.9087 1.91821V0.418213C17.9087 0.314713 17.9927 0.230713 18.0962 0.230713C18.1997 0.230713 18.2837 0.314713 18.2837 0.418213V1.91821C18.2837 2.02171 18.1997 2.10571 18.0962 2.10571Z" fill="#5EC134"/>
<path d="M20.9087 3.41821H19.4087C19.3052 3.41821 19.2212 3.33421 19.2212 3.23071C19.2212 3.12721 19.3052 3.04321 19.4087 3.04321H20.9087C21.0122 3.04321 21.0962 3.12721 21.0962 3.23071C21.0962 3.33421 21.0122 3.41821 20.9087 3.41821Z" fill="#5EC134"/>
<path d="M20.1587 4.16821C20.0552 4.16821 19.9712 4.08421 19.9712 3.98071V2.48071C19.9712 2.37721 20.0552 2.29321 20.1587 2.29321C20.2622 2.29321 20.3462 2.37721 20.3462 2.48071V3.98071C20.3462 4.08421 20.2622 4.16821 20.1587 4.16821Z" fill="#5EC134"/>
<path d="M14.5097 6.23071H8.32217C8.21867 6.23071 8.13467 6.14671 8.13467 6.04321C8.13467 5.93971 8.21867 5.85571 8.32217 5.85571H14.5097C14.6132 5.85571 14.6972 5.93971 14.6972 6.04321C14.6972 6.14671 14.6132 6.23071 14.5097 6.23071Z" fill="#1C1C1C"/>
<path d="M12.6347 8.10571H8.32217C8.21867 8.10571 8.13467 8.02171 8.13467 7.91821C8.13467 7.81471 8.21867 7.73071 8.32217 7.73071H12.6347C12.7382 7.73071 12.8222 7.81471 12.8222 7.91821C12.8222 8.02171 12.7382 8.10571 12.6347 8.10571Z" fill="#1C1C1C"/>
<path d="M20.1587 17.7402C20.0552 17.7402 19.9712 17.6562 19.9712 17.5527V16.8027C19.9712 16.6992 20.0552 16.6152 20.1587 16.6152C20.2622 16.6152 20.3462 16.6992 20.3462 16.8027V17.5527C20.3462 17.6562 20.2622 17.7402 20.1587 17.7402Z" fill="#1C1C1C"/>
<path d="M20.1587 16.2402C20.0552 16.2402 19.9712 16.1562 19.9712 16.0527V9.30273C19.9712 9.19923 20.0552 9.11523 20.1587 9.11523C20.2622 9.11523 20.3462 9.19923 20.3462 9.30273V16.0527C20.3462 16.1562 20.2622 16.2402 20.1587 16.2402Z" fill="#1C1C1C"/>
<path d="M6.07217 8.66821H3.44717C3.24017 8.66821 3.07217 8.50021 3.07217 8.29321V5.66821C3.07217 5.46121 3.24017 5.29321 3.44717 5.29321H6.07217C6.27917 5.29321 6.44717 5.46121 6.44717 5.66821V8.29321C6.44717 8.50021 6.27917 8.66821 6.07217 8.66821Z" fill="#7012E3"/>
<path d="M6.07217 8.85571H3.44717C3.13705 8.85571 2.88467 8.60334 2.88467 8.29321V5.66821C2.88467 5.35809 3.13705 5.10571 3.44717 5.10571H6.07217C6.3823 5.10571 6.63467 5.35809 6.63467 5.66821V8.29321C6.63467 8.60334 6.3823 8.85571 6.07217 8.85571ZM3.44717 5.48071C3.34367 5.48071 3.25967 5.56509 3.25967 5.66821V8.29321C3.25967 8.39634 3.34367 8.48071 3.44717 8.48071H6.07217C6.17567 8.48071 6.25967 8.39634 6.25967 8.29321V5.66821C6.25967 5.56509 6.17567 5.48071 6.07217 5.48071H3.44717Z" fill="#1C1C1C"/>
<path d="M4.78366 7.54329C4.73566 7.54329 4.68766 7.52491 4.65091 7.48854L3.85553 6.69316C3.78241 6.62004 3.78241 6.50116 3.85553 6.42804C3.92866 6.35491 4.04753 6.35491 4.12066 6.42804L4.78366 7.09104L6.71341 5.16129C6.78653 5.08816 6.90541 5.08816 6.97853 5.16129C7.05166 5.23441 7.05166 5.35329 6.97853 5.42641L4.91603 7.48891C4.87966 7.52491 4.83166 7.54329 4.78366 7.54329Z" fill="#1C1C1C"/>
</svg>
