<svg width="18" height="20" viewBox="0 0 18 20" fill="none" xmlns="http://www.w3.org/2000/svg">
<path d="M15.9473 9.25H8.36844V10.8289H15.9473V9.25Z" fill="#FFD740"/>
<path d="M5.84214 6.32886H2.05273V7.90778H5.84214V6.32886Z" fill="#5EC134"/>
<path d="M14.842 1.51329H13.5789C13.4917 1.51329 13.421 1.44256 13.421 1.3554C13.421 1.26825 13.4917 1.19751 13.5789 1.19751H14.842C14.9292 1.19751 14.9999 1.26825 14.9999 1.3554C14.9999 1.44256 14.9292 1.51329 14.842 1.51329Z" fill="#1C1C1C"/>
<path d="M14.2104 2.14484C14.1233 2.14484 14.0525 2.0741 14.0525 1.98695V0.72381C14.0525 0.636654 14.1233 0.565918 14.2104 0.565918C14.2976 0.565918 14.3683 0.636654 14.3683 0.72381V1.98695C14.3683 2.0741 14.2976 2.14484 14.2104 2.14484Z" fill="#1C1C1C"/>
<path d="M16.7367 3.25011H15.4736C15.3864 3.25011 15.3157 3.17937 15.3157 3.09222C15.3157 3.00506 15.3864 2.93433 15.4736 2.93433H16.7367C16.8239 2.93433 16.8946 3.00506 16.8946 3.09222C16.8946 3.17937 16.8239 3.25011 16.7367 3.25011Z" fill="#1C1C1C"/>
<path d="M16.1051 3.88165C16.018 3.88165 15.9473 3.81092 15.9473 3.72376V2.46063C15.9473 2.37347 16.018 2.30273 16.1051 2.30273C16.1923 2.30273 16.263 2.37347 16.263 2.46063V3.72376C16.263 3.81092 16.1923 3.88165 16.1051 3.88165Z" fill="#1C1C1C"/>
<path d="M17.842 8.53944H14.842C14.7548 8.53944 14.6841 8.4687 14.6841 8.38154V5.3816C14.6841 5.31781 14.7226 5.26002 14.7817 5.2357C14.8407 5.21107 14.9083 5.22497 14.9538 5.26981L17.9537 8.26976C17.9989 8.31491 18.0125 8.38281 17.9878 8.44186C17.9632 8.50091 17.9057 8.53944 17.842 8.53944ZM14.9999 8.22365H17.4608L14.9999 5.76275V8.22365Z" fill="#1C1C1C"/>
<path d="M17.0525 19.4339H7.26318C6.74087 19.4339 6.31583 19.0089 6.31583 18.4866V6.17098C6.31583 5.64868 6.74087 5.22363 7.26318 5.22363H14.842C14.884 5.22363 14.9241 5.24037 14.9538 5.26974L17.9537 8.26969C17.9834 8.29937 17.9998 8.33947 17.9998 8.38147V18.4866C17.9998 19.0089 17.5748 19.4339 17.0525 19.4339ZM7.26318 5.53942C6.91487 5.53942 6.63161 5.82268 6.63161 6.17098V18.4866C6.63161 18.8349 6.91487 19.1181 7.26318 19.1181H17.0525C17.4008 19.1181 17.6841 18.8349 17.6841 18.4866V8.44684L14.7766 5.53942H7.26318Z" fill="#1C1C1C"/>
<path d="M15.9472 12.6446H8.36843C8.28128 12.6446 8.21054 12.5739 8.21054 12.4867C8.21054 12.3996 8.28128 12.3289 8.36843 12.3289H15.9472C16.0344 12.3289 16.1051 12.3996 16.1051 12.4867C16.1051 12.5739 16.0344 12.6446 15.9472 12.6446Z" fill="#1C1C1C"/>
<path d="M15.9472 14.2235H8.36843C8.28128 14.2235 8.21054 14.1528 8.21054 14.0656C8.21054 13.9785 8.28128 13.9077 8.36843 13.9077H15.9472C16.0344 13.9077 16.1051 13.9785 16.1051 14.0656C16.1051 14.1528 16.0344 14.2235 15.9472 14.2235Z" fill="#1C1C1C"/>
<path d="M15.9472 15.8026H8.36843C8.28128 15.8026 8.21054 15.7319 8.21054 15.6447C8.21054 15.5576 8.28128 15.4868 8.36843 15.4868H15.9472C16.0344 15.4868 16.1051 15.5576 16.1051 15.6447C16.1051 15.7319 16.0344 15.8026 15.9472 15.8026Z" fill="#1C1C1C"/>
<path d="M15.9472 15.8026H8.36843C8.28128 15.8026 8.21054 15.7319 8.21054 15.6447C8.21054 15.5576 8.28128 15.4868 8.36843 15.4868H15.9472C16.0344 15.4868 16.1051 15.5576 16.1051 15.6447C16.1051 15.7319 16.0344 15.8026 15.9472 15.8026Z" fill="#1C1C1C"/>
<path d="M11.5263 3.96065H8.52633C8.43917 3.96065 8.36844 3.88991 8.36844 3.80276V0.802808C8.36844 0.73902 8.40696 0.681231 8.46602 0.656916C8.52538 0.632285 8.59296 0.645863 8.63812 0.69102L11.6381 3.69097C11.6832 3.73613 11.6968 3.80402 11.6722 3.86307C11.6475 3.92212 11.5901 3.96065 11.5263 3.96065ZM8.68422 3.64487H11.1451L8.68422 1.18396V3.64487Z" fill="#1C1C1C"/>
<path d="M5.84216 14.8551H0.947505C0.425198 14.8551 0.000152588 14.43 0.000152588 13.9077V1.59213C0.000152588 1.06982 0.425198 0.644775 0.947505 0.644775H8.52632C8.56832 0.644775 8.60843 0.661512 8.63811 0.69088L11.6381 3.69083C11.6677 3.72051 11.6842 3.76062 11.6842 3.80262V4.74997C11.6842 4.83712 11.6134 4.90786 11.5263 4.90786C11.4391 4.90786 11.3684 4.83712 11.3684 4.74997V3.86798L8.46096 0.960559H0.947505C0.599195 0.960559 0.315937 1.24382 0.315937 1.59213V13.9077C0.315937 14.256 0.599195 14.5393 0.947505 14.5393H5.84216C5.92931 14.5393 6.00005 14.61 6.00005 14.6972C6.00005 14.7843 5.92931 14.8551 5.84216 14.8551Z" fill="#1C1C1C"/>
<path d="M5.84217 4.90807H2.05276C1.9656 4.90807 1.89487 4.83733 1.89487 4.75018C1.89487 4.66302 1.9656 4.59229 2.05276 4.59229H5.84217C5.92932 4.59229 6.00006 4.66302 6.00006 4.75018C6.00006 4.83733 5.92932 4.90807 5.84217 4.90807Z" fill="#1C1C1C"/>
<path d="M5.84217 6.48693H2.05276C1.9656 6.48693 1.89487 6.41619 1.89487 6.32903C1.89487 6.24188 1.9656 6.17114 2.05276 6.17114H5.84217C5.92932 6.17114 6.00006 6.24188 6.00006 6.32903C6.00006 6.41619 5.92932 6.48693 5.84217 6.48693Z" fill="#1C1C1C"/>
<path d="M5.84217 8.06578H2.05276C1.9656 8.06578 1.89487 7.99505 1.89487 7.90789C1.89487 7.82074 1.9656 7.75 2.05276 7.75H5.84217C5.92932 7.75 6.00006 7.82074 6.00006 7.90789C6.00006 7.99505 5.92932 8.06578 5.84217 8.06578Z" fill="#1C1C1C"/>
<path d="M5.84217 9.64464H2.05276C1.9656 9.64464 1.89487 9.57391 1.89487 9.48675C1.89487 9.39959 1.9656 9.32886 2.05276 9.32886H5.84217C5.92932 9.32886 6.00006 9.39959 6.00006 9.48675C6.00006 9.57391 5.92932 9.64464 5.84217 9.64464Z" fill="#1C1C1C"/>
<path d="M5.84217 11.2237H2.05276C1.9656 11.2237 1.89487 11.153 1.89487 11.0659C1.89487 10.9787 1.9656 10.908 2.05276 10.908H5.84217C5.92932 10.908 6.00006 10.9787 6.00006 11.0659C6.00006 11.153 5.92932 11.2237 5.84217 11.2237Z" fill="#1C1C1C"/>
<path d="M5.2106 16.9078H2.05276C1.9656 16.9078 1.89487 16.8371 1.89487 16.7499C1.89487 16.6628 1.9656 16.592 2.05276 16.592H5.2106C5.29776 16.592 5.36849 16.6628 5.36849 16.7499C5.36849 16.8371 5.29776 16.9078 5.2106 16.9078Z" fill="#1C1C1C"/>
<path d="M1.42119 16.9078H1.1054C1.01825 16.9078 0.94751 16.8371 0.94751 16.7499C0.94751 16.6628 1.01825 16.592 1.1054 16.592H1.42119C1.50834 16.592 1.57908 16.6628 1.57908 16.7499C1.57908 16.8371 1.50834 16.9078 1.42119 16.9078Z" fill="#1C1C1C"/>
<path d="M15.9472 9.48693H8.36843C8.28128 9.48693 8.21054 9.41619 8.21054 9.32903C8.21054 9.24188 8.28128 9.17114 8.36843 9.17114H15.9472C16.0344 9.17114 16.1051 9.24188 16.1051 9.32903C16.1051 9.41619 16.0344 9.48693 15.9472 9.48693Z" fill="#1C1C1C"/>
<path d="M15.9472 11.0658H8.36843C8.28128 11.0658 8.21054 10.995 8.21054 10.9079C8.21054 10.8207 8.28128 10.75 8.36843 10.75H15.9472C16.0344 10.75 16.1051 10.8207 16.1051 10.9079C16.1051 10.995 16.0344 11.0658 15.9472 11.0658Z" fill="#1C1C1C"/>
</svg>
