<svg width="20" height="18" viewBox="0 0 20 18" fill="none" xmlns="http://www.w3.org/2000/svg">
<path d="M18.7998 4.03519V12.0586C18.7998 12.9152 18.7998 13.3435 18.6363 13.6706C18.4925 13.9584 18.263 14.1924 17.9808 14.339C17.6599 14.5057 17.2399 14.5057 16.3998 14.5057C16.0684 14.5057 15.7998 14.7743 15.7998 15.1057V16.0291C15.7998 16.3446 15.4382 16.5233 15.1876 16.3316L13.6603 15.1637C13.3412 14.9197 13.1816 14.7976 13.0052 14.7109C12.8488 14.634 12.683 14.5779 12.5119 14.5439C12.3192 14.5057 12.1183 14.5057 11.7165 14.5057H7.79978M3.1998 0.799805H13.3998C14.2399 0.799805 14.6599 0.799805 14.9808 0.966501C15.263 1.11313 15.4925 1.3471 15.6363 1.63488C15.7998 1.96204 15.7998 2.39031 15.7998 3.24686V9.05863C15.7998 9.91518 15.7998 10.3435 15.6363 10.6706C15.4925 10.9584 15.263 11.1924 14.9808 11.339C14.6599 11.5057 14.2399 11.5057 13.3998 11.5057H7.88311C7.4813 11.5057 7.28039 11.5057 7.08766 11.5439C6.91666 11.5779 6.75082 11.634 6.59437 11.7109C6.41805 11.7976 6.25845 11.9197 5.93927 12.1637L4.41201 13.3316C4.1614 13.5233 3.7998 13.3446 3.7998 13.0291V12.1057C3.7998 11.7743 3.53118 11.5057 3.19981 11.5057C2.35973 11.5057 1.93969 11.5057 1.61882 11.339C1.33658 11.1924 1.1071 10.9584 0.963295 10.6706C0.799805 10.3435 0.799805 9.91518 0.799805 9.05863V3.24686C0.799805 2.39031 0.799805 1.96204 0.963295 1.63488C1.1071 1.3471 1.33658 1.11313 1.61882 0.966501C1.93969 0.799805 2.35973 0.799805 3.1998 0.799805Z" stroke="#1C1C1C" stroke-width="1.6" stroke-linecap="round"/>
</svg>
