<svg width="12" height="12" viewBox="0 0 12 12" fill="none" xmlns="http://www.w3.org/2000/svg">
<path d="M7.56731 0.351932V0.636744C7.56731 0.829307 7.41243 0.984744 7.22231 0.984744H7.10156V1.54274C5.91637 1.29543 4.89843 1.54274 4.89843 1.54274V0.984744H4.77768C4.58775 0.984744 4.4325 0.829307 4.4325 0.636744V0.351932C4.4325 0.159369 4.58775 0.00674438 4.77768 0.00674438H7.2225C7.41243 0.00674438 7.56731 0.159369 7.56731 0.351932Z" fill="white"/>
<path d="M10.3748 2.39887L8.82363 1.31474C8.728 1.24818 8.66463 1.28868 8.63107 1.32599L8.60332 1.36593L8.21594 1.92037C8.21594 1.92037 9.19375 2.3023 10.0236 3.18337L10.4133 2.62574C10.5023 2.49674 10.3866 2.40749 10.3748 2.39887Z" fill="white"/>
<path d="M6.00022 1.92694C3.22035 1.92694 0.967163 4.18032 0.967163 6.96019C0.967163 9.7395 3.22054 11.9933 6.00022 11.9933C8.77954 11.9933 11.0329 9.7395 11.0329 6.96019C11.0329 4.18032 8.77954 1.92694 6.00022 1.92694ZM6.00022 6.96019V2.97975C6.00022 2.97975 9.73897 2.91732 9.98047 6.96019C7.29379 6.95157 6.00022 6.96019 6.00022 6.96019Z" fill="white"/>
</svg>
