<svg width="21" height="21" viewBox="0 0 21 21" fill="none" xmlns="http://www.w3.org/2000/svg">
<path d="M18.5 7.5H9.5C8.39543 7.5 7.5 8.39543 7.5 9.5V18.5C7.5 19.6046 8.39543 20.5 9.5 20.5H18.5C19.6046 20.5 20.5 19.6046 20.5 18.5V9.5C20.5 8.39543 19.6046 7.5 18.5 7.5Z" stroke="#7012E3" stroke-linecap="round" stroke-linejoin="round"/>
<path d="M3.5 13.5H2.5C1.96957 13.5 1.46086 13.2893 1.08579 12.9142C0.710714 12.5391 0.5 12.0304 0.5 11.5V2.5C0.5 1.96957 0.710714 1.46086 1.08579 1.08579C1.46086 0.710714 1.96957 0.5 2.5 0.5H11.5C12.0304 0.5 12.5391 0.710714 12.9142 1.08579C13.2893 1.46086 13.5 1.96957 13.5 2.5V3.5" stroke="#7012E3" stroke-linecap="round" stroke-linejoin="round"/>
</svg>
