<svg width="18" height="18" viewBox="0 0 18 18" fill="none" xmlns="http://www.w3.org/2000/svg">
<path d="M6.06965 6.97871C6.1909 7.10059 6.35027 7.16121 6.50965 7.16121C6.66902 7.16121 6.8284 7.10059 6.94965 6.97871C7.19277 6.73559 7.19277 6.34121 6.94965 6.09809L1.97152 1.11496C1.7284 0.871836 1.33465 0.871836 1.09152 1.11496C0.848398 1.35809 0.848398 1.75246 1.09152 1.99559L6.06965 6.97871Z" fill="#1C1C1C"/>
<path d="M9.87916 9.02996L16.9073 1.99558C17.1504 1.75246 17.1504 1.35808 16.9073 1.11496C16.6642 0.871833 16.2704 0.764333 16.0273 1.00808L8.55978 8.37496H8.37478V8.59058L0.999784 16.0643C0.756659 16.3075 0.802909 16.7018 1.04541 16.945C1.16666 17.0668 1.34916 17.1275 1.50853 17.1275C1.66791 17.1275 1.83853 17.0668 1.95978 16.945L8.99353 9.91121L16.0242 16.9456C16.1454 17.0675 16.3067 17.1281 16.4654 17.1281C16.6242 17.1281 16.7848 17.0675 16.906 16.9456C17.1492 16.7025 17.1498 16.3081 16.9067 16.065L9.87916 9.02996Z" fill="#1C1C1C"/>
</svg>
