<svg width="16" height="19" viewBox="0 0 16 19" fill="none" xmlns="http://www.w3.org/2000/svg">
<path opacity="0.28" d="M2.99935 4.1665C2.53911 4.1665 2.16602 4.5396 2.16602 4.99984V12.5294C2.16601 13.2809 2.16601 13.8871 2.19967 14.3804C2.23428 14.8877 2.30725 15.3363 2.48318 15.761C2.90608 16.782 3.71722 17.5931 4.73817 18.016C5.16292 18.1919 5.61148 18.2649 6.11877 18.2995C6.61211 18.3332 7.21828 18.3332 7.96975 18.3332H8.02895C8.78042 18.3332 9.38659 18.3332 9.87993 18.2995C10.3872 18.2649 10.8358 18.1919 11.2605 18.016C12.2815 17.5931 13.0926 16.782 13.5155 15.761C13.6915 15.3363 13.7644 14.8877 13.799 14.3804C13.8327 13.8871 13.8327 13.2809 13.8327 12.5295V4.99984C13.8327 4.5396 13.4596 4.1665 12.9993 4.1665H2.99935Z" stroke="#F42D2D" stroke-linecap="round" stroke-linejoin="round"/>
<path d="M11.334 3.99935L10.4127 2.15673C9.95587 1.24312 9.02209 0.666016 8.00065 0.666016C6.97921 0.666016 6.04543 1.24312 5.58863 2.15673L4.66732 3.99935M1.33398 3.99935H14.6673" stroke="#F42D2D" stroke-linecap="round" stroke-linejoin="round"/>
</svg>
