<svg width="16" height="15" viewBox="0 0 16 15" fill="none" xmlns="http://www.w3.org/2000/svg">
<path fill-rule="evenodd" clip-rule="evenodd" d="M11.5606 0.686899C10.9749 0.101113 10.0251 0.101111 9.43932 0.686898L2.93932 7.1869C2.65802 7.4682 2.49998 7.84973 2.49998 8.24756V9.33334C2.49998 10.1618 3.17155 10.8333 3.99998 10.8333H5.08577C5.48359 10.8333 5.86512 10.6753 6.14643 10.394L12.6464 3.89401C13.2322 3.30822 13.2322 2.35847 12.6464 1.77268L11.5606 0.686899ZM10.1464 1.394C10.3417 1.19874 10.6583 1.19874 10.8535 1.39401L11.9393 2.47979C12.1346 2.67505 12.1346 2.99164 11.9393 3.1869L5.43932 9.6869C5.34555 9.78067 5.21837 9.83334 5.08577 9.83334H3.99998C3.72384 9.83334 3.49998 9.60949 3.49998 9.33334V8.24756C3.49998 8.11495 3.55266 7.98777 3.64643 7.894L10.1464 1.394ZM1.33331 13.1667C1.05717 13.1667 0.833313 13.3905 0.833313 13.6667C0.833313 13.9428 1.05717 14.1667 1.33331 14.1667H14.6666C14.9428 14.1667 15.1666 13.9428 15.1666 13.6667C15.1666 13.3905 14.9428 13.1667 14.6666 13.1667H1.33331Z" fill="#7012E3"/>
</svg>
