<svg width="12" height="12" viewBox="0 0 12 12" fill="none" xmlns="http://www.w3.org/2000/svg">
<path d="M11.9656 0.26571C11.9439 0.213774 11.9135 0.165941 11.8756 0.124284C11.834 0.0864282 11.7861 0.0559884 11.7342 0.0342851C11.6827 0.0123251 11.6273 0.000677127 11.5713 0H8.14282C8.02916 0 7.92015 0.0451522 7.83978 0.125524C7.75941 0.205895 7.71426 0.314902 7.71426 0.428565C7.71426 0.542227 7.75941 0.651234 7.83978 0.731605C7.92015 0.811977 8.02916 0.857129 8.14282 0.857129H10.5385L6.98141 4.40993C6.94125 4.44977 6.90936 4.49717 6.8876 4.54939C6.86585 4.60162 6.85464 4.65763 6.85464 4.71421C6.85464 4.77079 6.86585 4.8268 6.8876 4.87903C6.90936 4.93125 6.94125 4.97865 6.98141 5.01849C7.02125 5.05866 7.06865 5.09054 7.12088 5.1123C7.1731 5.13406 7.22912 5.14526 7.28569 5.14526C7.34227 5.14526 7.39829 5.13406 7.45051 5.1123C7.50273 5.09054 7.55013 5.05866 7.58997 5.01849L11.1428 1.46141V3.85708C11.1428 3.97074 11.1879 4.07975 11.2683 4.16012C11.3487 4.24049 11.4577 4.28565 11.5713 4.28565C11.685 4.28565 11.794 4.24049 11.8744 4.16012C11.9548 4.07975 11.9999 3.97074 11.9999 3.85708V0.428565C11.9992 0.372561 11.9876 0.317233 11.9656 0.26571Z" fill="#1C1C1C"/>
<path d="M1.46141 0.857129H3.85708C3.97074 0.857129 4.07975 0.811977 4.16012 0.731605C4.24049 0.651234 4.28565 0.542227 4.28565 0.428565C4.28565 0.314902 4.24049 0.205895 4.16012 0.125524C4.07975 0.0451522 3.97074 0 3.85708 0H0.428565C0.372561 0.000677127 0.317233 0.0123251 0.26571 0.0342851C0.213774 0.0559884 0.165941 0.0864282 0.124284 0.124284C0.0864282 0.165941 0.0559884 0.213774 0.0342851 0.26571C0.0123251 0.317233 0.000677127 0.372561 0 0.428565V3.85708C0 3.97074 0.0451522 4.07975 0.125524 4.16012C0.205895 4.24049 0.314902 4.28565 0.428565 4.28565C0.542227 4.28565 0.651234 4.24049 0.731605 4.16012C0.811977 4.07975 0.857129 3.97074 0.857129 3.85708V1.46141L4.40993 5.01849C4.44977 5.05866 4.49717 5.09054 4.54939 5.1123C4.60162 5.13406 4.65763 5.14526 4.71421 5.14526C4.77079 5.14526 4.8268 5.13406 4.87903 5.1123C4.93125 5.09054 4.97865 5.05866 5.01849 5.01849C5.05866 4.97865 5.09054 4.93125 5.1123 4.87903C5.13406 4.8268 5.14526 4.77079 5.14526 4.71421C5.14526 4.65763 5.13406 4.60162 5.1123 4.54939C5.09054 4.49717 5.05866 4.44977 5.01849 4.40993L1.46141 0.857129Z" fill="#1C1C1C"/>
<path d="M11.5714 7.71386C11.4578 7.71386 11.3488 7.75901 11.2684 7.83939C11.188 7.91976 11.1429 8.02876 11.1429 8.14243V10.5381L7.59007 6.98102C7.55011 6.94106 7.50267 6.90936 7.45046 6.88774C7.39825 6.86611 7.3423 6.85498 7.28579 6.85498C7.22928 6.85498 7.17332 6.86611 7.12111 6.88774C7.0689 6.90936 7.02146 6.94106 6.98151 6.98102C6.94155 7.02098 6.90985 7.06841 6.88822 7.12062C6.8666 7.17283 6.85547 7.22879 6.85547 7.2853C6.85547 7.34181 6.8666 7.39777 6.88822 7.44997C6.90985 7.50218 6.94155 7.54962 6.98151 7.58958L10.5386 11.1424H8.14292C8.02925 11.1424 7.92025 11.1875 7.83987 11.2679C7.7595 11.3483 7.71435 11.4573 7.71435 11.5709C7.71435 11.6846 7.7595 11.7936 7.83987 11.874C7.92025 11.9544 8.02925 11.9995 8.14292 11.9995H11.5714C11.6274 11.9988 11.6828 11.9872 11.7343 11.9652C11.7875 11.946 11.8358 11.9153 11.8758 11.8753C11.9158 11.8353 11.9465 11.787 11.9657 11.7338C11.9877 11.6823 11.9993 11.6269 12 11.5709V8.14243C12 8.02876 11.9548 7.91976 11.8745 7.83939C11.7941 7.75901 11.6851 7.71386 11.5714 7.71386Z" fill="#1C1C1C"/>
<path d="M4.41005 6.98102L0.857251 10.5381V8.14243C0.857251 8.02876 0.812099 7.91976 0.731727 7.83939C0.651356 7.75901 0.542349 7.71386 0.428687 7.71386C0.315024 7.71386 0.206017 7.75901 0.125646 7.83939C0.0452743 7.91976 0.00012207 8.02876 0.00012207 8.14243V11.5709C0.000799197 11.6269 0.0124471 11.6823 0.0344072 11.7338C0.0561105 11.7857 0.0865503 11.8336 0.124406 11.8752C0.166063 11.9131 0.213896 11.9435 0.265832 11.9652C0.317355 11.9872 0.372683 11.9988 0.428687 11.9995H3.8572C3.97087 11.9995 4.07987 11.9544 4.16024 11.874C4.24061 11.7936 4.28577 11.6846 4.28577 11.5709C4.28577 11.4573 4.24061 11.3483 4.16024 11.2679C4.07987 11.1875 3.97087 11.1424 3.8572 11.1424H1.46153L5.01861 7.58958C5.09931 7.50888 5.14465 7.39943 5.14465 7.2853C5.14465 7.17117 5.09931 7.06172 5.01861 6.98102C4.93791 6.90032 4.82846 6.85498 4.71433 6.85498C4.6002 6.85498 4.49075 6.90032 4.41005 6.98102Z" fill="#1C1C1C"/>
</svg>
