<svg width="16" height="10" viewBox="0 0 16 10" fill="none" xmlns="http://www.w3.org/2000/svg">
<path d="M15.4648 5.00781C13.6953 2.96875 11.25 0.625 8 0.625C6.6875 0.625 5.48438 0.996094 4.21484 1.78906C3.14453 2.46094 2.04688 3.40625 0.539062 4.96094L0.5 5L0.761719 5.26953C2.91406 7.47266 4.77344 9.375 8 9.375C9.42578 9.375 10.8086 8.91016 12.2266 7.95312C13.4336 7.13672 14.4609 6.10156 15.2852 5.26562L15.5 5.05078L15.4648 5.00781ZM8 8.125C6.27734 8.125 4.875 6.72266 4.875 5C4.875 3.27734 6.27734 1.875 8 1.875C9.72266 1.875 11.125 3.27734 11.125 5C11.125 6.72266 9.72266 8.125 8 8.125Z" fill="#7012E3"/>
<path d="M7.78125 3.85938C7.78125 3.58984 7.85937 3.33594 7.99609 3.125C6.96094 3.125 6.125 3.96875 6.125 5.00781C6.125 6.04688 6.96484 6.88672 7.99609 6.88672C9.02734 6.88672 9.87109 6.04688 9.87109 5.00781C9.66016 5.14453 9.40625 5.22266 9.13672 5.22266C8.39063 5.21875 7.78125 4.60938 7.78125 3.85938Z" fill="#7012E3"/>
</svg>
