<svg width="18" height="22" viewBox="0 0 18 22" fill="none" xmlns="http://www.w3.org/2000/svg">
<path d="M16.5818 1.89182L17.2946 1.52863V1.52863L16.5818 1.89182ZM13.5998 0.799805V1.5998V0.799805ZM15.7078 1.01779L16.071 0.304987L16.071 0.304986L15.7078 1.01779ZM15.7078 20.5818L16.071 21.2946H16.071L15.7078 20.5818ZM16.5818 19.7078L17.2946 20.071V20.071L16.5818 19.7078ZM1.89182 20.5818L1.52863 21.2946H1.52863L1.89182 20.5818ZM1.01779 19.7078L1.7306 19.3446H1.7306L1.01779 19.7078ZM1.3856 7.21397L0.819913 6.64828H0.819913L1.3856 7.21397ZM7.21402 1.38559L6.64834 0.819898V0.819898L7.21402 1.38559ZM3.99981 20.7998V21.5998H13.5998V20.7998V19.9998H3.99981V20.7998ZM16.7998 17.5998H17.5998V3.99981H16.7998H15.9998V17.5998H16.7998ZM16.7998 3.99981H17.5998C17.5998 3.45296 17.6004 2.9947 17.5699 2.62106C17.5386 2.23809 17.4707 1.87412 17.2946 1.52863L16.5818 1.89182L15.869 2.25501C15.911 2.33735 15.952 2.46732 15.9752 2.75135C15.9992 3.04473 15.9998 3.42655 15.9998 3.99981H16.7998ZM13.5998 0.799805V1.5998C14.1731 1.5998 14.5549 1.60043 14.8483 1.6244C15.1323 1.6476 15.2623 1.68864 15.3446 1.7306L15.7078 1.01779L16.071 0.304986C15.7255 0.128952 15.3615 0.0610002 14.9785 0.0297098C14.6049 -0.000817597 14.1467 -0.000195384 13.5998 -0.000195324V0.799805ZM16.5818 1.89182L17.2946 1.52863C17.0262 1.00177 16.5978 0.573432 16.071 0.304987L15.7078 1.01779L15.3446 1.7306C15.5704 1.84565 15.754 2.02922 15.869 2.25501L16.5818 1.89182ZM13.5998 20.7998V21.5998C14.1467 21.5998 14.6049 21.6004 14.9785 21.5699C15.3615 21.5386 15.7255 21.4707 16.071 21.2946L15.7078 20.5818L15.3446 19.869C15.2623 19.911 15.1323 19.952 14.8483 19.9752C14.5549 19.9992 14.1731 19.9998 13.5998 19.9998V20.7998ZM16.7998 17.5998H15.9998C15.9998 18.1731 15.9992 18.5549 15.9752 18.8483C15.952 19.1323 15.911 19.2623 15.869 19.3446L16.5818 19.7078L17.2946 20.071C17.4707 19.7255 17.5386 19.3615 17.5699 18.9785C17.6004 18.6049 17.5998 18.1467 17.5998 17.5998H16.7998ZM15.7078 20.5818L16.071 21.2946C16.5978 21.0262 17.0262 20.5978 17.2946 20.071L16.5818 19.7078L15.869 19.3446C15.754 19.5704 15.5704 19.754 15.3446 19.869L15.7078 20.5818ZM3.99981 20.7998V19.9998C3.42656 19.9998 3.04473 19.9992 2.75136 19.9752C2.46732 19.952 2.33735 19.911 2.25502 19.869L1.89182 20.5818L1.52863 21.2946C1.87412 21.4707 2.2381 21.5386 2.62107 21.5699C2.99471 21.6004 3.45296 21.5998 3.99981 21.5998V20.7998ZM0.799805 17.5998H-0.000195324C-0.000195324 18.1467 -0.000817478 18.6049 0.0297101 18.9785C0.0610008 19.3615 0.128953 19.7255 0.304988 20.071L1.01779 19.7078L1.7306 19.3446C1.68864 19.2623 1.6476 19.1323 1.6244 18.8483C1.60043 18.5549 1.5998 18.1731 1.5998 17.5998H0.799805ZM1.89182 20.5818L2.25502 19.869C2.02922 19.754 1.84565 19.5704 1.7306 19.3446L1.01779 19.7078L0.304988 20.071C0.573433 20.5978 1.00178 21.0262 1.52863 21.2946L1.89182 20.5818ZM0.799805 8.62819H-0.000195324V17.5998H0.799805H1.5998V8.62819H0.799805ZM13.5998 0.799805V-0.000195324H8.62823V0.799805V1.5998H13.5998V0.799805ZM1.3856 7.21397L1.95128 7.77966L7.7797 1.95127L7.21402 1.38559L6.64834 0.819898L0.819913 6.64828L1.3856 7.21397ZM1.79981 7.79981V8.59981H6.72288V7.79981V6.99981H1.79981V7.79981ZM7.79981 6.72287H8.59981V1.79981H7.79981H6.99981V6.72287H7.79981ZM6.72288 7.79981V8.59981C7.75949 8.59981 8.59981 7.75947 8.59981 6.72287H7.79981H6.99981C6.99981 6.87583 6.87582 6.99981 6.72288 6.99981V7.79981ZM8.62823 0.799805V-0.000195324C8.22422 -0.000195324 7.82917 0.0871368 7.46845 0.251293L7.79981 0.979442L8.13117 1.70759C8.28583 1.63721 8.45508 1.5998 8.62823 1.5998V0.799805ZM7.79981 0.979442L7.46845 0.251293C7.1661 0.388881 6.88775 0.58049 6.64834 0.819898L7.21402 1.38559L7.7797 1.95127C7.88233 1.84865 8.00157 1.76657 8.13117 1.70759L7.79981 0.979442ZM7.79981 1.79981H8.59981V0.979442H7.79981H6.99981V1.79981H7.79981ZM0.799805 8.62819H1.5998C1.5998 8.45505 1.6372 8.28581 1.70758 8.13115L0.979425 7.79981L0.251269 7.46846C0.0871286 7.82917 -0.000195324 8.2242 -0.000195324 8.62819H0.799805ZM0.979425 7.79981L1.70758 8.13115C1.76656 8.00154 1.84865 7.88229 1.95128 7.77966L1.3856 7.21397L0.819913 6.64828C0.580484 6.88771 0.388862 7.16609 0.251269 7.46846L0.979425 7.79981ZM1.79981 7.79981V6.99981H0.979425V7.79981V8.59981H1.79981V7.79981Z" fill="#1C1C1C"/>
</svg>
