<svg width="16" height="16" viewBox="0 0 16 16" fill="none" xmlns="http://www.w3.org/2000/svg">
<path d="M12.34 5.5C12.6733 5.5 12.94 5.23334 12.94 4.9V1.8C12.94 1.46667 12.6733 1.2 12.34 1.2C12.0067 1.2 11.74 1.46667 11.74 1.8V4.9C11.74 5.22667 12.0133 5.5 12.34 5.5Z" fill="#8D8D8D"/>
<path d="M8.00002 10.5C7.66669 10.5 7.40002 10.7667 7.40002 11.1V14.2C7.40002 14.5333 7.66669 14.8 8.00002 14.8C8.33336 14.8 8.60002 14.5333 8.60002 14.2V11.1C8.60002 10.7733 8.33336 10.5 8.00002 10.5Z" fill="#8D8D8D"/>
<path d="M3.66006 5.5C3.99339 5.5 4.26006 5.23334 4.26006 4.9V1.8C4.26006 1.46667 3.99339 1.2 3.66006 1.2C3.32673 1.2 3.06006 1.46667 3.06006 1.8V4.9C3.06006 5.22667 3.32673 5.5 3.66006 5.5Z" fill="#8D8D8D"/>
<path d="M4.89995 6.78H2.41995C2.08661 6.78 1.81995 7.04667 1.81995 7.38C1.81995 7.71333 2.08661 7.98 2.41995 7.98H3.05995V14.2C3.05995 14.5333 3.32661 14.8 3.65995 14.8C3.99328 14.8 4.25995 14.5333 4.25995 14.2V7.98H4.89995C5.23328 7.98 5.49995 7.71333 5.49995 7.38C5.49995 7.04667 5.22661 6.78 4.89995 6.78Z" fill="#8D8D8D"/>
<path d="M13.58 6.78H11.1C10.7667 6.78 10.5 7.04667 10.5 7.38C10.5 7.71333 10.7667 7.98 11.1 7.98H11.74V14.2C11.74 14.5333 12.0067 14.8 12.34 14.8C12.6733 14.8 12.94 14.5333 12.94 14.2V7.98H13.58C13.9133 7.98 14.18 7.71333 14.18 7.38C14.18 7.04667 13.9133 6.78 13.58 6.78Z" fill="#8D8D8D"/>
<path d="M9.24003 8.02H8.60003V1.8C8.60003 1.46667 8.33337 1.2 8.00003 1.2C7.6667 1.2 7.40003 1.46667 7.40003 1.8V8.02H6.76003C6.4267 8.02 6.16003 8.28667 6.16003 8.62C6.16003 8.95334 6.4267 9.22 6.76003 9.22H9.24003C9.57337 9.22 9.84003 8.95334 9.84003 8.62C9.84003 8.28667 9.57337 8.02 9.24003 8.02Z" fill="#8D8D8D"/>
</svg>
