<svg width="20" height="20" viewBox="0 0 20 20" fill="none" xmlns="http://www.w3.org/2000/svg">
<path d="M10 0.25C4.61406 0.25 0.25 4.61406 0.25 10C0.25 15.3859 4.61406 19.75 10 19.75C15.3859 19.75 19.75 15.3859 19.75 10C19.75 4.61406 15.3859 0.25 10 0.25ZM10 18.9391C5.07344 18.9391 1.06094 14.9312 1.06094 10C1.06094 5.07344 5.06875 1.06094 10 1.06094C14.9266 1.06094 18.9391 5.06875 18.9391 10C18.9391 14.9266 14.9266 18.9391 10 18.9391Z" fill="#1C1C1C"/>
<path d="M10.1688 4.84375C8.14375 4.84375 7.01406 5.79531 7 7.75938H7.88125C7.85313 6.33438 8.60781 5.57969 10.1266 5.57969C11.2141 5.57969 12.1234 6.33906 12.1234 7.44531C12.1234 8.1625 11.7344 8.74375 11.2141 9.23125C10.1547 10.2063 9.85469 10.9188 9.80313 12.2547H10.6937C10.7453 11.0453 10.7172 10.8156 11.7859 9.75625C12.4984 9.09063 13 8.42969 13 7.40313C13 5.8 11.7156 4.84375 10.1688 4.84375Z" fill="#1C1C1C"/>
<path d="M10.2015 13.5767C9.76091 13.5767 9.40466 13.9282 9.40466 14.3642C9.40466 14.8001 9.76091 15.1563 10.2015 15.1563C10.6422 15.1563 10.9984 14.8048 10.9984 14.3642C10.9984 13.9282 10.6422 13.5767 10.2015 13.5767Z" fill="#1C1C1C"/>
</svg>
