<svg width="12" height="12" viewBox="0 0 12 12" fill="none" xmlns="http://www.w3.org/2000/svg">
<path d="M11.25 5.5876H6.43126V0.750098C6.43126 0.525098 6.24376 0.318848 6.00001 0.318848C5.77501 0.318848 5.56876 0.506348 5.56876 0.750098V5.5876H0.750006C0.525006 5.5876 0.318756 5.7751 0.318756 6.01885C0.318756 6.24385 0.506256 6.4501 0.750006 6.4501H5.58751V11.2501C5.58751 11.4751 5.77501 11.6813 6.01876 11.6813C6.24376 11.6813 6.45001 11.4938 6.45001 11.2501V6.43135H11.25C11.475 6.43135 11.6813 6.24385 11.6813 6.0001C11.6813 5.7751 11.475 5.5876 11.25 5.5876Z" fill="#8D8D8D"/>
</svg>
