<svg width="14" height="14" viewBox="0 0 14 14" fill="none" xmlns="http://www.w3.org/2000/svg">
<path d="M13.6076 1.72683C13.491 1.67432 13.3618 1.65646 13.2353 1.67537C13.1088 1.69428 12.9905 1.74917 12.8943 1.8335L11.9876 2.64017C11.3735 1.91699 10.6094 1.33608 9.74828 0.937769C8.88719 0.539453 7.94973 0.333261 7.00097 0.333499C5.7784 0.332366 4.57905 0.667445 3.5341 1.30209C2.48915 1.93673 1.63884 2.8465 1.07616 3.9319C0.513484 5.0173 0.260109 6.23652 0.343746 7.45623C0.427383 8.67595 0.844811 9.84917 1.55038 10.8476C2.25595 11.846 3.22248 12.6312 4.34428 13.1173C5.46608 13.6034 6.69994 13.7716 7.91092 13.6036C9.12189 13.4356 10.2634 12.9378 11.2105 12.1647C12.1576 11.3916 12.8739 10.373 13.281 9.22017C13.3393 9.05308 13.3289 8.86966 13.252 8.71025C13.1751 8.55085 13.0381 8.42851 12.871 8.37017C12.7039 8.31182 12.5205 8.32224 12.3611 8.39913C12.2017 8.47602 12.0793 8.61308 12.021 8.78017C11.6946 9.70208 11.121 10.5165 10.3629 11.1344C9.60475 11.7522 8.69136 12.1497 7.72255 12.2834C6.75374 12.4171 5.76682 12.2819 4.86971 11.8924C3.9726 11.503 3.19985 10.8744 2.63594 10.0753C2.07204 9.27627 1.73871 8.33756 1.67239 7.36182C1.60607 6.38608 1.80932 5.41089 2.25992 4.54289C2.71052 3.67489 3.39111 2.94749 4.22728 2.44025C5.06344 1.93301 6.02298 1.66545 7.00097 1.66683C7.76232 1.66662 8.51456 1.83231 9.20536 2.15238C9.89616 2.47245 10.5089 2.9392 11.001 3.52017L9.89431 4.50017C9.79233 4.59037 9.72042 4.70964 9.68824 4.84193C9.65606 4.97423 9.66516 5.1132 9.71431 5.24017C9.76265 5.36546 9.84771 5.47323 9.95834 5.54936C10.069 5.62549 10.2 5.66644 10.3343 5.66683H13.3343C13.5111 5.66683 13.6807 5.59659 13.8057 5.47157C13.9307 5.34655 14.001 5.17698 14.001 5.00017V2.3335C14.0007 2.20526 13.9635 2.07982 13.8937 1.97221C13.8239 1.86461 13.7246 1.77941 13.6076 1.72683Z" fill="#7012E3"/>
</svg>
