<svg width="21" height="22" viewBox="0 0 21 22" fill="none" xmlns="http://www.w3.org/2000/svg">
<path d="M7.31722 2.5581C7.31722 1.58702 8.10444 0.799805 9.07552 0.799805H11.5589C12.53 0.799805 13.3172 1.58703 13.3172 2.55811C13.3172 3.91166 14.7825 4.75761 15.9547 4.08084C16.7957 3.59529 17.8711 3.88343 18.3567 4.72443L19.5983 6.87505C20.0839 7.71605 19.7957 8.79143 18.9547 9.27698C17.7825 9.95376 17.7825 11.6457 18.9547 12.3225C19.7957 12.808 20.0839 13.8834 19.5983 14.7244L18.3567 16.875C17.8711 17.716 16.7957 18.0042 15.9547 17.5186C14.7825 16.8419 13.3172 17.6879 13.3172 19.0414C13.3172 20.0125 12.53 20.7998 11.5589 20.7998H9.07557C8.10446 20.7998 7.31722 20.0125 7.31722 19.0414C7.31722 17.6879 5.85196 16.8419 4.67974 17.5187C3.83875 18.0042 2.76338 17.7161 2.27783 16.8751L1.03616 14.7244C0.550608 13.8834 0.838756 12.808 1.67975 12.3225C2.85197 11.6457 2.85197 9.95376 1.67975 9.27698C0.838756 8.79143 0.550609 7.71605 1.03616 6.87505L2.27783 4.72441C2.76338 3.88342 3.83876 3.59528 4.67975 4.08083C5.85195 4.7576 7.31722 3.91164 7.31722 2.5581Z" stroke="#1C1C1C" stroke-width="1.6"/>
<path d="M14.3172 10.7998C14.3172 13.0089 12.5264 14.7998 10.3172 14.7998C8.10808 14.7998 6.31722 13.0089 6.31722 10.7998C6.31722 8.59067 8.10808 6.7998 10.3172 6.7998C12.5264 6.7998 14.3172 8.59067 14.3172 10.7998Z" stroke="#1C1C1C" stroke-width="1.6"/>
</svg>
