<svg width="16" height="16" viewBox="0 0 16 16" fill="none" xmlns="http://www.w3.org/2000/svg">
<path d="M15.6136 8.54149C15.8278 8.35495 15.9349 8.26168 15.9742 8.15069C16.0086 8.05328 16.0086 7.94672 15.9742 7.84931C15.9349 7.73832 15.8278 7.64504 15.6136 7.4585L8.17971 0.985738C7.81092 0.664627 7.62653 0.504071 7.47041 0.500137C7.33474 0.496719 7.20514 0.55727 7.1194 0.664139C7.02074 0.787108 7.02074 1.03382 7.02074 1.52723V5.35641C5.14736 5.68934 3.43278 6.65363 2.15862 8.10151C0.769495 9.68002 0.00108337 11.7228 0 13.8401V14.3857C0.920894 13.2588 2.07068 12.3474 3.37062 11.7139C4.5167 11.1554 5.75561 10.8245 7.02074 10.7373V14.4728C7.02074 14.9662 7.02074 15.2129 7.1194 15.3359C7.20514 15.4427 7.33474 15.5033 7.47041 15.4999C7.62653 15.4959 7.81092 15.3354 8.17971 15.0143L15.6136 8.54149Z" fill="#7012E3"/>
</svg>
