<svg width="16" height="18" viewBox="0 0 16 18" fill="none" xmlns="http://www.w3.org/2000/svg">
<path d="M13 12.125C12.6633 12.1249 12.33 12.193 12.0204 12.3253C11.7107 12.4575 11.4311 12.6512 11.1984 12.8945L5.41716 9.64181C5.52915 9.22127 5.52915 8.77876 5.41716 8.35822L11.1984 5.10548C11.6194 5.54195 12.1851 5.80994 12.7895 5.85927C13.3939 5.90859 13.9955 5.73586 14.4817 5.37343C14.9679 5.011 15.3052 4.48374 15.4306 3.89043C15.5559 3.29712 15.4606 2.67847 15.1625 2.15037C14.8645 1.62228 14.3841 1.22097 13.8114 1.02164C13.2387 0.822307 12.6129 0.838624 12.0514 1.06753C11.4899 1.29644 11.0311 1.72224 10.7609 2.26515C10.4908 2.80806 10.4279 3.43084 10.584 4.01681L4.80271 7.26955C4.45737 6.90948 4.01221 6.66097 3.52448 6.55599C3.03675 6.45101 2.52876 6.49436 2.06587 6.68045C1.60298 6.86655 1.20635 7.18689 0.927018 7.60026C0.647682 8.01362 0.498413 8.50111 0.498413 9.00002C0.498413 9.49892 0.647682 9.98641 0.927018 10.3998C1.20635 10.8131 1.60298 11.1335 2.06587 11.3196C2.52876 11.5057 3.03675 11.549 3.52448 11.444C4.01221 11.3391 4.45737 11.0905 4.80271 10.7305L10.584 13.9832C10.4499 14.4879 10.4772 15.0218 10.6621 15.5101C10.847 15.9984 11.1801 16.4166 11.6147 16.706C12.0493 16.9953 12.5636 17.1414 13.0854 17.1236C13.6073 17.1058 14.1104 16.925 14.5243 16.6067C14.9382 16.2884 15.242 15.8484 15.3932 15.3487C15.5443 14.8489 15.5351 14.3143 15.367 13.82C15.1989 13.3257 14.8802 12.8964 14.4557 12.5924C14.0312 12.2884 13.5221 12.125 13 12.125Z" fill="#7012E3"/>
</svg>
