<svg width="16" height="16" viewBox="0 0 16 16" fill="none" xmlns="http://www.w3.org/2000/svg">
<path d="M13.8538 10.4989L12.1675 12.1847L12.1786 6.28572C12.1786 5.96989 11.923 5.71429 11.6072 5.71429C11.2924 5.71429 11.0357 5.96989 11.0357 6.28572L11.0246 12.1445L9.37951 10.4989C9.15625 10.2762 8.79465 10.2762 8.57145 10.4989C8.34825 10.7221 8.34825 11.0843 8.57145 11.3075L10.923 13.659C11.0793 13.8661 11.3281 14 11.6072 14C11.8248 14 12.0224 13.9197 12.173 13.7869C12.1953 13.7701 12.2165 13.7517 12.2367 13.7316L14.6619 11.3075C14.8851 11.0843 14.8851 10.7221 14.6619 10.4989C14.4387 10.2762 14.0771 10.2762 13.8538 10.4989Z" fill="#8D8D8D"/>
<path d="M1.14221 11.8631C1.14221 12.1279 1.34645 12.343 1.5998 12.343H6.11318C6.22255 12.343 6.32301 12.3031 6.40113 12.2363C6.50495 12.1484 6.57078 12.0137 6.57078 11.8631V11.6228C6.57078 11.358 6.36655 11.143 6.11318 11.143H1.5998C1.46699 11.143 1.34757 11.2016 1.26386 11.2959C1.21699 11.348 1.18239 11.4113 1.1623 11.4817C1.14891 11.5262 1.14221 11.5736 1.14221 11.6228V11.8631Z" fill="#8D8D8D"/>
<path d="M1.43127 7.73713C1.38775 7.71895 1.34757 7.69435 1.31186 7.66387C1.20806 7.57597 1.14221 7.44181 1.14221 7.29121V7.05097C1.14221 6.78613 1.34645 6.57109 1.5998 6.57109H8.68461C8.93798 6.57109 9.14221 6.78613 9.14221 7.05097V7.29121C9.14221 7.55605 8.93798 7.77109 8.68461 7.77109H1.5998C1.54065 7.77109 1.48373 7.75879 1.43127 7.73713Z" fill="#8D8D8D"/>
<path d="M1.18462 2.9211C1.15783 2.86015 1.14221 2.79219 1.14221 2.72012V2.47988C1.14221 2.32695 1.21029 2.19043 1.31632 2.10254C1.39445 2.03809 1.49266 2 1.5998 2H13.8275C14.0808 2 14.2851 2.21504 14.2851 2.47988V2.72012C14.2851 2.98496 14.0808 3.2 13.8275 3.2H1.5998C1.41565 3.2 1.25717 3.08574 1.18462 2.9211Z" fill="#8D8D8D"/>
</svg>
