<svg width="11" height="14" viewBox="0 0 11 14" fill="none" xmlns="http://www.w3.org/2000/svg">
<path fill-rule="evenodd" clip-rule="evenodd" d="M2.47194 1.7155L0.855445 3.3515C0.661445 3.548 0.344945 3.5495 0.148445 3.3555C-0.0480553 3.1615 -0.0495552 2.845 0.144445 2.6485L2.61494 0.1485C2.61544 0.148 2.61644 0.147 2.61694 0.1465C2.71444 0.0485 2.84294 0 2.97094 0C3.11744 0 3.24944 0.0629999 3.34094 0.1635L5.82494 2.6465C6.01995 2.8415 6.01995 3.1585 5.82494 3.3535C5.62994 3.5485 5.31294 3.5485 5.11794 3.3535L3.47194 1.7085L3.47844 13.4995C3.47844 13.7755 3.25444 14 2.97844 14C2.70244 14 2.47844 13.776 2.47844 13.5005L2.47194 1.7155ZM7.62094 13.8555L5.12744 11.353C4.93294 11.1575 4.93344 10.8405 5.12894 10.646C5.32444 10.451 5.64094 10.4515 5.83594 10.647L7.47544 12.2925V0.5C7.47544 0.224 7.69944 0 7.97544 0C8.25144 0 8.47544 0.224 8.47544 0.5V12.296L10.1254 10.6465C10.3204 10.4515 10.6374 10.4515 10.8324 10.6465C11.0274 10.8415 11.0274 11.1585 10.8324 11.3535L8.32895 13.8565L8.32845 13.857C8.13295 14.0515 7.81644 14.051 7.62144 13.856L7.62094 13.8555Z" fill="#7012E3"/>
</svg>
