<svg width="21" height="20" viewBox="0 0 21 20" fill="none" xmlns="http://www.w3.org/2000/svg">
<path d="M10.6616 14.6768V12.1398" stroke="white" stroke-width="1.5" stroke-linecap="round" stroke-linejoin="round"/>
<path fill-rule="evenodd" clip-rule="evenodd" d="M16.8565 3.3302C18.5465 3.3302 19.9065 4.7002 19.9065 6.3902V9.8302C17.4465 11.2702 14.1965 12.1402 10.6565 12.1402C7.1165 12.1402 3.8765 11.2702 1.4165 9.8302V6.3802C1.4165 4.6902 2.7865 3.3302 4.4765 3.3302H16.8565Z" stroke="white" stroke-width="1.5" stroke-linecap="round" stroke-linejoin="round"/>
<path d="M14.1616 3.3258V2.9598C14.1616 1.7398 13.1716 0.7498 11.9516 0.7498H9.37162C8.15162 0.7498 7.16162 1.7398 7.16162 2.9598V3.3258" stroke="white" stroke-width="1.5" stroke-linecap="round" stroke-linejoin="round"/>
<path d="M1.44092 13.483L1.62992 15.992C1.75792 17.683 3.16692 18.99 4.86192 18.99H16.4609C18.1559 18.99 19.5649 17.683 19.6929 15.992L19.8819 13.483" stroke="white" stroke-width="1.5" stroke-linecap="round" stroke-linejoin="round"/>
</svg>
