<svg width="31" height="26" viewBox="0 0 31 26" fill="none" xmlns="http://www.w3.org/2000/svg">
<path d="M2.13109 11.0598C10.4526 7.43428 16.0015 5.04411 18.778 3.88929C26.7052 0.592062 28.3525 0.019298 29.4261 0.000183357C29.6622 -0.00377469 30.1902 0.0547464 30.5322 0.33226C30.821 0.566587 30.9005 0.88313 30.9385 1.1053C30.9765 1.32747 31.0239 1.83357 30.9862 2.22902C30.5566 6.74268 28.6978 17.6961 27.7522 22.7515C27.3521 24.8906 26.5642 25.6079 25.8014 25.6781C24.1437 25.8306 22.885 24.5826 21.2794 23.5301C18.7671 21.8832 17.3478 20.8581 14.9091 19.251C12.0908 17.3938 13.9178 16.373 15.5239 14.7048C15.9443 14.2683 23.248 7.62495 23.3894 7.0223C23.407 6.94693 23.4235 6.66598 23.2565 6.51763C23.0896 6.36928 22.8433 6.42001 22.6655 6.46035C22.4136 6.51754 18.4001 9.17032 10.625 14.4187C9.48582 15.201 8.45395 15.5821 7.52943 15.5621C6.51023 15.5401 4.54968 14.9859 3.09221 14.5121C1.30457 13.931 -0.116208 13.6238 0.00751004 12.6369C0.0719501 12.1229 0.77981 11.5972 2.13109 11.0598Z" fill="white"/>
</svg>
