<svg width="24" height="24" viewBox="0 0 24 24" fill="none" xmlns="http://www.w3.org/2000/svg">
<g clip-path="url(#clip0_1316_63703)">
<path d="M17 20H2.5C1.122 20 0 18.878 0 17.5V2.5C0 1.122 1.122 0 2.5 0H10.5C10.714 0 10.904 0.136 10.973 0.338L17.473 19.338C17.525 19.49 17.5 19.659 17.407 19.79C17.313 19.922 17.162 20 17 20ZM2.5 1C1.673 1 1 1.673 1 2.5V17.5C1 18.327 1.673 19 2.5 19H16.3L10.143 1H2.5Z" fill="#1C1C1C"/>
<path d="M21.5 24H13.5C13.292 24 13.105 23.871 13.032 23.676L11.532 19.676C11.435 19.417 11.566 19.129 11.824 19.032C12.083 18.936 12.371 19.066 12.468 19.324L13.847 23H21.5C22.327 23 23 22.327 23 21.5V6.5C23 5.673 22.327 5 21.5 5H12C11.724 5 11.5 4.776 11.5 4.5C11.5 4.224 11.724 4 12 4H21.5C22.878 4 24 5.122 24 6.5V21.5C24 22.878 22.878 24 21.5 24Z" fill="#1C1C1C"/>
<path d="M13.4999 24.0002C13.3829 24.0002 13.2659 23.9592 13.1709 23.8762C12.9629 23.6942 12.9419 23.3782 13.1239 23.1702L16.6239 19.1702C16.8059 18.9612 17.1219 18.9412 17.3299 19.1232C17.5379 19.3052 17.5589 19.6212 17.3769 19.8292L13.8769 23.8292C13.7769 23.9422 13.6389 24.0002 13.4999 24.0002Z" fill="#1C1C1C"/>
<path d="M9.49979 13.9997C9.29379 13.9997 9.10179 13.8727 9.02879 13.6677L6.99979 7.9867L4.97079 13.6677C4.87779 13.9277 4.59079 14.0637 4.33179 13.9707C4.07179 13.8777 3.93579 13.5917 4.02879 13.3317L6.52878 6.3317C6.67078 5.9337 7.32878 5.9337 7.46978 6.3317L9.96979 13.3317C10.0628 13.5917 9.92779 13.8777 9.66679 13.9707C9.61279 13.9907 9.55579 13.9997 9.49979 13.9997Z" fill="#1C1C1C"/>
<path d="M8 11H6C5.724 11 5.5 10.776 5.5 10.5C5.5 10.224 5.724 10 6 10H8C8.276 10 8.5 10.224 8.5 10.5C8.5 10.776 8.276 11 8 11Z" fill="#1C1C1C"/>
<path d="M21.5 11H14.5C14.224 11 14 10.776 14 10.5C14 10.224 14.224 10 14.5 10H21.5C21.776 10 22 10.224 22 10.5C22 10.776 21.776 11 21.5 11Z" fill="#1C1C1C"/>
<path d="M17.5 11C17.224 11 17 10.776 17 10.5V9.5C17 9.224 17.224 9 17.5 9C17.776 9 18 9.224 18 9.5V10.5C18 10.776 17.776 11 17.5 11Z" fill="#1C1C1C"/>
<path d="M16 17C15.843 17 15.689 16.927 15.592 16.79C15.432 16.565 15.485 16.253 15.71 16.093C17.899 14.538 19.5 11.366 19.5 10.501C19.5 10.225 19.724 10.001 20 10.001C20.276 10.001 20.5 10.225 20.5 10.501C20.5 11.819 18.573 15.286 16.29 16.909C16.202 16.97 16.101 17 16 17Z" fill="#1C1C1C"/>
<path d="M19.9998 17.9995C19.8788 17.9995 19.7578 17.9565 19.6628 17.8685C19.2998 17.5365 16.1048 14.5855 15.5368 13.1875C15.4328 12.9315 15.5568 12.6405 15.8118 12.5365C16.0648 12.4335 16.3588 12.5555 16.4628 12.8115C16.8718 13.8185 19.3988 16.2705 20.3378 17.1305C20.5418 17.3175 20.5548 17.6325 20.3688 17.8375C20.2698 17.9445 20.1348 17.9995 19.9998 17.9995Z" fill="#1C1C1C"/>
</g>
<defs>
<clipPath id="clip0_1316_63703">
<rect width="24" height="24" fill="white"/>
</clipPath>
</defs>
</svg>
