<svg width="30" height="30" viewBox="0 0 30 30" fill="none" xmlns="http://www.w3.org/2000/svg">
<g clip-path="url(#clip0_89_1223)">
<path d="M19.1996 21C19.1996 21 24.1868 21 24.6584 21C27.2774 21 29.3996 18.8778 29.3996 16.2594C29.3996 13.641 27.2774 11.5182 24.6584 11.5182C24.6464 11.5182 24.6356 11.52 24.6236 11.52C24.6602 11.2236 24.6854 10.9236 24.6854 10.6176C24.6854 6.59164 21.422 3.32764 17.3954 3.32764C14.258 3.32764 11.5922 5.31304 10.5638 8.09224C9.91161 7.43884 9.00921 7.03384 8.01321 7.03384C6.02181 7.03384 4.40781 8.64784 4.40781 10.6386C4.40781 10.6896 4.41381 10.7388 4.41561 10.7892C2.21661 11.397 0.599609 13.4064 0.599609 15.7986C0.599609 18.6714 2.92821 21 5.80161 21C6.29781 21 10.7996 21 10.7996 21" stroke="#1C1C1C" stroke-miterlimit="10" stroke-linecap="round" stroke-linejoin="round"/>
<path d="M12 16.8L15 13.8L18 16.8" stroke="#1C1C1C" stroke-miterlimit="10" stroke-linecap="round"/>
<path d="M15 25.8V13.9998" stroke="#1C1C1C" stroke-miterlimit="10" stroke-linecap="round"/>
</g>
<defs>
<clipPath id="clip0_89_1223">
<rect width="30" height="30" fill="white"/>
</clipPath>
</defs>
</svg>
