<svg width="31" height="31" viewBox="0 0 31 31" fill="none" xmlns="http://www.w3.org/2000/svg">
<path fill-rule="evenodd" clip-rule="evenodd" d="M26.35 4.45625C23.4438 1.55 19.5688 0 15.5 0C6.975 0 0 6.975 0 15.5C0 18.2125 0.775012 20.925 2.13126 23.25L0 31L8.13752 28.8687C10.4625 30.0312 12.9812 30.8062 15.5 30.8062C24.025 30.8062 31 23.8312 31 15.3062C31 11.2375 29.2563 7.3625 26.35 4.45625ZM15.5 28.2875C13.175 28.2875 10.85 27.7063 8.91251 26.5438L8.52499 26.35L3.68124 27.7062L5.03751 23.0562L4.64999 22.475C3.29374 20.3438 2.71249 18.0188 2.71249 15.6938C2.71249 8.71875 8.525 2.90625 15.5 2.90625C18.9875 2.90625 22.0875 4.2625 24.6063 6.5875C27.125 9.10625 28.2875 12.2063 28.2875 15.6938C28.2875 22.475 22.6688 28.2875 15.5 28.2875ZM22.475 18.6C22.0875 18.4062 20.15 17.4375 19.7625 17.4375C19.375 17.2437 19.1812 17.2438 18.9875 17.6313C18.7937 18.0188 18.0188 18.7937 17.825 19.1812C17.6313 19.375 17.4375 19.375 17.05 19.375C16.6625 19.1812 15.5 18.7938 13.95 17.4375C12.7875 16.4688 12.0125 15.1125 11.8188 14.725C11.625 14.3375 11.8188 14.1437 12.0125 13.95C12.2063 13.7562 12.4 13.5625 12.5938 13.3687C12.7875 13.175 12.7875 12.9813 12.9813 12.7875C13.175 12.5938 12.9813 12.4 12.9813 12.2063C12.9813 12.0125 12.2063 10.075 11.8188 9.3C11.625 8.71875 11.2375 8.71875 11.0438 8.71875C10.85 8.71875 10.6562 8.71875 10.2687 8.71875C10.075 8.71875 9.68748 8.71875 9.29998 9.10625C8.91248 9.49375 7.94376 10.4625 7.94376 12.4C7.94376 14.3375 9.29999 16.0812 9.49374 16.4688C9.68749 16.6625 12.2062 20.7313 16.0812 22.2812C19.375 23.6375 19.9563 23.25 20.7313 23.25C21.5063 23.25 23.0562 22.2812 23.25 21.5063C23.6375 20.5375 23.6375 19.7625 23.4438 19.7625C23.25 18.7938 22.8625 18.7938 22.475 18.6Z" fill="white"/>
</svg>
