<svg width="23" height="25" viewBox="0 0 23 25" fill="none" xmlns="http://www.w3.org/2000/svg">
<path d="M20.2628 24.3406H4.01413C3.88466 24.3406 3.75519 24.2435 3.75519 24.0817V1.42419C3.75519 0.614997 4.40255 0 5.17938 0H21.1691C21.9783 0 22.5933 0.647365 22.5933 1.42419V21.9454C22.6256 23.2725 21.5575 24.3406 20.2628 24.3406ZM4.27309 23.8551H20.2628C21.2986 23.8551 22.1401 23.0135 22.1401 21.9778V1.45655C22.1401 0.938668 21.7194 0.517888 21.2015 0.517888H5.21174C4.69386 0.517888 4.27309 0.938668 4.27309 1.45655V23.8551Z" fill="#7012E3"/>
<path d="M18.1577 21.978V20.4243H0.25824V21.978C0.25824 23.1432 1.1969 24.1142 2.39451 24.1142H20.2939C19.0963 24.1142 18.1577 23.1432 18.1577 21.978Z" fill="#7012E3"/>
<path d="M20.2623 24.3398H2.36285C1.06813 24.3398 0 23.2716 0 21.9769V20.4232C0 20.2938 0.0970996 20.1643 0.258939 20.1643H18.1583C18.2878 20.1643 18.4173 20.2614 18.4173 20.4232V21.9769C18.4173 23.0127 19.2589 23.8542 20.2946 23.8542C20.4241 23.8542 20.5536 23.9513 20.5536 24.1132C20.5212 24.2426 20.3917 24.3398 20.2623 24.3398ZM0.485518 20.6822V22.0093C0.485518 23.045 1.32708 23.8866 2.36285 23.8866H18.8057C18.2555 23.4658 17.8671 22.7861 17.8671 22.0093V20.6822H0.485518Z" fill="#7012E3"/>
<path d="M7.34842 7.15489C7.28368 7.15489 7.18657 7.12253 7.1542 7.05779L5.85948 5.14809C5.79475 5.05099 5.82712 4.88915 5.92422 4.82441C6.02133 4.75968 6.18317 4.79204 6.2479 4.88914L7.31604 6.50754L9.16101 3.7239C9.22574 3.6268 9.38758 3.59443 9.48469 3.65917C9.58179 3.72391 9.61416 3.88574 9.54943 3.98285L7.47788 7.05779C7.51024 7.12253 7.44552 7.15489 7.34842 7.15489Z" fill="#7012E3"/>
<path d="M7.34842 12.1024C7.28368 12.1024 7.18657 12.07 7.1542 12.0053L5.85948 10.0956C5.79475 9.9985 5.82712 9.83666 5.92422 9.77192C6.02133 9.70718 6.18317 9.73956 6.2479 9.83666L7.31604 11.4551L9.16101 8.67142C9.22574 8.57431 9.38758 8.54194 9.48469 8.60668C9.58179 8.67141 9.61416 8.83325 9.54943 8.93035L7.47788 12.0053C7.51024 12.07 7.44552 12.1024 7.34842 12.1024Z" fill="#7012E3"/>
<path d="M7.34842 17.0873C7.28368 17.0873 7.18657 17.0549 7.1542 16.9902L5.85948 15.0805C5.79475 14.9834 5.82712 14.8215 5.92422 14.7568C6.02133 14.692 6.18317 14.7244 6.2479 14.8215L7.31604 16.4399L9.16101 13.6563C9.22574 13.5592 9.38758 13.5268 9.48469 13.5915C9.58179 13.6563 9.61416 13.8181 9.54943 13.9152L7.47788 16.9902C7.51024 17.0225 7.44552 17.0873 7.34842 17.0873Z" fill="#7012E3"/>
<path d="M19.9711 5.5943H12.3323C12.2028 5.5943 12.0734 5.49719 12.0734 5.33535C12.0734 5.20588 12.1705 5.07642 12.3323 5.07642H19.9711C20.1006 5.07642 20.2301 5.17352 20.2301 5.33535C20.2301 5.49719 20.1006 5.5943 19.9711 5.5943Z" fill="#7012E3"/>
<path d="M19.9711 10.5789H12.3323C12.2028 10.5789 12.0734 10.4818 12.0734 10.32C12.0734 10.1905 12.1705 10.061 12.3323 10.061H19.9711C20.1006 10.061 20.2301 10.1581 20.2301 10.32C20.2301 10.4495 20.1006 10.5789 19.9711 10.5789Z" fill="#7012E3"/>
<path d="M19.9711 15.5333H12.3323C12.2028 15.5333 12.0734 15.4362 12.0734 15.2743C12.0734 15.1448 12.1705 15.0154 12.3323 15.0154H19.9711C20.1006 15.0154 20.2301 15.1125 20.2301 15.2743C20.2301 15.4362 20.1006 15.5333 19.9711 15.5333Z" fill="#7012E3"/>
<path d="M16.1513 4.07331H12.3319C12.2025 4.07331 12.073 3.97621 12.073 3.81437C12.073 3.6849 12.1701 3.55542 12.3319 3.55542H16.1513C16.2808 3.55542 16.4103 3.65253 16.4103 3.81437C16.4103 3.97621 16.2808 4.07331 16.1513 4.07331Z" fill="#7012E3"/>
<path d="M0.747525 18.3843C0.618054 18.3843 0.488586 18.2872 0.488586 18.1253V17.1867C0.488586 17.0572 0.585686 16.9277 0.747525 16.9277C0.876997 16.9277 1.00646 17.0248 1.00646 17.1867V18.1253C1.00646 18.2872 0.876997 18.3843 0.747525 18.3843Z" fill="#7012E3"/>
</svg>
