<svg width="140" height="40" viewBox="0 0 140 40" fill="none" xmlns="http://www.w3.org/2000/svg">
<circle cx="20" cy="20" r="20" fill="#7012E3"/>
<circle cx="20" cy="20" r="16" stroke="white" stroke-width="1.5"/>
<path d="M10 30L23.75 23.75L30 10L16.25 16.25L10 30ZM12.5175 27.4825L16.6425 18.4088L21.5912 23.3575L12.5175 27.4825Z" fill="white"/>
<path d="M49.7054 26.7639V15.3787H46V13.345H55.4179V15.3787H51.7125V26.7639H49.7054Z" fill="#7012E3"/>
<path d="M63.688 21.6796C63.688 21.9944 63.6652 22.3152 63.6194 22.642H56.3973C56.5346 23.4289 56.8605 24.0523 57.3751 24.5123C57.9012 24.9723 58.5988 25.2023 59.468 25.2023C59.9941 25.2023 60.543 25.1055 61.1148 24.9118C61.6981 24.7181 62.1956 24.4639 62.6073 24.1492L63.3964 25.62C62.2413 26.5279 60.909 26.9818 59.3994 26.9818C57.7754 26.9818 56.5403 26.4795 55.694 25.4747C54.8591 24.47 54.4417 23.2594 54.4417 21.8431C54.4417 20.3662 54.8763 19.1496 55.7454 18.1933C56.626 17.2248 57.764 16.7406 59.1592 16.7406C60.4973 16.7406 61.5837 17.1824 62.4186 18.0661C63.2649 18.962 63.688 20.1665 63.688 21.6796ZM59.1592 18.4656C58.4502 18.4656 57.844 18.7017 57.3408 19.1738C56.8491 19.6338 56.5346 20.2451 56.3973 21.0078H61.7839C61.7038 20.2451 61.4179 19.6338 60.9261 19.1738C60.4458 18.7017 59.8568 18.4656 59.1592 18.4656Z" fill="#7012E3"/>
<path d="M66.9167 26.7639H65.0297V16.9767H66.8824V18.3567C67.1569 17.8482 67.5514 17.4488 68.0661 17.1582C68.5807 16.8677 69.164 16.7224 69.8159 16.7224C70.8337 16.7224 71.6914 17.0735 72.389 17.7756C73.0981 18.4898 73.4526 19.5006 73.4526 20.808V26.7639H71.5485V21.3709C71.5485 20.4872 71.3483 19.8033 70.9481 19.3191C70.5478 18.8227 70.0103 18.5746 69.3355 18.5746C68.6265 18.5746 68.0432 18.8409 67.5858 19.3735C67.1397 19.8941 66.9167 20.572 66.9167 21.4073V26.7639Z" fill="#7012E3"/>
<path d="M82.4069 18.3385V13H84.3111V26.7639H82.4413V25.4021C81.6407 26.4674 80.6057 27 79.3363 27C77.9982 27 76.8946 26.5097 76.0254 25.5292C75.1448 24.5244 74.7045 23.3018 74.7045 21.8612C74.7045 20.4328 75.1448 19.2222 76.0254 18.2296C76.8946 17.2369 77.9925 16.7406 79.3191 16.7406C80.5428 16.7406 81.5721 17.2732 82.4069 18.3385ZM82.5442 21.8612C82.5442 20.9412 82.2697 20.1665 81.7208 19.537C81.1718 18.8954 80.457 18.5746 79.5764 18.5746C78.6958 18.5746 77.9811 18.8954 77.4321 19.537C76.8832 20.1665 76.6087 20.9412 76.6087 21.8612C76.6087 22.8054 76.8832 23.5923 77.4321 24.2218C77.9811 24.8513 78.6958 25.166 79.5764 25.166C80.457 25.166 81.1718 24.8513 81.7208 24.2218C82.2697 23.5923 82.5442 22.8054 82.5442 21.8612Z" fill="#7012E3"/>
<path d="M94.9456 21.6796C94.9456 21.9944 94.9228 22.3152 94.877 22.642H87.6549C87.7922 23.4289 88.1181 24.0523 88.6327 24.5123C89.1588 24.9723 89.8564 25.2023 90.7256 25.2023C91.2517 25.2023 91.8006 25.1055 92.3724 24.9118C92.9557 24.7181 93.4532 24.4639 93.8649 24.1492L94.654 25.62C93.4989 26.5279 92.1666 26.9818 90.657 26.9818C89.033 26.9818 87.7979 26.4795 86.9516 25.4747C86.1167 24.47 85.6993 23.2594 85.6993 21.8431C85.6993 20.3662 86.1339 19.1496 87.003 18.1933C87.8837 17.2248 89.0216 16.7406 90.4168 16.7406C91.7549 16.7406 92.8413 17.1824 93.6762 18.0661C94.5225 18.962 94.9456 20.1665 94.9456 21.6796ZM90.4168 18.4656C89.7078 18.4656 89.1016 18.7017 88.5984 19.1738C88.1067 19.6338 87.7922 20.2451 87.6549 21.0078H93.0415C92.9614 20.2451 92.6755 19.6338 92.1837 19.1738C91.7034 18.7017 91.1144 18.4656 90.4168 18.4656Z" fill="#7012E3"/>
<path d="M98.1743 26.7639H96.2873V16.9767H98.0886V18.3748C98.6375 17.2732 99.5124 16.7224 100.713 16.7224C101.102 16.7224 101.468 16.7769 101.811 16.8859L101.64 18.8288C101.331 18.7077 100.993 18.6472 100.627 18.6472C99.8841 18.6472 99.2894 18.9135 98.8434 19.4462C98.3973 19.9788 98.1743 20.7475 98.1743 21.7523V26.7639Z" fill="#7012E3"/>
<path d="M107.222 26.7639H105.867L101.561 13.345H103.688L106.587 22.9144L109.795 13.345H110.842L114.118 22.9144L116.966 13.345H119.093L114.804 26.7639H113.483L110.344 17.1401L107.222 26.7639Z" fill="#7012E3"/>
<path d="M120.963 15.6874C120.597 15.6874 120.288 15.5603 120.037 15.3061C119.785 15.0398 119.659 14.7129 119.659 14.3256C119.659 13.9503 119.785 13.6355 120.037 13.3813C120.288 13.1271 120.597 13 120.963 13C121.318 13 121.615 13.1271 121.855 13.3813C122.095 13.6355 122.215 13.9503 122.215 14.3256C122.215 14.7129 122.095 15.0398 121.855 15.3061C121.615 15.5603 121.318 15.6874 120.963 15.6874ZM121.872 16.9767V26.7639H119.985V16.9767H121.872Z" fill="#7012E3"/>
<path d="M126.537 27C125.805 27 125.125 26.8245 124.496 26.4734C123.867 26.1224 123.363 25.6139 122.986 24.9481L124.204 23.786C124.479 24.2581 124.827 24.6273 125.25 24.8936C125.685 25.1479 126.125 25.275 126.571 25.275C127.017 25.275 127.383 25.16 127.669 24.93C127.955 24.6879 128.098 24.3973 128.098 24.0584C128.098 23.5741 127.835 23.1989 127.309 22.9326C127.172 22.8478 126.8 22.6844 126.194 22.4423C125.576 22.1639 125.188 21.9762 125.027 21.8794C124.044 21.3346 123.552 20.5296 123.552 19.4643C123.552 18.6533 123.838 17.9814 124.41 17.4488C125.005 16.9161 125.771 16.6498 126.709 16.6498C128.024 16.6498 129.036 17.1522 129.745 18.1569L128.647 19.3917C128.098 18.6775 127.423 18.3204 126.623 18.3204C126.245 18.3204 125.942 18.4233 125.714 18.6291C125.496 18.8348 125.388 19.0891 125.388 19.3917C125.388 19.8759 125.645 20.233 126.16 20.463L127.103 20.8807C127.709 21.147 128.144 21.3528 128.407 21.4981C129.459 22.0791 129.985 22.9023 129.985 23.9676C129.985 24.8271 129.665 25.5473 129.025 26.1284C128.384 26.7095 127.555 27 126.537 27Z" fill="#7012E3"/>
<path d="M140 21.6796C140 21.9944 139.977 22.3152 139.931 22.642H132.709C132.847 23.4289 133.172 24.0523 133.687 24.5123C134.213 24.9723 134.911 25.2023 135.78 25.2023C136.306 25.2023 136.855 25.1055 137.427 24.9118C138.01 24.7181 138.508 24.4639 138.919 24.1492L139.708 25.62C138.553 26.5279 137.221 26.9818 135.711 26.9818C134.087 26.9818 132.852 26.4795 132.006 25.4747C131.171 24.47 130.754 23.2594 130.754 21.8431C130.754 20.3662 131.188 19.1496 132.057 18.1933C132.938 17.2248 134.076 16.7406 135.471 16.7406C136.809 16.7406 137.896 17.1824 138.731 18.0661C139.577 18.962 140 20.1665 140 21.6796ZM135.471 18.4656C134.762 18.4656 134.156 18.7017 133.653 19.1738C133.161 19.6338 132.847 20.2451 132.709 21.0078H138.096C138.016 20.2451 137.73 19.6338 137.238 19.1738C136.758 18.7017 136.169 18.4656 135.471 18.4656Z" fill="#7012E3"/>
</svg>
