<svg width="112" height="25" viewBox="0 0 112 25" fill="none" xmlns="http://www.w3.org/2000/svg">
<g clip-path="url(#clip0_435_4802)">
<path d="M24.2585 12.0128C24.2585 18.6219 18.9007 23.9797 12.2916 23.9797C5.68247 23.9797 0.324707 18.6219 0.324707 12.0128C0.324707 5.40366 5.68247 0.0458984 12.2916 0.0458984C18.9007 0.0458984 24.2585 5.40366 24.2585 12.0128ZM4.44022 12.0128C4.44022 16.349 7.95541 19.8642 12.2916 19.8642C16.6278 19.8642 20.143 16.349 20.143 12.0128C20.143 7.6766 16.6278 4.16141 12.2916 4.16141C7.95541 4.16141 4.44022 7.6766 4.44022 12.0128Z" fill="#462B6F"/>
<path d="M12.2918 18.2974C15.7903 18.2974 18.6265 15.4612 18.6265 11.9627C18.6265 8.46409 15.7903 5.62793 12.2918 5.62793C8.79319 5.62793 5.95703 8.46409 5.95703 11.9627C5.95703 15.4612 8.79319 18.2974 12.2918 18.2974Z" fill="#462B6F"/>
<path d="M11.7324 12.7823L12.9072 11.1807L21.5307 18.8108L11.7324 12.7823Z" fill="#FDF8F2"/>
<path d="M12.9105 11.1827L11.7314 12.7904L3.02686 5.23828L12.9105 11.1827Z" fill="#FDF8F2"/>
<path d="M12.2479 12.7859C12.7295 12.7859 13.1199 12.3955 13.1199 11.9139C13.1199 11.4324 12.7295 11.042 12.2479 11.042C11.7664 11.042 11.376 11.4324 11.376 11.9139C11.376 12.3955 11.7664 12.7859 12.2479 12.7859Z" fill="#462B6F"/>
</g>
<path d="M33.3145 18.0924V8.19486H30.0933V6.42688H38.2805V8.19486H35.0593V18.0924H33.3145Z" fill="#462B6F"/>
<path d="M45.47 13.6724C45.47 13.946 45.4501 14.2249 45.4104 14.5091H39.132C39.2513 15.1931 39.5346 15.7351 39.982 16.135C40.4393 16.5349 41.0458 16.7348 41.8014 16.7348C42.2587 16.7348 42.736 16.6506 43.2331 16.4823C43.7401 16.3139 44.1726 16.0929 44.5305 15.8193L45.2165 17.0979C44.2123 17.8872 43.0541 18.2818 41.7418 18.2818C40.33 18.2818 39.2562 17.8451 38.5205 16.9716C37.7948 16.0981 37.4319 15.0458 37.4319 13.8145C37.4319 12.5306 37.8097 11.473 38.5653 10.6416C39.3308 9.79972 40.32 9.37877 41.533 9.37877C42.6962 9.37877 43.6407 9.76288 44.3664 10.5311C45.1022 11.3099 45.47 12.357 45.47 13.6724ZM41.533 10.8784C40.9166 10.8784 40.3896 11.0836 39.9522 11.494C39.5247 11.8939 39.2513 12.4254 39.132 13.0884H43.8147C43.7451 12.4254 43.4965 11.8939 43.069 11.494C42.6514 11.0836 42.1394 10.8784 41.533 10.8784Z" fill="#462B6F"/>
<path d="M48.2768 18.0924H46.6364V9.58398H48.247V10.7837C48.4856 10.3417 48.8286 9.9944 49.276 9.74184C49.7234 9.48927 50.2304 9.36298 50.7971 9.36298C51.682 9.36298 52.4276 9.66817 53.0341 10.2785C53.6505 10.8994 53.9587 11.7782 53.9587 12.9147V18.0924H52.3033V13.4041C52.3033 12.6358 52.1294 12.0413 51.7814 11.6203C51.4334 11.1888 50.9661 10.9731 50.3796 10.9731C49.7631 10.9731 49.2561 11.2046 48.8584 11.6677C48.4707 12.1202 48.2768 12.7095 48.2768 13.4356V18.0924Z" fill="#462B6F"/>
<path d="M61.7429 10.7679V6.12695H63.3983V18.0924H61.7728V16.9085C61.0768 17.8345 60.1771 18.2976 59.0735 18.2976C57.9103 18.2976 56.9509 17.8714 56.1953 17.019C55.4298 16.1455 55.047 15.0826 55.047 13.8303C55.047 12.5885 55.4298 11.5361 56.1953 10.6732C56.9509 9.81024 57.9053 9.37877 59.0586 9.37877C60.1224 9.37877 61.0172 9.84181 61.7429 10.7679ZM61.8623 13.8303C61.8623 13.0305 61.6236 12.357 61.1464 11.8097C60.6692 11.252 60.0478 10.9731 59.2823 10.9731C58.5168 10.9731 57.8954 11.252 57.4182 11.8097C56.9409 12.357 56.7023 13.0305 56.7023 13.8303C56.7023 14.6511 56.9409 15.3352 57.4182 15.8824C57.8954 16.4296 58.5168 16.7032 59.2823 16.7032C60.0478 16.7032 60.6692 16.4296 61.1464 15.8824C61.6236 15.3352 61.8623 14.6511 61.8623 13.8303Z" fill="#462B6F"/>
<path d="M72.6432 13.6724C72.6432 13.946 72.6233 14.2249 72.5836 14.5091H66.3052C66.4245 15.1931 66.7078 15.7351 67.1552 16.135C67.6126 16.5349 68.219 16.7348 68.9746 16.7348C69.4319 16.7348 69.9092 16.6506 70.4063 16.4823C70.9133 16.3139 71.3458 16.0929 71.7037 15.8193L72.3897 17.0979C71.3856 17.8872 70.2273 18.2818 68.915 18.2818C67.5032 18.2818 66.4295 17.8451 65.6937 16.9716C64.968 16.0981 64.6051 15.0458 64.6051 13.8145C64.6051 12.5306 64.9829 11.473 65.7385 10.6416C66.504 9.79972 67.4932 9.37877 68.7062 9.37877C69.8694 9.37877 70.8139 9.76288 71.5397 10.5311C72.2754 11.3099 72.6432 12.357 72.6432 13.6724ZM68.7062 10.8784C68.0898 10.8784 67.5628 11.0836 67.1254 11.494C66.6979 11.8939 66.4245 12.4254 66.3052 13.0884H70.9879C70.9183 12.4254 70.6697 11.8939 70.2422 11.494C69.8247 11.0836 69.3126 10.8784 68.7062 10.8784Z" fill="#462B6F"/>
<path d="M75.45 18.0924H73.8096V9.58398H75.3755V10.7995C75.8527 9.84181 76.6132 9.36298 77.6572 9.36298C77.9952 9.36298 78.3133 9.41034 78.6116 9.50505L78.4625 11.1941C78.194 11.0889 77.9007 11.0362 77.5826 11.0362C76.9364 11.0362 76.4194 11.2678 76.0316 11.7308C75.6439 12.1939 75.45 12.8621 75.45 13.7356V18.0924Z" fill="#462B6F"/>
<path d="M83.3154 18.0924H82.1372L78.3941 6.42688H80.2433L82.7636 14.7458L85.5523 6.42688H86.462L89.3104 14.7458L91.786 6.42688H93.6352L89.9069 18.0924H88.7586L86.0295 9.72605L83.3154 18.0924Z" fill="#462B6F"/>
<path d="M95.261 8.46321C94.9428 8.46321 94.6744 8.35271 94.4557 8.13171C94.2369 7.90019 94.1276 7.61605 94.1276 7.2793C94.1276 6.95306 94.2369 6.67945 94.4557 6.45845C94.6744 6.23745 94.9428 6.12695 95.261 6.12695C95.5692 6.12695 95.8277 6.23745 96.0364 6.45845C96.2452 6.67945 96.3496 6.95306 96.3496 7.2793C96.3496 7.61605 96.2452 7.90019 96.0364 8.13171C95.8277 8.35271 95.5692 8.46321 95.261 8.46321ZM96.0514 9.58398V18.0924H94.4109V9.58398H96.0514Z" fill="#462B6F"/>
<path d="M100.107 18.2976C99.4704 18.2976 98.8788 18.145 98.332 17.8398C97.7852 17.5346 97.3477 17.0926 97.0196 16.5138L98.0785 15.5036C98.3171 15.914 98.6203 16.2349 98.9882 16.4665C99.366 16.6875 99.7487 16.798 100.136 16.798C100.524 16.798 100.842 16.698 101.091 16.498C101.339 16.2876 101.464 16.035 101.464 15.7403C101.464 15.3194 101.235 14.9932 100.778 14.7616C100.658 14.688 100.335 14.5459 99.8084 14.3354C99.2715 14.0934 98.9335 13.9303 98.7943 13.8461C97.9393 13.3725 97.5118 12.6727 97.5118 11.7466C97.5118 11.0415 97.7603 10.4574 98.2574 9.99441C98.7744 9.53136 99.4405 9.29984 100.256 9.29984C101.399 9.29984 102.279 9.73657 102.895 10.61L101.941 11.6835C101.464 11.0626 100.877 10.7521 100.181 10.7521C99.8531 10.7521 99.5897 10.8416 99.3908 11.0205C99.2019 11.1994 99.1075 11.4204 99.1075 11.6835C99.1075 12.1044 99.3312 12.4149 99.7786 12.6148L100.599 12.9779C101.126 13.2094 101.504 13.3883 101.732 13.5146C102.647 14.0197 103.104 14.7353 103.104 15.6614C103.104 16.4086 102.826 17.0347 102.269 17.5399C101.712 18.045 100.991 18.2976 100.107 18.2976Z" fill="#462B6F"/>
<path d="M111.81 13.6724C111.81 13.946 111.79 14.2249 111.751 14.5091H105.472C105.592 15.1931 105.875 15.7351 106.322 16.135C106.78 16.5349 107.386 16.7348 108.142 16.7348C108.599 16.7348 109.076 16.6506 109.573 16.4823C110.08 16.3139 110.513 16.0929 110.871 15.8193L111.557 17.0979C110.553 17.8872 109.394 18.2818 108.082 18.2818C106.67 18.2818 105.597 17.8451 104.861 16.9716C104.135 16.0981 103.772 15.0458 103.772 13.8145C103.772 12.5306 104.15 11.473 104.906 10.6416C105.671 9.79972 106.66 9.37877 107.873 9.37877C109.037 9.37877 109.981 9.76288 110.707 10.5311C111.443 11.3099 111.81 12.357 111.81 13.6724ZM107.873 10.8784C107.257 10.8784 106.73 11.0836 106.293 11.494C105.865 11.8939 105.592 12.4254 105.472 13.0884H110.155C110.085 12.4254 109.837 11.8939 109.409 11.494C108.992 11.0836 108.48 10.8784 107.873 10.8784Z" fill="#462B6F"/>
<defs>
<clipPath id="clip0_435_4802">
<rect width="24.4244" height="24.4244" fill="white"/>
</clipPath>
</defs>
</svg>
